%TF.GenerationSoftware,KiCad,Pcbnew,9.0.2*%
%TF.CreationDate,2025-06-25T21:04:22+02:00*%
%TF.ProjectId,Schrankbeleuchtung,53636872-616e-46b6-9265-6c6575636874,rev?*%
%TF.SameCoordinates,Original*%
%TF.FileFunction,Soldermask,Bot*%
%TF.FilePolarity,Negative*%
%FSLAX46Y46*%
G04 Gerber Fmt 4.6, Leading zero omitted, Abs format (unit mm)*
G04 Created by KiCad (PCBNEW 9.0.2) date 2025-06-25 21:04:22*
%MOMM*%
%LPD*%
G01*
G04 APERTURE LIST*
G04 Aperture macros list*
%AMRoundRect*
0 Rectangle with rounded corners*
0 $1 Rounding radius*
0 $2 $3 $4 $5 $6 $7 $8 $9 X,Y pos of 4 corners*
0 Add a 4 corners polygon primitive as box body*
4,1,4,$2,$3,$4,$5,$6,$7,$8,$9,$2,$3,0*
0 Add four circle primitives for the rounded corners*
1,1,$1+$1,$2,$3*
1,1,$1+$1,$4,$5*
1,1,$1+$1,$6,$7*
1,1,$1+$1,$8,$9*
0 Add four rect primitives between the rounded corners*
20,1,$1+$1,$2,$3,$4,$5,0*
20,1,$1+$1,$4,$5,$6,$7,0*
20,1,$1+$1,$6,$7,$8,$9,0*
20,1,$1+$1,$8,$9,$2,$3,0*%
%AMFreePoly0*
4,1,37,0.603843,0.796157,0.639018,0.796157,0.711114,0.766294,0.766294,0.711114,0.796157,0.639018,0.796157,0.603843,0.800000,0.600000,0.800000,-0.600000,0.796157,-0.603843,0.796157,-0.639018,0.766294,-0.711114,0.711114,-0.766294,0.639018,-0.796157,0.603843,-0.796157,0.600000,-0.800000,0.000000,-0.800000,0.000000,-0.796148,-0.078414,-0.796148,-0.232228,-0.765552,-0.377117,-0.705537,
-0.507515,-0.618408,-0.618408,-0.507515,-0.705537,-0.377117,-0.765552,-0.232228,-0.796148,-0.078414,-0.796148,0.078414,-0.765552,0.232228,-0.705537,0.377117,-0.618408,0.507515,-0.507515,0.618408,-0.377117,0.705537,-0.232228,0.765552,-0.078414,0.796148,0.000000,0.796148,0.000000,0.800000,0.600000,0.800000,0.603843,0.796157,0.603843,0.796157,$1*%
%AMFreePoly1*
4,1,37,0.000000,0.796148,0.078414,0.796148,0.232228,0.765552,0.377117,0.705537,0.507515,0.618408,0.618408,0.507515,0.705537,0.377117,0.765552,0.232228,0.796148,0.078414,0.796148,-0.078414,0.765552,-0.232228,0.705537,-0.377117,0.618408,-0.507515,0.507515,-0.618408,0.377117,-0.705537,0.232228,-0.765552,0.078414,-0.796148,0.000000,-0.796148,0.000000,-0.800000,-0.600000,-0.800000,
-0.603843,-0.796157,-0.639018,-0.796157,-0.711114,-0.766294,-0.766294,-0.711114,-0.796157,-0.639018,-0.796157,-0.603843,-0.800000,-0.600000,-0.800000,0.600000,-0.796157,0.603843,-0.796157,0.639018,-0.766294,0.711114,-0.711114,0.766294,-0.639018,0.796157,-0.603843,0.796157,-0.600000,0.800000,0.000000,0.800000,0.000000,0.796148,0.000000,0.796148,$1*%
G04 Aperture macros list end*
%ADD10RoundRect,0.250000X-0.600000X-0.750000X0.600000X-0.750000X0.600000X0.750000X-0.600000X0.750000X0*%
%ADD11O,1.700000X2.000000*%
%ADD12R,3.500000X3.500000*%
%ADD13RoundRect,0.750000X-0.750000X-1.000000X0.750000X-1.000000X0.750000X1.000000X-0.750000X1.000000X0*%
%ADD14RoundRect,0.875000X-0.875000X-0.875000X0.875000X-0.875000X0.875000X0.875000X-0.875000X0.875000X0*%
%ADD15C,3.500000*%
%ADD16RoundRect,0.200000X0.600000X-0.600000X0.600000X0.600000X-0.600000X0.600000X-0.600000X-0.600000X0*%
%ADD17C,1.600000*%
%ADD18FreePoly0,90.000000*%
%ADD19FreePoly1,90.000000*%
G04 APERTURE END LIST*
D10*
%TO.C,J4*%
X79500000Y-86000000D03*
D11*
X82000000Y-86000000D03*
%TD*%
D12*
%TO.C,J1*%
X55000000Y-78000000D03*
D13*
X49000000Y-78000000D03*
D14*
X52000000Y-82700000D03*
%TD*%
D15*
%TO.C,H3*%
X97000000Y-48000000D03*
%TD*%
%TO.C,H1*%
X48000000Y-87000000D03*
%TD*%
D10*
%TO.C,J9*%
X89000000Y-78000000D03*
D11*
X91500000Y-78000000D03*
%TD*%
D10*
%TO.C,J6*%
X60500000Y-78000000D03*
D11*
X63000000Y-78000000D03*
%TD*%
D15*
%TO.C,H4*%
X48000000Y-48000000D03*
%TD*%
D10*
%TO.C,J5*%
X89000000Y-86000000D03*
D11*
X91500000Y-86000000D03*
%TD*%
D10*
%TO.C,J3*%
X70000000Y-86000000D03*
D11*
X72500000Y-86000000D03*
%TD*%
D10*
%TO.C,J8*%
X79500000Y-78000000D03*
D11*
X82000000Y-78000000D03*
%TD*%
D16*
%TO.C,A1*%
X46500000Y-69780000D03*
D17*
X49040000Y-69780000D03*
D18*
X51580000Y-69780000D03*
D17*
X54120000Y-69780000D03*
X56660000Y-69780000D03*
X59200000Y-69780000D03*
X61740000Y-69780000D03*
D18*
X64280000Y-69780000D03*
D17*
X66820000Y-69780000D03*
X69360000Y-69780000D03*
X71900000Y-69780000D03*
X74440000Y-69780000D03*
D18*
X76980000Y-69780000D03*
D17*
X79520000Y-69780000D03*
X82060000Y-69780000D03*
X84600000Y-69780000D03*
X87140000Y-69780000D03*
D18*
X89680000Y-69780000D03*
D17*
X92220000Y-69780000D03*
X94760000Y-69780000D03*
X94760000Y-52000000D03*
X92220000Y-52000000D03*
D19*
X89680000Y-52000000D03*
D17*
X87140000Y-52000000D03*
X84600000Y-52000000D03*
X82060000Y-52000000D03*
X79520000Y-52000000D03*
D19*
X76980000Y-52000000D03*
D17*
X74440000Y-52000000D03*
X71900000Y-52000000D03*
X69360000Y-52000000D03*
X66820000Y-52000000D03*
D19*
X64280000Y-52000000D03*
D17*
X61740000Y-52000000D03*
X59200000Y-52000000D03*
X56660000Y-52000000D03*
X54120000Y-52000000D03*
D19*
X51580000Y-52000000D03*
D17*
X49040000Y-52000000D03*
X46500000Y-52000000D03*
%TD*%
D10*
%TO.C,J7*%
X70000000Y-78000000D03*
D11*
X72500000Y-78000000D03*
%TD*%
D15*
%TO.C,H2*%
X97000000Y-87000000D03*
%TD*%
D10*
%TO.C,J2*%
X60500000Y-86000000D03*
D11*
X63000000Y-86000000D03*
%TD*%
M02*
