M48
; DRILL file {KiCad 9.0.2} date 2025-06-25T21:04:39+0200
; FORMAT={-:-/ absolute / metric / decimal}
; #@! TF.CreationDate,2025-06-25T21:04:39+02:00
; #@! TF.GenerationSoftware,Kicad,Pcbnew,9.0.2
; #@! TF.FileFunction,Plated,1,2,PTH
FMAT,2
METRIC
; #@! TA.AperFunction,Plated,PTH,ViaDrill
T1C0.300
; #@! TA.AperFunction,Plated,PTH,ComponentDrill
T2C1.000
; #@! TA.AperFunction,Plated,PTH,ComponentDrill
T3C2.200
%
G90
G05
T1
X47.789Y-68.0
X47.789Y-72.0
X52.063Y-60.437
X53.0Y-56.5
X56.063Y-60.437
X60.063Y-60.437
X64.063Y-60.437
X71.0Y-66.0
X71.5Y-60.5
X74.5Y-59.0
X74.5Y-62.5
X82.0Y-61.0
T2
X46.5Y-52.0
X46.5Y-69.78
X49.04Y-52.0
X49.04Y-69.78
X51.58Y-52.0
X51.58Y-69.78
X54.12Y-52.0
X54.12Y-69.78
X56.66Y-52.0
X56.66Y-69.78
X59.2Y-52.0
X59.2Y-69.78
X60.5Y-78.0
X60.5Y-86.0
X61.74Y-52.0
X61.74Y-69.78
X63.0Y-78.0
X63.0Y-86.0
X64.28Y-52.0
X64.28Y-69.78
X66.82Y-52.0
X66.82Y-69.78
X69.36Y-52.0
X69.36Y-69.78
X70.0Y-78.0
X70.0Y-86.0
X71.9Y-52.0
X71.9Y-69.78
X72.5Y-78.0
X72.5Y-86.0
X74.44Y-52.0
X74.44Y-69.78
X76.98Y-52.0
X76.98Y-69.78
X79.5Y-78.0
X79.5Y-86.0
X79.52Y-52.0
X79.52Y-69.78
X82.0Y-78.0
X82.0Y-86.0
X82.06Y-52.0
X82.06Y-69.78
X84.6Y-52.0
X84.6Y-69.78
X87.14Y-52.0
X87.14Y-69.78
X89.0Y-78.0
X89.0Y-86.0
X89.68Y-52.0
X89.68Y-69.78
X91.5Y-78.0
X91.5Y-86.0
X92.22Y-52.0
X92.22Y-69.78
X94.76Y-52.0
X94.76Y-69.78
T3
X48.0Y-48.0
X48.0Y-87.0
X97.0Y-48.0
X97.0Y-87.0
T2
G00X49.0Y-77.0
M15
G01X49.0Y-79.0
M16
G05
G00X51.0Y-82.7
M15
G01X53.0Y-82.7
M16
G05
G00X55.0Y-77.0
M15
G01X55.0Y-79.0
M16
G05
M30
