%TF.GenerationSoftware,KiCad,Pcbnew,9.0.2*%
%TF.CreationDate,2025-06-25T21:04:22+02:00*%
%TF.ProjectId,Schrankbeleuchtung,53636872-616e-46b6-9265-6c6575636874,rev?*%
%TF.SameCoordinates,Original*%
%TF.FileFunction,AssemblyDrawing,Top*%
%FSLAX46Y46*%
G04 Gerber Fmt 4.6, Leading zero omitted, Abs format (unit mm)*
G04 Created by KiCad (PCBNEW 9.0.2) date 2025-06-25 21:04:22*
%MOMM*%
%LPD*%
G01*
G04 APERTURE LIST*
%ADD10C,0.080000*%
%ADD11C,0.050000*%
%ADD12C,0.150000*%
%ADD13C,0.130000*%
%ADD14C,0.075000*%
%ADD15C,0.095000*%
%ADD16C,0.100000*%
G04 APERTURE END LIST*
D10*
X68178571Y-66227149D02*
X68011905Y-65989054D01*
X67892857Y-66227149D02*
X67892857Y-65727149D01*
X67892857Y-65727149D02*
X68083333Y-65727149D01*
X68083333Y-65727149D02*
X68130952Y-65750959D01*
X68130952Y-65750959D02*
X68154762Y-65774768D01*
X68154762Y-65774768D02*
X68178571Y-65822387D01*
X68178571Y-65822387D02*
X68178571Y-65893816D01*
X68178571Y-65893816D02*
X68154762Y-65941435D01*
X68154762Y-65941435D02*
X68130952Y-65965244D01*
X68130952Y-65965244D02*
X68083333Y-65989054D01*
X68083333Y-65989054D02*
X67892857Y-65989054D01*
X68654762Y-66227149D02*
X68369048Y-66227149D01*
X68511905Y-66227149D02*
X68511905Y-65727149D01*
X68511905Y-65727149D02*
X68464286Y-65798578D01*
X68464286Y-65798578D02*
X68416667Y-65846197D01*
X68416667Y-65846197D02*
X68369048Y-65870006D01*
X68964285Y-65727149D02*
X69011904Y-65727149D01*
X69011904Y-65727149D02*
X69059523Y-65750959D01*
X69059523Y-65750959D02*
X69083333Y-65774768D01*
X69083333Y-65774768D02*
X69107142Y-65822387D01*
X69107142Y-65822387D02*
X69130952Y-65917625D01*
X69130952Y-65917625D02*
X69130952Y-66036673D01*
X69130952Y-66036673D02*
X69107142Y-66131911D01*
X69107142Y-66131911D02*
X69083333Y-66179530D01*
X69083333Y-66179530D02*
X69059523Y-66203340D01*
X69059523Y-66203340D02*
X69011904Y-66227149D01*
X69011904Y-66227149D02*
X68964285Y-66227149D01*
X68964285Y-66227149D02*
X68916666Y-66203340D01*
X68916666Y-66203340D02*
X68892857Y-66179530D01*
X68892857Y-66179530D02*
X68869047Y-66131911D01*
X68869047Y-66131911D02*
X68845238Y-66036673D01*
X68845238Y-66036673D02*
X68845238Y-65917625D01*
X68845238Y-65917625D02*
X68869047Y-65822387D01*
X68869047Y-65822387D02*
X68892857Y-65774768D01*
X68892857Y-65774768D02*
X68916666Y-65750959D01*
X68916666Y-65750959D02*
X68964285Y-65727149D01*
D11*
X51094523Y-60725914D02*
X51064047Y-60710676D01*
X51064047Y-60710676D02*
X51033571Y-60680200D01*
X51033571Y-60680200D02*
X50987857Y-60634485D01*
X50987857Y-60634485D02*
X50957380Y-60619247D01*
X50957380Y-60619247D02*
X50926904Y-60619247D01*
X50942142Y-60695438D02*
X50911666Y-60680200D01*
X50911666Y-60680200D02*
X50881190Y-60649723D01*
X50881190Y-60649723D02*
X50865952Y-60588771D01*
X50865952Y-60588771D02*
X50865952Y-60482104D01*
X50865952Y-60482104D02*
X50881190Y-60421152D01*
X50881190Y-60421152D02*
X50911666Y-60390676D01*
X50911666Y-60390676D02*
X50942142Y-60375438D01*
X50942142Y-60375438D02*
X51003095Y-60375438D01*
X51003095Y-60375438D02*
X51033571Y-60390676D01*
X51033571Y-60390676D02*
X51064047Y-60421152D01*
X51064047Y-60421152D02*
X51079285Y-60482104D01*
X51079285Y-60482104D02*
X51079285Y-60588771D01*
X51079285Y-60588771D02*
X51064047Y-60649723D01*
X51064047Y-60649723D02*
X51033571Y-60680200D01*
X51033571Y-60680200D02*
X51003095Y-60695438D01*
X51003095Y-60695438D02*
X50942142Y-60695438D01*
X51384047Y-60695438D02*
X51201190Y-60695438D01*
X51292618Y-60695438D02*
X51292618Y-60375438D01*
X51292618Y-60375438D02*
X51262142Y-60421152D01*
X51262142Y-60421152D02*
X51231666Y-60451628D01*
X51231666Y-60451628D02*
X51201190Y-60466866D01*
D12*
X74273809Y-90531009D02*
X74416666Y-90578628D01*
X74416666Y-90578628D02*
X74464285Y-90626247D01*
X74464285Y-90626247D02*
X74511904Y-90721485D01*
X74511904Y-90721485D02*
X74511904Y-90864342D01*
X74511904Y-90864342D02*
X74464285Y-90959580D01*
X74464285Y-90959580D02*
X74416666Y-91007200D01*
X74416666Y-91007200D02*
X74321428Y-91054819D01*
X74321428Y-91054819D02*
X73940476Y-91054819D01*
X73940476Y-91054819D02*
X73940476Y-90054819D01*
X73940476Y-90054819D02*
X74273809Y-90054819D01*
X74273809Y-90054819D02*
X74369047Y-90102438D01*
X74369047Y-90102438D02*
X74416666Y-90150057D01*
X74416666Y-90150057D02*
X74464285Y-90245295D01*
X74464285Y-90245295D02*
X74464285Y-90340533D01*
X74464285Y-90340533D02*
X74416666Y-90435771D01*
X74416666Y-90435771D02*
X74369047Y-90483390D01*
X74369047Y-90483390D02*
X74273809Y-90531009D01*
X74273809Y-90531009D02*
X73940476Y-90531009D01*
X74892857Y-90150057D02*
X74940476Y-90102438D01*
X74940476Y-90102438D02*
X75035714Y-90054819D01*
X75035714Y-90054819D02*
X75273809Y-90054819D01*
X75273809Y-90054819D02*
X75369047Y-90102438D01*
X75369047Y-90102438D02*
X75416666Y-90150057D01*
X75416666Y-90150057D02*
X75464285Y-90245295D01*
X75464285Y-90245295D02*
X75464285Y-90340533D01*
X75464285Y-90340533D02*
X75416666Y-90483390D01*
X75416666Y-90483390D02*
X74845238Y-91054819D01*
X74845238Y-91054819D02*
X75464285Y-91054819D01*
X76226190Y-90531009D02*
X76369047Y-90578628D01*
X76369047Y-90578628D02*
X76416666Y-90626247D01*
X76416666Y-90626247D02*
X76464285Y-90721485D01*
X76464285Y-90721485D02*
X76464285Y-90864342D01*
X76464285Y-90864342D02*
X76416666Y-90959580D01*
X76416666Y-90959580D02*
X76369047Y-91007200D01*
X76369047Y-91007200D02*
X76273809Y-91054819D01*
X76273809Y-91054819D02*
X75892857Y-91054819D01*
X75892857Y-91054819D02*
X75892857Y-90054819D01*
X75892857Y-90054819D02*
X76226190Y-90054819D01*
X76226190Y-90054819D02*
X76321428Y-90102438D01*
X76321428Y-90102438D02*
X76369047Y-90150057D01*
X76369047Y-90150057D02*
X76416666Y-90245295D01*
X76416666Y-90245295D02*
X76416666Y-90340533D01*
X76416666Y-90340533D02*
X76369047Y-90435771D01*
X76369047Y-90435771D02*
X76321428Y-90483390D01*
X76321428Y-90483390D02*
X76226190Y-90531009D01*
X76226190Y-90531009D02*
X75892857Y-90531009D01*
X76892857Y-90673866D02*
X77654762Y-90673866D01*
X78035714Y-90054819D02*
X78702380Y-91054819D01*
X78702380Y-90054819D02*
X78035714Y-91054819D01*
X79083333Y-91054819D02*
X79083333Y-90054819D01*
X79083333Y-90531009D02*
X79654761Y-90531009D01*
X79654761Y-91054819D02*
X79654761Y-90054819D01*
X80130952Y-90673866D02*
X80892857Y-90673866D01*
X81321428Y-90769104D02*
X81797618Y-90769104D01*
X81226190Y-91054819D02*
X81559523Y-90054819D01*
X81559523Y-90054819D02*
X81892856Y-91054819D01*
X82226190Y-91054819D02*
X82226190Y-90054819D01*
X82226190Y-90054819D02*
X82559523Y-90769104D01*
X82559523Y-90769104D02*
X82892856Y-90054819D01*
X82892856Y-90054819D02*
X82892856Y-91054819D01*
X83845237Y-91054819D02*
X83369047Y-91054819D01*
X83369047Y-91054819D02*
X83369047Y-90054819D01*
X84511904Y-90531009D02*
X84178571Y-90531009D01*
X84178571Y-91054819D02*
X84178571Y-90054819D01*
X84178571Y-90054819D02*
X84654761Y-90054819D01*
X84988095Y-91007200D02*
X85130952Y-91054819D01*
X85130952Y-91054819D02*
X85369047Y-91054819D01*
X85369047Y-91054819D02*
X85464285Y-91007200D01*
X85464285Y-91007200D02*
X85511904Y-90959580D01*
X85511904Y-90959580D02*
X85559523Y-90864342D01*
X85559523Y-90864342D02*
X85559523Y-90769104D01*
X85559523Y-90769104D02*
X85511904Y-90673866D01*
X85511904Y-90673866D02*
X85464285Y-90626247D01*
X85464285Y-90626247D02*
X85369047Y-90578628D01*
X85369047Y-90578628D02*
X85178571Y-90531009D01*
X85178571Y-90531009D02*
X85083333Y-90483390D01*
X85083333Y-90483390D02*
X85035714Y-90435771D01*
X85035714Y-90435771D02*
X84988095Y-90340533D01*
X84988095Y-90340533D02*
X84988095Y-90245295D01*
X84988095Y-90245295D02*
X85035714Y-90150057D01*
X85035714Y-90150057D02*
X85083333Y-90102438D01*
X85083333Y-90102438D02*
X85178571Y-90054819D01*
X85178571Y-90054819D02*
X85416666Y-90054819D01*
X85416666Y-90054819D02*
X85559523Y-90102438D01*
X85988095Y-91054819D02*
X85988095Y-90054819D01*
X85988095Y-90054819D02*
X86559523Y-91054819D01*
X86559523Y-91054819D02*
X86559523Y-90054819D01*
X87035714Y-91054819D02*
X87035714Y-90054819D01*
X87035714Y-90054819D02*
X87416666Y-90054819D01*
X87416666Y-90054819D02*
X87511904Y-90102438D01*
X87511904Y-90102438D02*
X87559523Y-90150057D01*
X87559523Y-90150057D02*
X87607142Y-90245295D01*
X87607142Y-90245295D02*
X87607142Y-90388152D01*
X87607142Y-90388152D02*
X87559523Y-90483390D01*
X87559523Y-90483390D02*
X87511904Y-90531009D01*
X87511904Y-90531009D02*
X87416666Y-90578628D01*
X87416666Y-90578628D02*
X87035714Y-90578628D01*
X80416666Y-88154819D02*
X80416666Y-88869104D01*
X80416666Y-88869104D02*
X80369047Y-89011961D01*
X80369047Y-89011961D02*
X80273809Y-89107200D01*
X80273809Y-89107200D02*
X80130952Y-89154819D01*
X80130952Y-89154819D02*
X80035714Y-89154819D01*
X81321428Y-88488152D02*
X81321428Y-89154819D01*
X81083333Y-88107200D02*
X80845238Y-88821485D01*
X80845238Y-88821485D02*
X81464285Y-88821485D01*
X43752380Y-71954819D02*
X43561904Y-71954819D01*
X43561904Y-71954819D02*
X43466666Y-72002438D01*
X43466666Y-72002438D02*
X43419047Y-72050057D01*
X43419047Y-72050057D02*
X43323809Y-72192914D01*
X43323809Y-72192914D02*
X43276190Y-72383390D01*
X43276190Y-72383390D02*
X43276190Y-72764342D01*
X43276190Y-72764342D02*
X43323809Y-72859580D01*
X43323809Y-72859580D02*
X43371428Y-72907200D01*
X43371428Y-72907200D02*
X43466666Y-72954819D01*
X43466666Y-72954819D02*
X43657142Y-72954819D01*
X43657142Y-72954819D02*
X43752380Y-72907200D01*
X43752380Y-72907200D02*
X43799999Y-72859580D01*
X43799999Y-72859580D02*
X43847618Y-72764342D01*
X43847618Y-72764342D02*
X43847618Y-72526247D01*
X43847618Y-72526247D02*
X43799999Y-72431009D01*
X43799999Y-72431009D02*
X43752380Y-72383390D01*
X43752380Y-72383390D02*
X43657142Y-72335771D01*
X43657142Y-72335771D02*
X43466666Y-72335771D01*
X43466666Y-72335771D02*
X43371428Y-72383390D01*
X43371428Y-72383390D02*
X43323809Y-72431009D01*
X43323809Y-72431009D02*
X43276190Y-72526247D01*
X44323809Y-72954819D02*
X44514285Y-72954819D01*
X44514285Y-72954819D02*
X44609523Y-72907200D01*
X44609523Y-72907200D02*
X44657142Y-72859580D01*
X44657142Y-72859580D02*
X44752380Y-72716723D01*
X44752380Y-72716723D02*
X44799999Y-72526247D01*
X44799999Y-72526247D02*
X44799999Y-72145295D01*
X44799999Y-72145295D02*
X44752380Y-72050057D01*
X44752380Y-72050057D02*
X44704761Y-72002438D01*
X44704761Y-72002438D02*
X44609523Y-71954819D01*
X44609523Y-71954819D02*
X44419047Y-71954819D01*
X44419047Y-71954819D02*
X44323809Y-72002438D01*
X44323809Y-72002438D02*
X44276190Y-72050057D01*
X44276190Y-72050057D02*
X44228571Y-72145295D01*
X44228571Y-72145295D02*
X44228571Y-72383390D01*
X44228571Y-72383390D02*
X44276190Y-72478628D01*
X44276190Y-72478628D02*
X44323809Y-72526247D01*
X44323809Y-72526247D02*
X44419047Y-72573866D01*
X44419047Y-72573866D02*
X44609523Y-72573866D01*
X44609523Y-72573866D02*
X44704761Y-72526247D01*
X44704761Y-72526247D02*
X44752380Y-72478628D01*
X44752380Y-72478628D02*
X44799999Y-72383390D01*
X45657142Y-72288152D02*
X45657142Y-72954819D01*
X45419047Y-71907200D02*
X45180952Y-72621485D01*
X45180952Y-72621485D02*
X45799999Y-72621485D01*
X46704761Y-72954819D02*
X46133333Y-72954819D01*
X46419047Y-72954819D02*
X46419047Y-71954819D01*
X46419047Y-71954819D02*
X46323809Y-72097676D01*
X46323809Y-72097676D02*
X46228571Y-72192914D01*
X46228571Y-72192914D02*
X46133333Y-72240533D01*
X47323809Y-71954819D02*
X47419047Y-71954819D01*
X47419047Y-71954819D02*
X47514285Y-72002438D01*
X47514285Y-72002438D02*
X47561904Y-72050057D01*
X47561904Y-72050057D02*
X47609523Y-72145295D01*
X47609523Y-72145295D02*
X47657142Y-72335771D01*
X47657142Y-72335771D02*
X47657142Y-72573866D01*
X47657142Y-72573866D02*
X47609523Y-72764342D01*
X47609523Y-72764342D02*
X47561904Y-72859580D01*
X47561904Y-72859580D02*
X47514285Y-72907200D01*
X47514285Y-72907200D02*
X47419047Y-72954819D01*
X47419047Y-72954819D02*
X47323809Y-72954819D01*
X47323809Y-72954819D02*
X47228571Y-72907200D01*
X47228571Y-72907200D02*
X47180952Y-72859580D01*
X47180952Y-72859580D02*
X47133333Y-72764342D01*
X47133333Y-72764342D02*
X47085714Y-72573866D01*
X47085714Y-72573866D02*
X47085714Y-72335771D01*
X47085714Y-72335771D02*
X47133333Y-72145295D01*
X47133333Y-72145295D02*
X47180952Y-72050057D01*
X47180952Y-72050057D02*
X47228571Y-72002438D01*
X47228571Y-72002438D02*
X47323809Y-71954819D01*
X48514285Y-71954819D02*
X48323809Y-71954819D01*
X48323809Y-71954819D02*
X48228571Y-72002438D01*
X48228571Y-72002438D02*
X48180952Y-72050057D01*
X48180952Y-72050057D02*
X48085714Y-72192914D01*
X48085714Y-72192914D02*
X48038095Y-72383390D01*
X48038095Y-72383390D02*
X48038095Y-72764342D01*
X48038095Y-72764342D02*
X48085714Y-72859580D01*
X48085714Y-72859580D02*
X48133333Y-72907200D01*
X48133333Y-72907200D02*
X48228571Y-72954819D01*
X48228571Y-72954819D02*
X48419047Y-72954819D01*
X48419047Y-72954819D02*
X48514285Y-72907200D01*
X48514285Y-72907200D02*
X48561904Y-72859580D01*
X48561904Y-72859580D02*
X48609523Y-72764342D01*
X48609523Y-72764342D02*
X48609523Y-72526247D01*
X48609523Y-72526247D02*
X48561904Y-72431009D01*
X48561904Y-72431009D02*
X48514285Y-72383390D01*
X48514285Y-72383390D02*
X48419047Y-72335771D01*
X48419047Y-72335771D02*
X48228571Y-72335771D01*
X48228571Y-72335771D02*
X48133333Y-72383390D01*
X48133333Y-72383390D02*
X48085714Y-72431009D01*
X48085714Y-72431009D02*
X48038095Y-72526247D01*
X48942857Y-71954819D02*
X49561904Y-71954819D01*
X49561904Y-71954819D02*
X49228571Y-72335771D01*
X49228571Y-72335771D02*
X49371428Y-72335771D01*
X49371428Y-72335771D02*
X49466666Y-72383390D01*
X49466666Y-72383390D02*
X49514285Y-72431009D01*
X49514285Y-72431009D02*
X49561904Y-72526247D01*
X49561904Y-72526247D02*
X49561904Y-72764342D01*
X49561904Y-72764342D02*
X49514285Y-72859580D01*
X49514285Y-72859580D02*
X49466666Y-72907200D01*
X49466666Y-72907200D02*
X49371428Y-72954819D01*
X49371428Y-72954819D02*
X49085714Y-72954819D01*
X49085714Y-72954819D02*
X48990476Y-72907200D01*
X48990476Y-72907200D02*
X48942857Y-72859580D01*
X50180952Y-71954819D02*
X50276190Y-71954819D01*
X50276190Y-71954819D02*
X50371428Y-72002438D01*
X50371428Y-72002438D02*
X50419047Y-72050057D01*
X50419047Y-72050057D02*
X50466666Y-72145295D01*
X50466666Y-72145295D02*
X50514285Y-72335771D01*
X50514285Y-72335771D02*
X50514285Y-72573866D01*
X50514285Y-72573866D02*
X50466666Y-72764342D01*
X50466666Y-72764342D02*
X50419047Y-72859580D01*
X50419047Y-72859580D02*
X50371428Y-72907200D01*
X50371428Y-72907200D02*
X50276190Y-72954819D01*
X50276190Y-72954819D02*
X50180952Y-72954819D01*
X50180952Y-72954819D02*
X50085714Y-72907200D01*
X50085714Y-72907200D02*
X50038095Y-72859580D01*
X50038095Y-72859580D02*
X49990476Y-72764342D01*
X49990476Y-72764342D02*
X49942857Y-72573866D01*
X49942857Y-72573866D02*
X49942857Y-72335771D01*
X49942857Y-72335771D02*
X49990476Y-72145295D01*
X49990476Y-72145295D02*
X50038095Y-72050057D01*
X50038095Y-72050057D02*
X50085714Y-72002438D01*
X50085714Y-72002438D02*
X50180952Y-71954819D01*
X51466666Y-72954819D02*
X50895238Y-72954819D01*
X51180952Y-72954819D02*
X51180952Y-71954819D01*
X51180952Y-71954819D02*
X51085714Y-72097676D01*
X51085714Y-72097676D02*
X50990476Y-72192914D01*
X50990476Y-72192914D02*
X50895238Y-72240533D01*
X52085714Y-71954819D02*
X52180952Y-71954819D01*
X52180952Y-71954819D02*
X52276190Y-72002438D01*
X52276190Y-72002438D02*
X52323809Y-72050057D01*
X52323809Y-72050057D02*
X52371428Y-72145295D01*
X52371428Y-72145295D02*
X52419047Y-72335771D01*
X52419047Y-72335771D02*
X52419047Y-72573866D01*
X52419047Y-72573866D02*
X52371428Y-72764342D01*
X52371428Y-72764342D02*
X52323809Y-72859580D01*
X52323809Y-72859580D02*
X52276190Y-72907200D01*
X52276190Y-72907200D02*
X52180952Y-72954819D01*
X52180952Y-72954819D02*
X52085714Y-72954819D01*
X52085714Y-72954819D02*
X51990476Y-72907200D01*
X51990476Y-72907200D02*
X51942857Y-72859580D01*
X51942857Y-72859580D02*
X51895238Y-72764342D01*
X51895238Y-72764342D02*
X51847619Y-72573866D01*
X51847619Y-72573866D02*
X51847619Y-72335771D01*
X51847619Y-72335771D02*
X51895238Y-72145295D01*
X51895238Y-72145295D02*
X51942857Y-72050057D01*
X51942857Y-72050057D02*
X51990476Y-72002438D01*
X51990476Y-72002438D02*
X52085714Y-71954819D01*
X53038095Y-71954819D02*
X53133333Y-71954819D01*
X53133333Y-71954819D02*
X53228571Y-72002438D01*
X53228571Y-72002438D02*
X53276190Y-72050057D01*
X53276190Y-72050057D02*
X53323809Y-72145295D01*
X53323809Y-72145295D02*
X53371428Y-72335771D01*
X53371428Y-72335771D02*
X53371428Y-72573866D01*
X53371428Y-72573866D02*
X53323809Y-72764342D01*
X53323809Y-72764342D02*
X53276190Y-72859580D01*
X53276190Y-72859580D02*
X53228571Y-72907200D01*
X53228571Y-72907200D02*
X53133333Y-72954819D01*
X53133333Y-72954819D02*
X53038095Y-72954819D01*
X53038095Y-72954819D02*
X52942857Y-72907200D01*
X52942857Y-72907200D02*
X52895238Y-72859580D01*
X52895238Y-72859580D02*
X52847619Y-72764342D01*
X52847619Y-72764342D02*
X52800000Y-72573866D01*
X52800000Y-72573866D02*
X52800000Y-72335771D01*
X52800000Y-72335771D02*
X52847619Y-72145295D01*
X52847619Y-72145295D02*
X52895238Y-72050057D01*
X52895238Y-72050057D02*
X52942857Y-72002438D01*
X52942857Y-72002438D02*
X53038095Y-71954819D01*
X53752381Y-72050057D02*
X53800000Y-72002438D01*
X53800000Y-72002438D02*
X53895238Y-71954819D01*
X53895238Y-71954819D02*
X54133333Y-71954819D01*
X54133333Y-71954819D02*
X54228571Y-72002438D01*
X54228571Y-72002438D02*
X54276190Y-72050057D01*
X54276190Y-72050057D02*
X54323809Y-72145295D01*
X54323809Y-72145295D02*
X54323809Y-72240533D01*
X54323809Y-72240533D02*
X54276190Y-72383390D01*
X54276190Y-72383390D02*
X53704762Y-72954819D01*
X53704762Y-72954819D02*
X54323809Y-72954819D01*
X51666666Y-74504819D02*
X51666666Y-75219104D01*
X51666666Y-75219104D02*
X51619047Y-75361961D01*
X51619047Y-75361961D02*
X51523809Y-75457200D01*
X51523809Y-75457200D02*
X51380952Y-75504819D01*
X51380952Y-75504819D02*
X51285714Y-75504819D01*
X52666666Y-75504819D02*
X52095238Y-75504819D01*
X52380952Y-75504819D02*
X52380952Y-74504819D01*
X52380952Y-74504819D02*
X52285714Y-74647676D01*
X52285714Y-74647676D02*
X52190476Y-74742914D01*
X52190476Y-74742914D02*
X52095238Y-74790533D01*
D13*
X96329523Y-48400345D02*
X96329523Y-47520345D01*
X96329523Y-47939393D02*
X96832380Y-47939393D01*
X96832380Y-48400345D02*
X96832380Y-47520345D01*
X97167619Y-47520345D02*
X97712381Y-47520345D01*
X97712381Y-47520345D02*
X97419047Y-47855583D01*
X97419047Y-47855583D02*
X97544762Y-47855583D01*
X97544762Y-47855583D02*
X97628571Y-47897488D01*
X97628571Y-47897488D02*
X97670476Y-47939393D01*
X97670476Y-47939393D02*
X97712381Y-48023202D01*
X97712381Y-48023202D02*
X97712381Y-48232726D01*
X97712381Y-48232726D02*
X97670476Y-48316536D01*
X97670476Y-48316536D02*
X97628571Y-48358441D01*
X97628571Y-48358441D02*
X97544762Y-48400345D01*
X97544762Y-48400345D02*
X97293333Y-48400345D01*
X97293333Y-48400345D02*
X97209524Y-48358441D01*
X97209524Y-48358441D02*
X97167619Y-48316536D01*
X47329523Y-87400345D02*
X47329523Y-86520345D01*
X47329523Y-86939393D02*
X47832380Y-86939393D01*
X47832380Y-87400345D02*
X47832380Y-86520345D01*
X48712381Y-87400345D02*
X48209524Y-87400345D01*
X48460952Y-87400345D02*
X48460952Y-86520345D01*
X48460952Y-86520345D02*
X48377143Y-86646060D01*
X48377143Y-86646060D02*
X48293333Y-86729869D01*
X48293333Y-86729869D02*
X48209524Y-86771774D01*
D10*
X52289649Y-65133333D02*
X52051554Y-65299999D01*
X52289649Y-65419047D02*
X51789649Y-65419047D01*
X51789649Y-65419047D02*
X51789649Y-65228571D01*
X51789649Y-65228571D02*
X51813459Y-65180952D01*
X51813459Y-65180952D02*
X51837268Y-65157142D01*
X51837268Y-65157142D02*
X51884887Y-65133333D01*
X51884887Y-65133333D02*
X51956316Y-65133333D01*
X51956316Y-65133333D02*
X52003935Y-65157142D01*
X52003935Y-65157142D02*
X52027744Y-65180952D01*
X52027744Y-65180952D02*
X52051554Y-65228571D01*
X52051554Y-65228571D02*
X52051554Y-65419047D01*
X52289649Y-64657142D02*
X52289649Y-64942856D01*
X52289649Y-64799999D02*
X51789649Y-64799999D01*
X51789649Y-64799999D02*
X51861078Y-64847618D01*
X51861078Y-64847618D02*
X51908697Y-64895237D01*
X51908697Y-64895237D02*
X51932506Y-64942856D01*
D12*
X83773809Y-82531009D02*
X83916666Y-82578628D01*
X83916666Y-82578628D02*
X83964285Y-82626247D01*
X83964285Y-82626247D02*
X84011904Y-82721485D01*
X84011904Y-82721485D02*
X84011904Y-82864342D01*
X84011904Y-82864342D02*
X83964285Y-82959580D01*
X83964285Y-82959580D02*
X83916666Y-83007200D01*
X83916666Y-83007200D02*
X83821428Y-83054819D01*
X83821428Y-83054819D02*
X83440476Y-83054819D01*
X83440476Y-83054819D02*
X83440476Y-82054819D01*
X83440476Y-82054819D02*
X83773809Y-82054819D01*
X83773809Y-82054819D02*
X83869047Y-82102438D01*
X83869047Y-82102438D02*
X83916666Y-82150057D01*
X83916666Y-82150057D02*
X83964285Y-82245295D01*
X83964285Y-82245295D02*
X83964285Y-82340533D01*
X83964285Y-82340533D02*
X83916666Y-82435771D01*
X83916666Y-82435771D02*
X83869047Y-82483390D01*
X83869047Y-82483390D02*
X83773809Y-82531009D01*
X83773809Y-82531009D02*
X83440476Y-82531009D01*
X84392857Y-82150057D02*
X84440476Y-82102438D01*
X84440476Y-82102438D02*
X84535714Y-82054819D01*
X84535714Y-82054819D02*
X84773809Y-82054819D01*
X84773809Y-82054819D02*
X84869047Y-82102438D01*
X84869047Y-82102438D02*
X84916666Y-82150057D01*
X84916666Y-82150057D02*
X84964285Y-82245295D01*
X84964285Y-82245295D02*
X84964285Y-82340533D01*
X84964285Y-82340533D02*
X84916666Y-82483390D01*
X84916666Y-82483390D02*
X84345238Y-83054819D01*
X84345238Y-83054819D02*
X84964285Y-83054819D01*
X85726190Y-82531009D02*
X85869047Y-82578628D01*
X85869047Y-82578628D02*
X85916666Y-82626247D01*
X85916666Y-82626247D02*
X85964285Y-82721485D01*
X85964285Y-82721485D02*
X85964285Y-82864342D01*
X85964285Y-82864342D02*
X85916666Y-82959580D01*
X85916666Y-82959580D02*
X85869047Y-83007200D01*
X85869047Y-83007200D02*
X85773809Y-83054819D01*
X85773809Y-83054819D02*
X85392857Y-83054819D01*
X85392857Y-83054819D02*
X85392857Y-82054819D01*
X85392857Y-82054819D02*
X85726190Y-82054819D01*
X85726190Y-82054819D02*
X85821428Y-82102438D01*
X85821428Y-82102438D02*
X85869047Y-82150057D01*
X85869047Y-82150057D02*
X85916666Y-82245295D01*
X85916666Y-82245295D02*
X85916666Y-82340533D01*
X85916666Y-82340533D02*
X85869047Y-82435771D01*
X85869047Y-82435771D02*
X85821428Y-82483390D01*
X85821428Y-82483390D02*
X85726190Y-82531009D01*
X85726190Y-82531009D02*
X85392857Y-82531009D01*
X86392857Y-82673866D02*
X87154762Y-82673866D01*
X87535714Y-82054819D02*
X88202380Y-83054819D01*
X88202380Y-82054819D02*
X87535714Y-83054819D01*
X88583333Y-83054819D02*
X88583333Y-82054819D01*
X88583333Y-82531009D02*
X89154761Y-82531009D01*
X89154761Y-83054819D02*
X89154761Y-82054819D01*
X89630952Y-82673866D02*
X90392857Y-82673866D01*
X90821428Y-82769104D02*
X91297618Y-82769104D01*
X90726190Y-83054819D02*
X91059523Y-82054819D01*
X91059523Y-82054819D02*
X91392856Y-83054819D01*
X91726190Y-83054819D02*
X91726190Y-82054819D01*
X91726190Y-82054819D02*
X92059523Y-82769104D01*
X92059523Y-82769104D02*
X92392856Y-82054819D01*
X92392856Y-82054819D02*
X92392856Y-83054819D01*
X93345237Y-83054819D02*
X92869047Y-83054819D01*
X92869047Y-83054819D02*
X92869047Y-82054819D01*
X94011904Y-82531009D02*
X93678571Y-82531009D01*
X93678571Y-83054819D02*
X93678571Y-82054819D01*
X93678571Y-82054819D02*
X94154761Y-82054819D01*
X94488095Y-83007200D02*
X94630952Y-83054819D01*
X94630952Y-83054819D02*
X94869047Y-83054819D01*
X94869047Y-83054819D02*
X94964285Y-83007200D01*
X94964285Y-83007200D02*
X95011904Y-82959580D01*
X95011904Y-82959580D02*
X95059523Y-82864342D01*
X95059523Y-82864342D02*
X95059523Y-82769104D01*
X95059523Y-82769104D02*
X95011904Y-82673866D01*
X95011904Y-82673866D02*
X94964285Y-82626247D01*
X94964285Y-82626247D02*
X94869047Y-82578628D01*
X94869047Y-82578628D02*
X94678571Y-82531009D01*
X94678571Y-82531009D02*
X94583333Y-82483390D01*
X94583333Y-82483390D02*
X94535714Y-82435771D01*
X94535714Y-82435771D02*
X94488095Y-82340533D01*
X94488095Y-82340533D02*
X94488095Y-82245295D01*
X94488095Y-82245295D02*
X94535714Y-82150057D01*
X94535714Y-82150057D02*
X94583333Y-82102438D01*
X94583333Y-82102438D02*
X94678571Y-82054819D01*
X94678571Y-82054819D02*
X94916666Y-82054819D01*
X94916666Y-82054819D02*
X95059523Y-82102438D01*
X95488095Y-83054819D02*
X95488095Y-82054819D01*
X95488095Y-82054819D02*
X96059523Y-83054819D01*
X96059523Y-83054819D02*
X96059523Y-82054819D01*
X96535714Y-83054819D02*
X96535714Y-82054819D01*
X96535714Y-82054819D02*
X96916666Y-82054819D01*
X96916666Y-82054819D02*
X97011904Y-82102438D01*
X97011904Y-82102438D02*
X97059523Y-82150057D01*
X97059523Y-82150057D02*
X97107142Y-82245295D01*
X97107142Y-82245295D02*
X97107142Y-82388152D01*
X97107142Y-82388152D02*
X97059523Y-82483390D01*
X97059523Y-82483390D02*
X97011904Y-82531009D01*
X97011904Y-82531009D02*
X96916666Y-82578628D01*
X96916666Y-82578628D02*
X96535714Y-82578628D01*
X89916666Y-80154819D02*
X89916666Y-80869104D01*
X89916666Y-80869104D02*
X89869047Y-81011961D01*
X89869047Y-81011961D02*
X89773809Y-81107200D01*
X89773809Y-81107200D02*
X89630952Y-81154819D01*
X89630952Y-81154819D02*
X89535714Y-81154819D01*
X90440476Y-81154819D02*
X90630952Y-81154819D01*
X90630952Y-81154819D02*
X90726190Y-81107200D01*
X90726190Y-81107200D02*
X90773809Y-81059580D01*
X90773809Y-81059580D02*
X90869047Y-80916723D01*
X90869047Y-80916723D02*
X90916666Y-80726247D01*
X90916666Y-80726247D02*
X90916666Y-80345295D01*
X90916666Y-80345295D02*
X90869047Y-80250057D01*
X90869047Y-80250057D02*
X90821428Y-80202438D01*
X90821428Y-80202438D02*
X90726190Y-80154819D01*
X90726190Y-80154819D02*
X90535714Y-80154819D01*
X90535714Y-80154819D02*
X90440476Y-80202438D01*
X90440476Y-80202438D02*
X90392857Y-80250057D01*
X90392857Y-80250057D02*
X90345238Y-80345295D01*
X90345238Y-80345295D02*
X90345238Y-80583390D01*
X90345238Y-80583390D02*
X90392857Y-80678628D01*
X90392857Y-80678628D02*
X90440476Y-80726247D01*
X90440476Y-80726247D02*
X90535714Y-80773866D01*
X90535714Y-80773866D02*
X90726190Y-80773866D01*
X90726190Y-80773866D02*
X90821428Y-80726247D01*
X90821428Y-80726247D02*
X90869047Y-80678628D01*
X90869047Y-80678628D02*
X90916666Y-80583390D01*
X55273809Y-82531009D02*
X55416666Y-82578628D01*
X55416666Y-82578628D02*
X55464285Y-82626247D01*
X55464285Y-82626247D02*
X55511904Y-82721485D01*
X55511904Y-82721485D02*
X55511904Y-82864342D01*
X55511904Y-82864342D02*
X55464285Y-82959580D01*
X55464285Y-82959580D02*
X55416666Y-83007200D01*
X55416666Y-83007200D02*
X55321428Y-83054819D01*
X55321428Y-83054819D02*
X54940476Y-83054819D01*
X54940476Y-83054819D02*
X54940476Y-82054819D01*
X54940476Y-82054819D02*
X55273809Y-82054819D01*
X55273809Y-82054819D02*
X55369047Y-82102438D01*
X55369047Y-82102438D02*
X55416666Y-82150057D01*
X55416666Y-82150057D02*
X55464285Y-82245295D01*
X55464285Y-82245295D02*
X55464285Y-82340533D01*
X55464285Y-82340533D02*
X55416666Y-82435771D01*
X55416666Y-82435771D02*
X55369047Y-82483390D01*
X55369047Y-82483390D02*
X55273809Y-82531009D01*
X55273809Y-82531009D02*
X54940476Y-82531009D01*
X55892857Y-82150057D02*
X55940476Y-82102438D01*
X55940476Y-82102438D02*
X56035714Y-82054819D01*
X56035714Y-82054819D02*
X56273809Y-82054819D01*
X56273809Y-82054819D02*
X56369047Y-82102438D01*
X56369047Y-82102438D02*
X56416666Y-82150057D01*
X56416666Y-82150057D02*
X56464285Y-82245295D01*
X56464285Y-82245295D02*
X56464285Y-82340533D01*
X56464285Y-82340533D02*
X56416666Y-82483390D01*
X56416666Y-82483390D02*
X55845238Y-83054819D01*
X55845238Y-83054819D02*
X56464285Y-83054819D01*
X57226190Y-82531009D02*
X57369047Y-82578628D01*
X57369047Y-82578628D02*
X57416666Y-82626247D01*
X57416666Y-82626247D02*
X57464285Y-82721485D01*
X57464285Y-82721485D02*
X57464285Y-82864342D01*
X57464285Y-82864342D02*
X57416666Y-82959580D01*
X57416666Y-82959580D02*
X57369047Y-83007200D01*
X57369047Y-83007200D02*
X57273809Y-83054819D01*
X57273809Y-83054819D02*
X56892857Y-83054819D01*
X56892857Y-83054819D02*
X56892857Y-82054819D01*
X56892857Y-82054819D02*
X57226190Y-82054819D01*
X57226190Y-82054819D02*
X57321428Y-82102438D01*
X57321428Y-82102438D02*
X57369047Y-82150057D01*
X57369047Y-82150057D02*
X57416666Y-82245295D01*
X57416666Y-82245295D02*
X57416666Y-82340533D01*
X57416666Y-82340533D02*
X57369047Y-82435771D01*
X57369047Y-82435771D02*
X57321428Y-82483390D01*
X57321428Y-82483390D02*
X57226190Y-82531009D01*
X57226190Y-82531009D02*
X56892857Y-82531009D01*
X57892857Y-82673866D02*
X58654762Y-82673866D01*
X59035714Y-82054819D02*
X59702380Y-83054819D01*
X59702380Y-82054819D02*
X59035714Y-83054819D01*
X60083333Y-83054819D02*
X60083333Y-82054819D01*
X60083333Y-82531009D02*
X60654761Y-82531009D01*
X60654761Y-83054819D02*
X60654761Y-82054819D01*
X61130952Y-82673866D02*
X61892857Y-82673866D01*
X62321428Y-82769104D02*
X62797618Y-82769104D01*
X62226190Y-83054819D02*
X62559523Y-82054819D01*
X62559523Y-82054819D02*
X62892856Y-83054819D01*
X63226190Y-83054819D02*
X63226190Y-82054819D01*
X63226190Y-82054819D02*
X63559523Y-82769104D01*
X63559523Y-82769104D02*
X63892856Y-82054819D01*
X63892856Y-82054819D02*
X63892856Y-83054819D01*
X64845237Y-83054819D02*
X64369047Y-83054819D01*
X64369047Y-83054819D02*
X64369047Y-82054819D01*
X65511904Y-82531009D02*
X65178571Y-82531009D01*
X65178571Y-83054819D02*
X65178571Y-82054819D01*
X65178571Y-82054819D02*
X65654761Y-82054819D01*
X65988095Y-83007200D02*
X66130952Y-83054819D01*
X66130952Y-83054819D02*
X66369047Y-83054819D01*
X66369047Y-83054819D02*
X66464285Y-83007200D01*
X66464285Y-83007200D02*
X66511904Y-82959580D01*
X66511904Y-82959580D02*
X66559523Y-82864342D01*
X66559523Y-82864342D02*
X66559523Y-82769104D01*
X66559523Y-82769104D02*
X66511904Y-82673866D01*
X66511904Y-82673866D02*
X66464285Y-82626247D01*
X66464285Y-82626247D02*
X66369047Y-82578628D01*
X66369047Y-82578628D02*
X66178571Y-82531009D01*
X66178571Y-82531009D02*
X66083333Y-82483390D01*
X66083333Y-82483390D02*
X66035714Y-82435771D01*
X66035714Y-82435771D02*
X65988095Y-82340533D01*
X65988095Y-82340533D02*
X65988095Y-82245295D01*
X65988095Y-82245295D02*
X66035714Y-82150057D01*
X66035714Y-82150057D02*
X66083333Y-82102438D01*
X66083333Y-82102438D02*
X66178571Y-82054819D01*
X66178571Y-82054819D02*
X66416666Y-82054819D01*
X66416666Y-82054819D02*
X66559523Y-82102438D01*
X66988095Y-83054819D02*
X66988095Y-82054819D01*
X66988095Y-82054819D02*
X67559523Y-83054819D01*
X67559523Y-83054819D02*
X67559523Y-82054819D01*
X68035714Y-83054819D02*
X68035714Y-82054819D01*
X68035714Y-82054819D02*
X68416666Y-82054819D01*
X68416666Y-82054819D02*
X68511904Y-82102438D01*
X68511904Y-82102438D02*
X68559523Y-82150057D01*
X68559523Y-82150057D02*
X68607142Y-82245295D01*
X68607142Y-82245295D02*
X68607142Y-82388152D01*
X68607142Y-82388152D02*
X68559523Y-82483390D01*
X68559523Y-82483390D02*
X68511904Y-82531009D01*
X68511904Y-82531009D02*
X68416666Y-82578628D01*
X68416666Y-82578628D02*
X68035714Y-82578628D01*
X61416666Y-80154819D02*
X61416666Y-80869104D01*
X61416666Y-80869104D02*
X61369047Y-81011961D01*
X61369047Y-81011961D02*
X61273809Y-81107200D01*
X61273809Y-81107200D02*
X61130952Y-81154819D01*
X61130952Y-81154819D02*
X61035714Y-81154819D01*
X62321428Y-80154819D02*
X62130952Y-80154819D01*
X62130952Y-80154819D02*
X62035714Y-80202438D01*
X62035714Y-80202438D02*
X61988095Y-80250057D01*
X61988095Y-80250057D02*
X61892857Y-80392914D01*
X61892857Y-80392914D02*
X61845238Y-80583390D01*
X61845238Y-80583390D02*
X61845238Y-80964342D01*
X61845238Y-80964342D02*
X61892857Y-81059580D01*
X61892857Y-81059580D02*
X61940476Y-81107200D01*
X61940476Y-81107200D02*
X62035714Y-81154819D01*
X62035714Y-81154819D02*
X62226190Y-81154819D01*
X62226190Y-81154819D02*
X62321428Y-81107200D01*
X62321428Y-81107200D02*
X62369047Y-81059580D01*
X62369047Y-81059580D02*
X62416666Y-80964342D01*
X62416666Y-80964342D02*
X62416666Y-80726247D01*
X62416666Y-80726247D02*
X62369047Y-80631009D01*
X62369047Y-80631009D02*
X62321428Y-80583390D01*
X62321428Y-80583390D02*
X62226190Y-80535771D01*
X62226190Y-80535771D02*
X62035714Y-80535771D01*
X62035714Y-80535771D02*
X61940476Y-80583390D01*
X61940476Y-80583390D02*
X61892857Y-80631009D01*
X61892857Y-80631009D02*
X61845238Y-80726247D01*
D11*
X59094523Y-60725914D02*
X59064047Y-60710676D01*
X59064047Y-60710676D02*
X59033571Y-60680200D01*
X59033571Y-60680200D02*
X58987857Y-60634485D01*
X58987857Y-60634485D02*
X58957380Y-60619247D01*
X58957380Y-60619247D02*
X58926904Y-60619247D01*
X58942142Y-60695438D02*
X58911666Y-60680200D01*
X58911666Y-60680200D02*
X58881190Y-60649723D01*
X58881190Y-60649723D02*
X58865952Y-60588771D01*
X58865952Y-60588771D02*
X58865952Y-60482104D01*
X58865952Y-60482104D02*
X58881190Y-60421152D01*
X58881190Y-60421152D02*
X58911666Y-60390676D01*
X58911666Y-60390676D02*
X58942142Y-60375438D01*
X58942142Y-60375438D02*
X59003095Y-60375438D01*
X59003095Y-60375438D02*
X59033571Y-60390676D01*
X59033571Y-60390676D02*
X59064047Y-60421152D01*
X59064047Y-60421152D02*
X59079285Y-60482104D01*
X59079285Y-60482104D02*
X59079285Y-60588771D01*
X59079285Y-60588771D02*
X59064047Y-60649723D01*
X59064047Y-60649723D02*
X59033571Y-60680200D01*
X59033571Y-60680200D02*
X59003095Y-60695438D01*
X59003095Y-60695438D02*
X58942142Y-60695438D01*
X59185952Y-60375438D02*
X59384047Y-60375438D01*
X59384047Y-60375438D02*
X59277380Y-60497342D01*
X59277380Y-60497342D02*
X59323095Y-60497342D01*
X59323095Y-60497342D02*
X59353571Y-60512580D01*
X59353571Y-60512580D02*
X59368809Y-60527819D01*
X59368809Y-60527819D02*
X59384047Y-60558295D01*
X59384047Y-60558295D02*
X59384047Y-60634485D01*
X59384047Y-60634485D02*
X59368809Y-60664961D01*
X59368809Y-60664961D02*
X59353571Y-60680200D01*
X59353571Y-60680200D02*
X59323095Y-60695438D01*
X59323095Y-60695438D02*
X59231666Y-60695438D01*
X59231666Y-60695438D02*
X59201190Y-60680200D01*
X59201190Y-60680200D02*
X59185952Y-60664961D01*
X55094523Y-60725914D02*
X55064047Y-60710676D01*
X55064047Y-60710676D02*
X55033571Y-60680200D01*
X55033571Y-60680200D02*
X54987857Y-60634485D01*
X54987857Y-60634485D02*
X54957380Y-60619247D01*
X54957380Y-60619247D02*
X54926904Y-60619247D01*
X54942142Y-60695438D02*
X54911666Y-60680200D01*
X54911666Y-60680200D02*
X54881190Y-60649723D01*
X54881190Y-60649723D02*
X54865952Y-60588771D01*
X54865952Y-60588771D02*
X54865952Y-60482104D01*
X54865952Y-60482104D02*
X54881190Y-60421152D01*
X54881190Y-60421152D02*
X54911666Y-60390676D01*
X54911666Y-60390676D02*
X54942142Y-60375438D01*
X54942142Y-60375438D02*
X55003095Y-60375438D01*
X55003095Y-60375438D02*
X55033571Y-60390676D01*
X55033571Y-60390676D02*
X55064047Y-60421152D01*
X55064047Y-60421152D02*
X55079285Y-60482104D01*
X55079285Y-60482104D02*
X55079285Y-60588771D01*
X55079285Y-60588771D02*
X55064047Y-60649723D01*
X55064047Y-60649723D02*
X55033571Y-60680200D01*
X55033571Y-60680200D02*
X55003095Y-60695438D01*
X55003095Y-60695438D02*
X54942142Y-60695438D01*
X55201190Y-60405914D02*
X55216428Y-60390676D01*
X55216428Y-60390676D02*
X55246904Y-60375438D01*
X55246904Y-60375438D02*
X55323095Y-60375438D01*
X55323095Y-60375438D02*
X55353571Y-60390676D01*
X55353571Y-60390676D02*
X55368809Y-60405914D01*
X55368809Y-60405914D02*
X55384047Y-60436390D01*
X55384047Y-60436390D02*
X55384047Y-60466866D01*
X55384047Y-60466866D02*
X55368809Y-60512580D01*
X55368809Y-60512580D02*
X55185952Y-60695438D01*
X55185952Y-60695438D02*
X55384047Y-60695438D01*
D10*
X73916666Y-56179530D02*
X73892857Y-56203340D01*
X73892857Y-56203340D02*
X73821428Y-56227149D01*
X73821428Y-56227149D02*
X73773809Y-56227149D01*
X73773809Y-56227149D02*
X73702381Y-56203340D01*
X73702381Y-56203340D02*
X73654762Y-56155720D01*
X73654762Y-56155720D02*
X73630952Y-56108101D01*
X73630952Y-56108101D02*
X73607143Y-56012863D01*
X73607143Y-56012863D02*
X73607143Y-55941435D01*
X73607143Y-55941435D02*
X73630952Y-55846197D01*
X73630952Y-55846197D02*
X73654762Y-55798578D01*
X73654762Y-55798578D02*
X73702381Y-55750959D01*
X73702381Y-55750959D02*
X73773809Y-55727149D01*
X73773809Y-55727149D02*
X73821428Y-55727149D01*
X73821428Y-55727149D02*
X73892857Y-55750959D01*
X73892857Y-55750959D02*
X73916666Y-55774768D01*
X74083333Y-55727149D02*
X74392857Y-55727149D01*
X74392857Y-55727149D02*
X74226190Y-55917625D01*
X74226190Y-55917625D02*
X74297619Y-55917625D01*
X74297619Y-55917625D02*
X74345238Y-55941435D01*
X74345238Y-55941435D02*
X74369047Y-55965244D01*
X74369047Y-55965244D02*
X74392857Y-56012863D01*
X74392857Y-56012863D02*
X74392857Y-56131911D01*
X74392857Y-56131911D02*
X74369047Y-56179530D01*
X74369047Y-56179530D02*
X74345238Y-56203340D01*
X74345238Y-56203340D02*
X74297619Y-56227149D01*
X74297619Y-56227149D02*
X74154762Y-56227149D01*
X74154762Y-56227149D02*
X74107143Y-56203340D01*
X74107143Y-56203340D02*
X74083333Y-56179530D01*
D12*
X41428571Y-51154819D02*
X41428571Y-50154819D01*
X41428571Y-50154819D02*
X41761904Y-50869104D01*
X41761904Y-50869104D02*
X42095237Y-50154819D01*
X42095237Y-50154819D02*
X42095237Y-51154819D01*
X42714285Y-51154819D02*
X42619047Y-51107200D01*
X42619047Y-51107200D02*
X42571428Y-51059580D01*
X42571428Y-51059580D02*
X42523809Y-50964342D01*
X42523809Y-50964342D02*
X42523809Y-50678628D01*
X42523809Y-50678628D02*
X42571428Y-50583390D01*
X42571428Y-50583390D02*
X42619047Y-50535771D01*
X42619047Y-50535771D02*
X42714285Y-50488152D01*
X42714285Y-50488152D02*
X42857142Y-50488152D01*
X42857142Y-50488152D02*
X42952380Y-50535771D01*
X42952380Y-50535771D02*
X42999999Y-50583390D01*
X42999999Y-50583390D02*
X43047618Y-50678628D01*
X43047618Y-50678628D02*
X43047618Y-50964342D01*
X43047618Y-50964342D02*
X42999999Y-51059580D01*
X42999999Y-51059580D02*
X42952380Y-51107200D01*
X42952380Y-51107200D02*
X42857142Y-51154819D01*
X42857142Y-51154819D02*
X42714285Y-51154819D01*
X43904761Y-50488152D02*
X43904761Y-51154819D01*
X43476190Y-50488152D02*
X43476190Y-51011961D01*
X43476190Y-51011961D02*
X43523809Y-51107200D01*
X43523809Y-51107200D02*
X43619047Y-51154819D01*
X43619047Y-51154819D02*
X43761904Y-51154819D01*
X43761904Y-51154819D02*
X43857142Y-51107200D01*
X43857142Y-51107200D02*
X43904761Y-51059580D01*
X44380952Y-50488152D02*
X44380952Y-51154819D01*
X44380952Y-50583390D02*
X44428571Y-50535771D01*
X44428571Y-50535771D02*
X44523809Y-50488152D01*
X44523809Y-50488152D02*
X44666666Y-50488152D01*
X44666666Y-50488152D02*
X44761904Y-50535771D01*
X44761904Y-50535771D02*
X44809523Y-50631009D01*
X44809523Y-50631009D02*
X44809523Y-51154819D01*
X45142857Y-50488152D02*
X45523809Y-50488152D01*
X45285714Y-50154819D02*
X45285714Y-51011961D01*
X45285714Y-51011961D02*
X45333333Y-51107200D01*
X45333333Y-51107200D02*
X45428571Y-51154819D01*
X45428571Y-51154819D02*
X45523809Y-51154819D01*
X45857143Y-51154819D02*
X45857143Y-50488152D01*
X45857143Y-50154819D02*
X45809524Y-50202438D01*
X45809524Y-50202438D02*
X45857143Y-50250057D01*
X45857143Y-50250057D02*
X45904762Y-50202438D01*
X45904762Y-50202438D02*
X45857143Y-50154819D01*
X45857143Y-50154819D02*
X45857143Y-50250057D01*
X46333333Y-50488152D02*
X46333333Y-51154819D01*
X46333333Y-50583390D02*
X46380952Y-50535771D01*
X46380952Y-50535771D02*
X46476190Y-50488152D01*
X46476190Y-50488152D02*
X46619047Y-50488152D01*
X46619047Y-50488152D02*
X46714285Y-50535771D01*
X46714285Y-50535771D02*
X46761904Y-50631009D01*
X46761904Y-50631009D02*
X46761904Y-51154819D01*
X47666666Y-50488152D02*
X47666666Y-51297676D01*
X47666666Y-51297676D02*
X47619047Y-51392914D01*
X47619047Y-51392914D02*
X47571428Y-51440533D01*
X47571428Y-51440533D02*
X47476190Y-51488152D01*
X47476190Y-51488152D02*
X47333333Y-51488152D01*
X47333333Y-51488152D02*
X47238095Y-51440533D01*
X47666666Y-51107200D02*
X47571428Y-51154819D01*
X47571428Y-51154819D02*
X47380952Y-51154819D01*
X47380952Y-51154819D02*
X47285714Y-51107200D01*
X47285714Y-51107200D02*
X47238095Y-51059580D01*
X47238095Y-51059580D02*
X47190476Y-50964342D01*
X47190476Y-50964342D02*
X47190476Y-50678628D01*
X47190476Y-50678628D02*
X47238095Y-50583390D01*
X47238095Y-50583390D02*
X47285714Y-50535771D01*
X47285714Y-50535771D02*
X47380952Y-50488152D01*
X47380952Y-50488152D02*
X47571428Y-50488152D01*
X47571428Y-50488152D02*
X47666666Y-50535771D01*
X48142857Y-51154819D02*
X48142857Y-50154819D01*
X48142857Y-50631009D02*
X48714285Y-50631009D01*
X48714285Y-51154819D02*
X48714285Y-50154819D01*
X49333333Y-51154819D02*
X49238095Y-51107200D01*
X49238095Y-51107200D02*
X49190476Y-51059580D01*
X49190476Y-51059580D02*
X49142857Y-50964342D01*
X49142857Y-50964342D02*
X49142857Y-50678628D01*
X49142857Y-50678628D02*
X49190476Y-50583390D01*
X49190476Y-50583390D02*
X49238095Y-50535771D01*
X49238095Y-50535771D02*
X49333333Y-50488152D01*
X49333333Y-50488152D02*
X49476190Y-50488152D01*
X49476190Y-50488152D02*
X49571428Y-50535771D01*
X49571428Y-50535771D02*
X49619047Y-50583390D01*
X49619047Y-50583390D02*
X49666666Y-50678628D01*
X49666666Y-50678628D02*
X49666666Y-50964342D01*
X49666666Y-50964342D02*
X49619047Y-51059580D01*
X49619047Y-51059580D02*
X49571428Y-51107200D01*
X49571428Y-51107200D02*
X49476190Y-51154819D01*
X49476190Y-51154819D02*
X49333333Y-51154819D01*
X50238095Y-51154819D02*
X50142857Y-51107200D01*
X50142857Y-51107200D02*
X50095238Y-51011961D01*
X50095238Y-51011961D02*
X50095238Y-50154819D01*
X51000000Y-51107200D02*
X50904762Y-51154819D01*
X50904762Y-51154819D02*
X50714286Y-51154819D01*
X50714286Y-51154819D02*
X50619048Y-51107200D01*
X50619048Y-51107200D02*
X50571429Y-51011961D01*
X50571429Y-51011961D02*
X50571429Y-50631009D01*
X50571429Y-50631009D02*
X50619048Y-50535771D01*
X50619048Y-50535771D02*
X50714286Y-50488152D01*
X50714286Y-50488152D02*
X50904762Y-50488152D01*
X50904762Y-50488152D02*
X51000000Y-50535771D01*
X51000000Y-50535771D02*
X51047619Y-50631009D01*
X51047619Y-50631009D02*
X51047619Y-50726247D01*
X51047619Y-50726247D02*
X50571429Y-50821485D01*
X51238096Y-51250057D02*
X52000000Y-51250057D01*
X52238096Y-51154819D02*
X52238096Y-50154819D01*
X52238096Y-50154819D02*
X52619048Y-50154819D01*
X52619048Y-50154819D02*
X52714286Y-50202438D01*
X52714286Y-50202438D02*
X52761905Y-50250057D01*
X52761905Y-50250057D02*
X52809524Y-50345295D01*
X52809524Y-50345295D02*
X52809524Y-50488152D01*
X52809524Y-50488152D02*
X52761905Y-50583390D01*
X52761905Y-50583390D02*
X52714286Y-50631009D01*
X52714286Y-50631009D02*
X52619048Y-50678628D01*
X52619048Y-50678628D02*
X52238096Y-50678628D01*
X53666667Y-51154819D02*
X53666667Y-50631009D01*
X53666667Y-50631009D02*
X53619048Y-50535771D01*
X53619048Y-50535771D02*
X53523810Y-50488152D01*
X53523810Y-50488152D02*
X53333334Y-50488152D01*
X53333334Y-50488152D02*
X53238096Y-50535771D01*
X53666667Y-51107200D02*
X53571429Y-51154819D01*
X53571429Y-51154819D02*
X53333334Y-51154819D01*
X53333334Y-51154819D02*
X53238096Y-51107200D01*
X53238096Y-51107200D02*
X53190477Y-51011961D01*
X53190477Y-51011961D02*
X53190477Y-50916723D01*
X53190477Y-50916723D02*
X53238096Y-50821485D01*
X53238096Y-50821485D02*
X53333334Y-50773866D01*
X53333334Y-50773866D02*
X53571429Y-50773866D01*
X53571429Y-50773866D02*
X53666667Y-50726247D01*
X54571429Y-51154819D02*
X54571429Y-50154819D01*
X54571429Y-51107200D02*
X54476191Y-51154819D01*
X54476191Y-51154819D02*
X54285715Y-51154819D01*
X54285715Y-51154819D02*
X54190477Y-51107200D01*
X54190477Y-51107200D02*
X54142858Y-51059580D01*
X54142858Y-51059580D02*
X54095239Y-50964342D01*
X54095239Y-50964342D02*
X54095239Y-50678628D01*
X54095239Y-50678628D02*
X54142858Y-50583390D01*
X54142858Y-50583390D02*
X54190477Y-50535771D01*
X54190477Y-50535771D02*
X54285715Y-50488152D01*
X54285715Y-50488152D02*
X54476191Y-50488152D01*
X54476191Y-50488152D02*
X54571429Y-50535771D01*
D13*
X47329523Y-48400345D02*
X47329523Y-47520345D01*
X47329523Y-47939393D02*
X47832380Y-47939393D01*
X47832380Y-48400345D02*
X47832380Y-47520345D01*
X48628571Y-47813679D02*
X48628571Y-48400345D01*
X48419047Y-47478441D02*
X48209524Y-48107012D01*
X48209524Y-48107012D02*
X48754285Y-48107012D01*
D10*
X53916666Y-55179530D02*
X53892857Y-55203340D01*
X53892857Y-55203340D02*
X53821428Y-55227149D01*
X53821428Y-55227149D02*
X53773809Y-55227149D01*
X53773809Y-55227149D02*
X53702381Y-55203340D01*
X53702381Y-55203340D02*
X53654762Y-55155720D01*
X53654762Y-55155720D02*
X53630952Y-55108101D01*
X53630952Y-55108101D02*
X53607143Y-55012863D01*
X53607143Y-55012863D02*
X53607143Y-54941435D01*
X53607143Y-54941435D02*
X53630952Y-54846197D01*
X53630952Y-54846197D02*
X53654762Y-54798578D01*
X53654762Y-54798578D02*
X53702381Y-54750959D01*
X53702381Y-54750959D02*
X53773809Y-54727149D01*
X53773809Y-54727149D02*
X53821428Y-54727149D01*
X53821428Y-54727149D02*
X53892857Y-54750959D01*
X53892857Y-54750959D02*
X53916666Y-54774768D01*
X54107143Y-54774768D02*
X54130952Y-54750959D01*
X54130952Y-54750959D02*
X54178571Y-54727149D01*
X54178571Y-54727149D02*
X54297619Y-54727149D01*
X54297619Y-54727149D02*
X54345238Y-54750959D01*
X54345238Y-54750959D02*
X54369047Y-54774768D01*
X54369047Y-54774768D02*
X54392857Y-54822387D01*
X54392857Y-54822387D02*
X54392857Y-54870006D01*
X54392857Y-54870006D02*
X54369047Y-54941435D01*
X54369047Y-54941435D02*
X54083333Y-55227149D01*
X54083333Y-55227149D02*
X54392857Y-55227149D01*
D12*
X83773809Y-90531009D02*
X83916666Y-90578628D01*
X83916666Y-90578628D02*
X83964285Y-90626247D01*
X83964285Y-90626247D02*
X84011904Y-90721485D01*
X84011904Y-90721485D02*
X84011904Y-90864342D01*
X84011904Y-90864342D02*
X83964285Y-90959580D01*
X83964285Y-90959580D02*
X83916666Y-91007200D01*
X83916666Y-91007200D02*
X83821428Y-91054819D01*
X83821428Y-91054819D02*
X83440476Y-91054819D01*
X83440476Y-91054819D02*
X83440476Y-90054819D01*
X83440476Y-90054819D02*
X83773809Y-90054819D01*
X83773809Y-90054819D02*
X83869047Y-90102438D01*
X83869047Y-90102438D02*
X83916666Y-90150057D01*
X83916666Y-90150057D02*
X83964285Y-90245295D01*
X83964285Y-90245295D02*
X83964285Y-90340533D01*
X83964285Y-90340533D02*
X83916666Y-90435771D01*
X83916666Y-90435771D02*
X83869047Y-90483390D01*
X83869047Y-90483390D02*
X83773809Y-90531009D01*
X83773809Y-90531009D02*
X83440476Y-90531009D01*
X84392857Y-90150057D02*
X84440476Y-90102438D01*
X84440476Y-90102438D02*
X84535714Y-90054819D01*
X84535714Y-90054819D02*
X84773809Y-90054819D01*
X84773809Y-90054819D02*
X84869047Y-90102438D01*
X84869047Y-90102438D02*
X84916666Y-90150057D01*
X84916666Y-90150057D02*
X84964285Y-90245295D01*
X84964285Y-90245295D02*
X84964285Y-90340533D01*
X84964285Y-90340533D02*
X84916666Y-90483390D01*
X84916666Y-90483390D02*
X84345238Y-91054819D01*
X84345238Y-91054819D02*
X84964285Y-91054819D01*
X85726190Y-90531009D02*
X85869047Y-90578628D01*
X85869047Y-90578628D02*
X85916666Y-90626247D01*
X85916666Y-90626247D02*
X85964285Y-90721485D01*
X85964285Y-90721485D02*
X85964285Y-90864342D01*
X85964285Y-90864342D02*
X85916666Y-90959580D01*
X85916666Y-90959580D02*
X85869047Y-91007200D01*
X85869047Y-91007200D02*
X85773809Y-91054819D01*
X85773809Y-91054819D02*
X85392857Y-91054819D01*
X85392857Y-91054819D02*
X85392857Y-90054819D01*
X85392857Y-90054819D02*
X85726190Y-90054819D01*
X85726190Y-90054819D02*
X85821428Y-90102438D01*
X85821428Y-90102438D02*
X85869047Y-90150057D01*
X85869047Y-90150057D02*
X85916666Y-90245295D01*
X85916666Y-90245295D02*
X85916666Y-90340533D01*
X85916666Y-90340533D02*
X85869047Y-90435771D01*
X85869047Y-90435771D02*
X85821428Y-90483390D01*
X85821428Y-90483390D02*
X85726190Y-90531009D01*
X85726190Y-90531009D02*
X85392857Y-90531009D01*
X86392857Y-90673866D02*
X87154762Y-90673866D01*
X87535714Y-90054819D02*
X88202380Y-91054819D01*
X88202380Y-90054819D02*
X87535714Y-91054819D01*
X88583333Y-91054819D02*
X88583333Y-90054819D01*
X88583333Y-90531009D02*
X89154761Y-90531009D01*
X89154761Y-91054819D02*
X89154761Y-90054819D01*
X89630952Y-90673866D02*
X90392857Y-90673866D01*
X90821428Y-90769104D02*
X91297618Y-90769104D01*
X90726190Y-91054819D02*
X91059523Y-90054819D01*
X91059523Y-90054819D02*
X91392856Y-91054819D01*
X91726190Y-91054819D02*
X91726190Y-90054819D01*
X91726190Y-90054819D02*
X92059523Y-90769104D01*
X92059523Y-90769104D02*
X92392856Y-90054819D01*
X92392856Y-90054819D02*
X92392856Y-91054819D01*
X93345237Y-91054819D02*
X92869047Y-91054819D01*
X92869047Y-91054819D02*
X92869047Y-90054819D01*
X94011904Y-90531009D02*
X93678571Y-90531009D01*
X93678571Y-91054819D02*
X93678571Y-90054819D01*
X93678571Y-90054819D02*
X94154761Y-90054819D01*
X94488095Y-91007200D02*
X94630952Y-91054819D01*
X94630952Y-91054819D02*
X94869047Y-91054819D01*
X94869047Y-91054819D02*
X94964285Y-91007200D01*
X94964285Y-91007200D02*
X95011904Y-90959580D01*
X95011904Y-90959580D02*
X95059523Y-90864342D01*
X95059523Y-90864342D02*
X95059523Y-90769104D01*
X95059523Y-90769104D02*
X95011904Y-90673866D01*
X95011904Y-90673866D02*
X94964285Y-90626247D01*
X94964285Y-90626247D02*
X94869047Y-90578628D01*
X94869047Y-90578628D02*
X94678571Y-90531009D01*
X94678571Y-90531009D02*
X94583333Y-90483390D01*
X94583333Y-90483390D02*
X94535714Y-90435771D01*
X94535714Y-90435771D02*
X94488095Y-90340533D01*
X94488095Y-90340533D02*
X94488095Y-90245295D01*
X94488095Y-90245295D02*
X94535714Y-90150057D01*
X94535714Y-90150057D02*
X94583333Y-90102438D01*
X94583333Y-90102438D02*
X94678571Y-90054819D01*
X94678571Y-90054819D02*
X94916666Y-90054819D01*
X94916666Y-90054819D02*
X95059523Y-90102438D01*
X95488095Y-91054819D02*
X95488095Y-90054819D01*
X95488095Y-90054819D02*
X96059523Y-91054819D01*
X96059523Y-91054819D02*
X96059523Y-90054819D01*
X96535714Y-91054819D02*
X96535714Y-90054819D01*
X96535714Y-90054819D02*
X96916666Y-90054819D01*
X96916666Y-90054819D02*
X97011904Y-90102438D01*
X97011904Y-90102438D02*
X97059523Y-90150057D01*
X97059523Y-90150057D02*
X97107142Y-90245295D01*
X97107142Y-90245295D02*
X97107142Y-90388152D01*
X97107142Y-90388152D02*
X97059523Y-90483390D01*
X97059523Y-90483390D02*
X97011904Y-90531009D01*
X97011904Y-90531009D02*
X96916666Y-90578628D01*
X96916666Y-90578628D02*
X96535714Y-90578628D01*
X89916666Y-88154819D02*
X89916666Y-88869104D01*
X89916666Y-88869104D02*
X89869047Y-89011961D01*
X89869047Y-89011961D02*
X89773809Y-89107200D01*
X89773809Y-89107200D02*
X89630952Y-89154819D01*
X89630952Y-89154819D02*
X89535714Y-89154819D01*
X90869047Y-88154819D02*
X90392857Y-88154819D01*
X90392857Y-88154819D02*
X90345238Y-88631009D01*
X90345238Y-88631009D02*
X90392857Y-88583390D01*
X90392857Y-88583390D02*
X90488095Y-88535771D01*
X90488095Y-88535771D02*
X90726190Y-88535771D01*
X90726190Y-88535771D02*
X90821428Y-88583390D01*
X90821428Y-88583390D02*
X90869047Y-88631009D01*
X90869047Y-88631009D02*
X90916666Y-88726247D01*
X90916666Y-88726247D02*
X90916666Y-88964342D01*
X90916666Y-88964342D02*
X90869047Y-89059580D01*
X90869047Y-89059580D02*
X90821428Y-89107200D01*
X90821428Y-89107200D02*
X90726190Y-89154819D01*
X90726190Y-89154819D02*
X90488095Y-89154819D01*
X90488095Y-89154819D02*
X90392857Y-89107200D01*
X90392857Y-89107200D02*
X90345238Y-89059580D01*
D10*
X79747149Y-65083333D02*
X79509054Y-65249999D01*
X79747149Y-65369047D02*
X79247149Y-65369047D01*
X79247149Y-65369047D02*
X79247149Y-65178571D01*
X79247149Y-65178571D02*
X79270959Y-65130952D01*
X79270959Y-65130952D02*
X79294768Y-65107142D01*
X79294768Y-65107142D02*
X79342387Y-65083333D01*
X79342387Y-65083333D02*
X79413816Y-65083333D01*
X79413816Y-65083333D02*
X79461435Y-65107142D01*
X79461435Y-65107142D02*
X79485244Y-65130952D01*
X79485244Y-65130952D02*
X79509054Y-65178571D01*
X79509054Y-65178571D02*
X79509054Y-65369047D01*
X79247149Y-64654761D02*
X79247149Y-64749999D01*
X79247149Y-64749999D02*
X79270959Y-64797618D01*
X79270959Y-64797618D02*
X79294768Y-64821428D01*
X79294768Y-64821428D02*
X79366197Y-64869047D01*
X79366197Y-64869047D02*
X79461435Y-64892856D01*
X79461435Y-64892856D02*
X79651911Y-64892856D01*
X79651911Y-64892856D02*
X79699530Y-64869047D01*
X79699530Y-64869047D02*
X79723340Y-64845237D01*
X79723340Y-64845237D02*
X79747149Y-64797618D01*
X79747149Y-64797618D02*
X79747149Y-64702380D01*
X79747149Y-64702380D02*
X79723340Y-64654761D01*
X79723340Y-64654761D02*
X79699530Y-64630952D01*
X79699530Y-64630952D02*
X79651911Y-64607142D01*
X79651911Y-64607142D02*
X79532863Y-64607142D01*
X79532863Y-64607142D02*
X79485244Y-64630952D01*
X79485244Y-64630952D02*
X79461435Y-64654761D01*
X79461435Y-64654761D02*
X79437625Y-64702380D01*
X79437625Y-64702380D02*
X79437625Y-64797618D01*
X79437625Y-64797618D02*
X79461435Y-64845237D01*
X79461435Y-64845237D02*
X79485244Y-64869047D01*
X79485244Y-64869047D02*
X79532863Y-64892856D01*
D12*
X64773809Y-90531009D02*
X64916666Y-90578628D01*
X64916666Y-90578628D02*
X64964285Y-90626247D01*
X64964285Y-90626247D02*
X65011904Y-90721485D01*
X65011904Y-90721485D02*
X65011904Y-90864342D01*
X65011904Y-90864342D02*
X64964285Y-90959580D01*
X64964285Y-90959580D02*
X64916666Y-91007200D01*
X64916666Y-91007200D02*
X64821428Y-91054819D01*
X64821428Y-91054819D02*
X64440476Y-91054819D01*
X64440476Y-91054819D02*
X64440476Y-90054819D01*
X64440476Y-90054819D02*
X64773809Y-90054819D01*
X64773809Y-90054819D02*
X64869047Y-90102438D01*
X64869047Y-90102438D02*
X64916666Y-90150057D01*
X64916666Y-90150057D02*
X64964285Y-90245295D01*
X64964285Y-90245295D02*
X64964285Y-90340533D01*
X64964285Y-90340533D02*
X64916666Y-90435771D01*
X64916666Y-90435771D02*
X64869047Y-90483390D01*
X64869047Y-90483390D02*
X64773809Y-90531009D01*
X64773809Y-90531009D02*
X64440476Y-90531009D01*
X65392857Y-90150057D02*
X65440476Y-90102438D01*
X65440476Y-90102438D02*
X65535714Y-90054819D01*
X65535714Y-90054819D02*
X65773809Y-90054819D01*
X65773809Y-90054819D02*
X65869047Y-90102438D01*
X65869047Y-90102438D02*
X65916666Y-90150057D01*
X65916666Y-90150057D02*
X65964285Y-90245295D01*
X65964285Y-90245295D02*
X65964285Y-90340533D01*
X65964285Y-90340533D02*
X65916666Y-90483390D01*
X65916666Y-90483390D02*
X65345238Y-91054819D01*
X65345238Y-91054819D02*
X65964285Y-91054819D01*
X66726190Y-90531009D02*
X66869047Y-90578628D01*
X66869047Y-90578628D02*
X66916666Y-90626247D01*
X66916666Y-90626247D02*
X66964285Y-90721485D01*
X66964285Y-90721485D02*
X66964285Y-90864342D01*
X66964285Y-90864342D02*
X66916666Y-90959580D01*
X66916666Y-90959580D02*
X66869047Y-91007200D01*
X66869047Y-91007200D02*
X66773809Y-91054819D01*
X66773809Y-91054819D02*
X66392857Y-91054819D01*
X66392857Y-91054819D02*
X66392857Y-90054819D01*
X66392857Y-90054819D02*
X66726190Y-90054819D01*
X66726190Y-90054819D02*
X66821428Y-90102438D01*
X66821428Y-90102438D02*
X66869047Y-90150057D01*
X66869047Y-90150057D02*
X66916666Y-90245295D01*
X66916666Y-90245295D02*
X66916666Y-90340533D01*
X66916666Y-90340533D02*
X66869047Y-90435771D01*
X66869047Y-90435771D02*
X66821428Y-90483390D01*
X66821428Y-90483390D02*
X66726190Y-90531009D01*
X66726190Y-90531009D02*
X66392857Y-90531009D01*
X67392857Y-90673866D02*
X68154762Y-90673866D01*
X68535714Y-90054819D02*
X69202380Y-91054819D01*
X69202380Y-90054819D02*
X68535714Y-91054819D01*
X69583333Y-91054819D02*
X69583333Y-90054819D01*
X69583333Y-90531009D02*
X70154761Y-90531009D01*
X70154761Y-91054819D02*
X70154761Y-90054819D01*
X70630952Y-90673866D02*
X71392857Y-90673866D01*
X71821428Y-90769104D02*
X72297618Y-90769104D01*
X71726190Y-91054819D02*
X72059523Y-90054819D01*
X72059523Y-90054819D02*
X72392856Y-91054819D01*
X72726190Y-91054819D02*
X72726190Y-90054819D01*
X72726190Y-90054819D02*
X73059523Y-90769104D01*
X73059523Y-90769104D02*
X73392856Y-90054819D01*
X73392856Y-90054819D02*
X73392856Y-91054819D01*
X74345237Y-91054819D02*
X73869047Y-91054819D01*
X73869047Y-91054819D02*
X73869047Y-90054819D01*
X75011904Y-90531009D02*
X74678571Y-90531009D01*
X74678571Y-91054819D02*
X74678571Y-90054819D01*
X74678571Y-90054819D02*
X75154761Y-90054819D01*
X75488095Y-91007200D02*
X75630952Y-91054819D01*
X75630952Y-91054819D02*
X75869047Y-91054819D01*
X75869047Y-91054819D02*
X75964285Y-91007200D01*
X75964285Y-91007200D02*
X76011904Y-90959580D01*
X76011904Y-90959580D02*
X76059523Y-90864342D01*
X76059523Y-90864342D02*
X76059523Y-90769104D01*
X76059523Y-90769104D02*
X76011904Y-90673866D01*
X76011904Y-90673866D02*
X75964285Y-90626247D01*
X75964285Y-90626247D02*
X75869047Y-90578628D01*
X75869047Y-90578628D02*
X75678571Y-90531009D01*
X75678571Y-90531009D02*
X75583333Y-90483390D01*
X75583333Y-90483390D02*
X75535714Y-90435771D01*
X75535714Y-90435771D02*
X75488095Y-90340533D01*
X75488095Y-90340533D02*
X75488095Y-90245295D01*
X75488095Y-90245295D02*
X75535714Y-90150057D01*
X75535714Y-90150057D02*
X75583333Y-90102438D01*
X75583333Y-90102438D02*
X75678571Y-90054819D01*
X75678571Y-90054819D02*
X75916666Y-90054819D01*
X75916666Y-90054819D02*
X76059523Y-90102438D01*
X76488095Y-91054819D02*
X76488095Y-90054819D01*
X76488095Y-90054819D02*
X77059523Y-91054819D01*
X77059523Y-91054819D02*
X77059523Y-90054819D01*
X77535714Y-91054819D02*
X77535714Y-90054819D01*
X77535714Y-90054819D02*
X77916666Y-90054819D01*
X77916666Y-90054819D02*
X78011904Y-90102438D01*
X78011904Y-90102438D02*
X78059523Y-90150057D01*
X78059523Y-90150057D02*
X78107142Y-90245295D01*
X78107142Y-90245295D02*
X78107142Y-90388152D01*
X78107142Y-90388152D02*
X78059523Y-90483390D01*
X78059523Y-90483390D02*
X78011904Y-90531009D01*
X78011904Y-90531009D02*
X77916666Y-90578628D01*
X77916666Y-90578628D02*
X77535714Y-90578628D01*
X70916666Y-88154819D02*
X70916666Y-88869104D01*
X70916666Y-88869104D02*
X70869047Y-89011961D01*
X70869047Y-89011961D02*
X70773809Y-89107200D01*
X70773809Y-89107200D02*
X70630952Y-89154819D01*
X70630952Y-89154819D02*
X70535714Y-89154819D01*
X71297619Y-88154819D02*
X71916666Y-88154819D01*
X71916666Y-88154819D02*
X71583333Y-88535771D01*
X71583333Y-88535771D02*
X71726190Y-88535771D01*
X71726190Y-88535771D02*
X71821428Y-88583390D01*
X71821428Y-88583390D02*
X71869047Y-88631009D01*
X71869047Y-88631009D02*
X71916666Y-88726247D01*
X71916666Y-88726247D02*
X71916666Y-88964342D01*
X71916666Y-88964342D02*
X71869047Y-89059580D01*
X71869047Y-89059580D02*
X71821428Y-89107200D01*
X71821428Y-89107200D02*
X71726190Y-89154819D01*
X71726190Y-89154819D02*
X71440476Y-89154819D01*
X71440476Y-89154819D02*
X71345238Y-89107200D01*
X71345238Y-89107200D02*
X71297619Y-89059580D01*
D10*
X84827149Y-65083333D02*
X84589054Y-65249999D01*
X84827149Y-65369047D02*
X84327149Y-65369047D01*
X84327149Y-65369047D02*
X84327149Y-65178571D01*
X84327149Y-65178571D02*
X84350959Y-65130952D01*
X84350959Y-65130952D02*
X84374768Y-65107142D01*
X84374768Y-65107142D02*
X84422387Y-65083333D01*
X84422387Y-65083333D02*
X84493816Y-65083333D01*
X84493816Y-65083333D02*
X84541435Y-65107142D01*
X84541435Y-65107142D02*
X84565244Y-65130952D01*
X84565244Y-65130952D02*
X84589054Y-65178571D01*
X84589054Y-65178571D02*
X84589054Y-65369047D01*
X84541435Y-64797618D02*
X84517625Y-64845237D01*
X84517625Y-64845237D02*
X84493816Y-64869047D01*
X84493816Y-64869047D02*
X84446197Y-64892856D01*
X84446197Y-64892856D02*
X84422387Y-64892856D01*
X84422387Y-64892856D02*
X84374768Y-64869047D01*
X84374768Y-64869047D02*
X84350959Y-64845237D01*
X84350959Y-64845237D02*
X84327149Y-64797618D01*
X84327149Y-64797618D02*
X84327149Y-64702380D01*
X84327149Y-64702380D02*
X84350959Y-64654761D01*
X84350959Y-64654761D02*
X84374768Y-64630952D01*
X84374768Y-64630952D02*
X84422387Y-64607142D01*
X84422387Y-64607142D02*
X84446197Y-64607142D01*
X84446197Y-64607142D02*
X84493816Y-64630952D01*
X84493816Y-64630952D02*
X84517625Y-64654761D01*
X84517625Y-64654761D02*
X84541435Y-64702380D01*
X84541435Y-64702380D02*
X84541435Y-64797618D01*
X84541435Y-64797618D02*
X84565244Y-64845237D01*
X84565244Y-64845237D02*
X84589054Y-64869047D01*
X84589054Y-64869047D02*
X84636673Y-64892856D01*
X84636673Y-64892856D02*
X84731911Y-64892856D01*
X84731911Y-64892856D02*
X84779530Y-64869047D01*
X84779530Y-64869047D02*
X84803340Y-64845237D01*
X84803340Y-64845237D02*
X84827149Y-64797618D01*
X84827149Y-64797618D02*
X84827149Y-64702380D01*
X84827149Y-64702380D02*
X84803340Y-64654761D01*
X84803340Y-64654761D02*
X84779530Y-64630952D01*
X84779530Y-64630952D02*
X84731911Y-64607142D01*
X84731911Y-64607142D02*
X84636673Y-64607142D01*
X84636673Y-64607142D02*
X84589054Y-64630952D01*
X84589054Y-64630952D02*
X84565244Y-64654761D01*
X84565244Y-64654761D02*
X84541435Y-64702380D01*
X82287149Y-65083333D02*
X82049054Y-65249999D01*
X82287149Y-65369047D02*
X81787149Y-65369047D01*
X81787149Y-65369047D02*
X81787149Y-65178571D01*
X81787149Y-65178571D02*
X81810959Y-65130952D01*
X81810959Y-65130952D02*
X81834768Y-65107142D01*
X81834768Y-65107142D02*
X81882387Y-65083333D01*
X81882387Y-65083333D02*
X81953816Y-65083333D01*
X81953816Y-65083333D02*
X82001435Y-65107142D01*
X82001435Y-65107142D02*
X82025244Y-65130952D01*
X82025244Y-65130952D02*
X82049054Y-65178571D01*
X82049054Y-65178571D02*
X82049054Y-65369047D01*
X81787149Y-64916666D02*
X81787149Y-64583333D01*
X81787149Y-64583333D02*
X82287149Y-64797618D01*
X64289649Y-65133333D02*
X64051554Y-65299999D01*
X64289649Y-65419047D02*
X63789649Y-65419047D01*
X63789649Y-65419047D02*
X63789649Y-65228571D01*
X63789649Y-65228571D02*
X63813459Y-65180952D01*
X63813459Y-65180952D02*
X63837268Y-65157142D01*
X63837268Y-65157142D02*
X63884887Y-65133333D01*
X63884887Y-65133333D02*
X63956316Y-65133333D01*
X63956316Y-65133333D02*
X64003935Y-65157142D01*
X64003935Y-65157142D02*
X64027744Y-65180952D01*
X64027744Y-65180952D02*
X64051554Y-65228571D01*
X64051554Y-65228571D02*
X64051554Y-65419047D01*
X63956316Y-64704761D02*
X64289649Y-64704761D01*
X63765840Y-64823809D02*
X64122982Y-64942856D01*
X64122982Y-64942856D02*
X64122982Y-64633333D01*
D12*
X74273809Y-82531009D02*
X74416666Y-82578628D01*
X74416666Y-82578628D02*
X74464285Y-82626247D01*
X74464285Y-82626247D02*
X74511904Y-82721485D01*
X74511904Y-82721485D02*
X74511904Y-82864342D01*
X74511904Y-82864342D02*
X74464285Y-82959580D01*
X74464285Y-82959580D02*
X74416666Y-83007200D01*
X74416666Y-83007200D02*
X74321428Y-83054819D01*
X74321428Y-83054819D02*
X73940476Y-83054819D01*
X73940476Y-83054819D02*
X73940476Y-82054819D01*
X73940476Y-82054819D02*
X74273809Y-82054819D01*
X74273809Y-82054819D02*
X74369047Y-82102438D01*
X74369047Y-82102438D02*
X74416666Y-82150057D01*
X74416666Y-82150057D02*
X74464285Y-82245295D01*
X74464285Y-82245295D02*
X74464285Y-82340533D01*
X74464285Y-82340533D02*
X74416666Y-82435771D01*
X74416666Y-82435771D02*
X74369047Y-82483390D01*
X74369047Y-82483390D02*
X74273809Y-82531009D01*
X74273809Y-82531009D02*
X73940476Y-82531009D01*
X74892857Y-82150057D02*
X74940476Y-82102438D01*
X74940476Y-82102438D02*
X75035714Y-82054819D01*
X75035714Y-82054819D02*
X75273809Y-82054819D01*
X75273809Y-82054819D02*
X75369047Y-82102438D01*
X75369047Y-82102438D02*
X75416666Y-82150057D01*
X75416666Y-82150057D02*
X75464285Y-82245295D01*
X75464285Y-82245295D02*
X75464285Y-82340533D01*
X75464285Y-82340533D02*
X75416666Y-82483390D01*
X75416666Y-82483390D02*
X74845238Y-83054819D01*
X74845238Y-83054819D02*
X75464285Y-83054819D01*
X76226190Y-82531009D02*
X76369047Y-82578628D01*
X76369047Y-82578628D02*
X76416666Y-82626247D01*
X76416666Y-82626247D02*
X76464285Y-82721485D01*
X76464285Y-82721485D02*
X76464285Y-82864342D01*
X76464285Y-82864342D02*
X76416666Y-82959580D01*
X76416666Y-82959580D02*
X76369047Y-83007200D01*
X76369047Y-83007200D02*
X76273809Y-83054819D01*
X76273809Y-83054819D02*
X75892857Y-83054819D01*
X75892857Y-83054819D02*
X75892857Y-82054819D01*
X75892857Y-82054819D02*
X76226190Y-82054819D01*
X76226190Y-82054819D02*
X76321428Y-82102438D01*
X76321428Y-82102438D02*
X76369047Y-82150057D01*
X76369047Y-82150057D02*
X76416666Y-82245295D01*
X76416666Y-82245295D02*
X76416666Y-82340533D01*
X76416666Y-82340533D02*
X76369047Y-82435771D01*
X76369047Y-82435771D02*
X76321428Y-82483390D01*
X76321428Y-82483390D02*
X76226190Y-82531009D01*
X76226190Y-82531009D02*
X75892857Y-82531009D01*
X76892857Y-82673866D02*
X77654762Y-82673866D01*
X78035714Y-82054819D02*
X78702380Y-83054819D01*
X78702380Y-82054819D02*
X78035714Y-83054819D01*
X79083333Y-83054819D02*
X79083333Y-82054819D01*
X79083333Y-82531009D02*
X79654761Y-82531009D01*
X79654761Y-83054819D02*
X79654761Y-82054819D01*
X80130952Y-82673866D02*
X80892857Y-82673866D01*
X81321428Y-82769104D02*
X81797618Y-82769104D01*
X81226190Y-83054819D02*
X81559523Y-82054819D01*
X81559523Y-82054819D02*
X81892856Y-83054819D01*
X82226190Y-83054819D02*
X82226190Y-82054819D01*
X82226190Y-82054819D02*
X82559523Y-82769104D01*
X82559523Y-82769104D02*
X82892856Y-82054819D01*
X82892856Y-82054819D02*
X82892856Y-83054819D01*
X83845237Y-83054819D02*
X83369047Y-83054819D01*
X83369047Y-83054819D02*
X83369047Y-82054819D01*
X84511904Y-82531009D02*
X84178571Y-82531009D01*
X84178571Y-83054819D02*
X84178571Y-82054819D01*
X84178571Y-82054819D02*
X84654761Y-82054819D01*
X84988095Y-83007200D02*
X85130952Y-83054819D01*
X85130952Y-83054819D02*
X85369047Y-83054819D01*
X85369047Y-83054819D02*
X85464285Y-83007200D01*
X85464285Y-83007200D02*
X85511904Y-82959580D01*
X85511904Y-82959580D02*
X85559523Y-82864342D01*
X85559523Y-82864342D02*
X85559523Y-82769104D01*
X85559523Y-82769104D02*
X85511904Y-82673866D01*
X85511904Y-82673866D02*
X85464285Y-82626247D01*
X85464285Y-82626247D02*
X85369047Y-82578628D01*
X85369047Y-82578628D02*
X85178571Y-82531009D01*
X85178571Y-82531009D02*
X85083333Y-82483390D01*
X85083333Y-82483390D02*
X85035714Y-82435771D01*
X85035714Y-82435771D02*
X84988095Y-82340533D01*
X84988095Y-82340533D02*
X84988095Y-82245295D01*
X84988095Y-82245295D02*
X85035714Y-82150057D01*
X85035714Y-82150057D02*
X85083333Y-82102438D01*
X85083333Y-82102438D02*
X85178571Y-82054819D01*
X85178571Y-82054819D02*
X85416666Y-82054819D01*
X85416666Y-82054819D02*
X85559523Y-82102438D01*
X85988095Y-83054819D02*
X85988095Y-82054819D01*
X85988095Y-82054819D02*
X86559523Y-83054819D01*
X86559523Y-83054819D02*
X86559523Y-82054819D01*
X87035714Y-83054819D02*
X87035714Y-82054819D01*
X87035714Y-82054819D02*
X87416666Y-82054819D01*
X87416666Y-82054819D02*
X87511904Y-82102438D01*
X87511904Y-82102438D02*
X87559523Y-82150057D01*
X87559523Y-82150057D02*
X87607142Y-82245295D01*
X87607142Y-82245295D02*
X87607142Y-82388152D01*
X87607142Y-82388152D02*
X87559523Y-82483390D01*
X87559523Y-82483390D02*
X87511904Y-82531009D01*
X87511904Y-82531009D02*
X87416666Y-82578628D01*
X87416666Y-82578628D02*
X87035714Y-82578628D01*
X80416666Y-80154819D02*
X80416666Y-80869104D01*
X80416666Y-80869104D02*
X80369047Y-81011961D01*
X80369047Y-81011961D02*
X80273809Y-81107200D01*
X80273809Y-81107200D02*
X80130952Y-81154819D01*
X80130952Y-81154819D02*
X80035714Y-81154819D01*
X81035714Y-80583390D02*
X80940476Y-80535771D01*
X80940476Y-80535771D02*
X80892857Y-80488152D01*
X80892857Y-80488152D02*
X80845238Y-80392914D01*
X80845238Y-80392914D02*
X80845238Y-80345295D01*
X80845238Y-80345295D02*
X80892857Y-80250057D01*
X80892857Y-80250057D02*
X80940476Y-80202438D01*
X80940476Y-80202438D02*
X81035714Y-80154819D01*
X81035714Y-80154819D02*
X81226190Y-80154819D01*
X81226190Y-80154819D02*
X81321428Y-80202438D01*
X81321428Y-80202438D02*
X81369047Y-80250057D01*
X81369047Y-80250057D02*
X81416666Y-80345295D01*
X81416666Y-80345295D02*
X81416666Y-80392914D01*
X81416666Y-80392914D02*
X81369047Y-80488152D01*
X81369047Y-80488152D02*
X81321428Y-80535771D01*
X81321428Y-80535771D02*
X81226190Y-80583390D01*
X81226190Y-80583390D02*
X81035714Y-80583390D01*
X81035714Y-80583390D02*
X80940476Y-80631009D01*
X80940476Y-80631009D02*
X80892857Y-80678628D01*
X80892857Y-80678628D02*
X80845238Y-80773866D01*
X80845238Y-80773866D02*
X80845238Y-80964342D01*
X80845238Y-80964342D02*
X80892857Y-81059580D01*
X80892857Y-81059580D02*
X80940476Y-81107200D01*
X80940476Y-81107200D02*
X81035714Y-81154819D01*
X81035714Y-81154819D02*
X81226190Y-81154819D01*
X81226190Y-81154819D02*
X81321428Y-81107200D01*
X81321428Y-81107200D02*
X81369047Y-81059580D01*
X81369047Y-81059580D02*
X81416666Y-80964342D01*
X81416666Y-80964342D02*
X81416666Y-80773866D01*
X81416666Y-80773866D02*
X81369047Y-80678628D01*
X81369047Y-80678628D02*
X81321428Y-80631009D01*
X81321428Y-80631009D02*
X81226190Y-80583390D01*
X98977200Y-63580475D02*
X99024819Y-63437618D01*
X99024819Y-63437618D02*
X99024819Y-63199523D01*
X99024819Y-63199523D02*
X98977200Y-63104285D01*
X98977200Y-63104285D02*
X98929580Y-63056666D01*
X98929580Y-63056666D02*
X98834342Y-63009047D01*
X98834342Y-63009047D02*
X98739104Y-63009047D01*
X98739104Y-63009047D02*
X98643866Y-63056666D01*
X98643866Y-63056666D02*
X98596247Y-63104285D01*
X98596247Y-63104285D02*
X98548628Y-63199523D01*
X98548628Y-63199523D02*
X98501009Y-63389999D01*
X98501009Y-63389999D02*
X98453390Y-63485237D01*
X98453390Y-63485237D02*
X98405771Y-63532856D01*
X98405771Y-63532856D02*
X98310533Y-63580475D01*
X98310533Y-63580475D02*
X98215295Y-63580475D01*
X98215295Y-63580475D02*
X98120057Y-63532856D01*
X98120057Y-63532856D02*
X98072438Y-63485237D01*
X98072438Y-63485237D02*
X98024819Y-63389999D01*
X98024819Y-63389999D02*
X98024819Y-63151904D01*
X98024819Y-63151904D02*
X98072438Y-63009047D01*
X98929580Y-62009047D02*
X98977200Y-62056666D01*
X98977200Y-62056666D02*
X99024819Y-62199523D01*
X99024819Y-62199523D02*
X99024819Y-62294761D01*
X99024819Y-62294761D02*
X98977200Y-62437618D01*
X98977200Y-62437618D02*
X98881961Y-62532856D01*
X98881961Y-62532856D02*
X98786723Y-62580475D01*
X98786723Y-62580475D02*
X98596247Y-62628094D01*
X98596247Y-62628094D02*
X98453390Y-62628094D01*
X98453390Y-62628094D02*
X98262914Y-62580475D01*
X98262914Y-62580475D02*
X98167676Y-62532856D01*
X98167676Y-62532856D02*
X98072438Y-62437618D01*
X98072438Y-62437618D02*
X98024819Y-62294761D01*
X98024819Y-62294761D02*
X98024819Y-62199523D01*
X98024819Y-62199523D02*
X98072438Y-62056666D01*
X98072438Y-62056666D02*
X98120057Y-62009047D01*
X98024819Y-61389999D02*
X98024819Y-61294761D01*
X98024819Y-61294761D02*
X98072438Y-61199523D01*
X98072438Y-61199523D02*
X98120057Y-61151904D01*
X98120057Y-61151904D02*
X98215295Y-61104285D01*
X98215295Y-61104285D02*
X98405771Y-61056666D01*
X98405771Y-61056666D02*
X98643866Y-61056666D01*
X98643866Y-61056666D02*
X98834342Y-61104285D01*
X98834342Y-61104285D02*
X98929580Y-61151904D01*
X98929580Y-61151904D02*
X98977200Y-61199523D01*
X98977200Y-61199523D02*
X99024819Y-61294761D01*
X99024819Y-61294761D02*
X99024819Y-61389999D01*
X99024819Y-61389999D02*
X98977200Y-61485237D01*
X98977200Y-61485237D02*
X98929580Y-61532856D01*
X98929580Y-61532856D02*
X98834342Y-61580475D01*
X98834342Y-61580475D02*
X98643866Y-61628094D01*
X98643866Y-61628094D02*
X98405771Y-61628094D01*
X98405771Y-61628094D02*
X98215295Y-61580475D01*
X98215295Y-61580475D02*
X98120057Y-61532856D01*
X98120057Y-61532856D02*
X98072438Y-61485237D01*
X98072438Y-61485237D02*
X98024819Y-61389999D01*
X99024819Y-60580475D02*
X99024819Y-60389999D01*
X99024819Y-60389999D02*
X98977200Y-60294761D01*
X98977200Y-60294761D02*
X98929580Y-60247142D01*
X98929580Y-60247142D02*
X98786723Y-60151904D01*
X98786723Y-60151904D02*
X98596247Y-60104285D01*
X98596247Y-60104285D02*
X98215295Y-60104285D01*
X98215295Y-60104285D02*
X98120057Y-60151904D01*
X98120057Y-60151904D02*
X98072438Y-60199523D01*
X98072438Y-60199523D02*
X98024819Y-60294761D01*
X98024819Y-60294761D02*
X98024819Y-60485237D01*
X98024819Y-60485237D02*
X98072438Y-60580475D01*
X98072438Y-60580475D02*
X98120057Y-60628094D01*
X98120057Y-60628094D02*
X98215295Y-60675713D01*
X98215295Y-60675713D02*
X98453390Y-60675713D01*
X98453390Y-60675713D02*
X98548628Y-60628094D01*
X98548628Y-60628094D02*
X98596247Y-60580475D01*
X98596247Y-60580475D02*
X98643866Y-60485237D01*
X98643866Y-60485237D02*
X98643866Y-60294761D01*
X98643866Y-60294761D02*
X98596247Y-60199523D01*
X98596247Y-60199523D02*
X98548628Y-60151904D01*
X98548628Y-60151904D02*
X98453390Y-60104285D01*
X99024819Y-59151904D02*
X99024819Y-59723332D01*
X99024819Y-59437618D02*
X98024819Y-59437618D01*
X98024819Y-59437618D02*
X98167676Y-59532856D01*
X98167676Y-59532856D02*
X98262914Y-59628094D01*
X98262914Y-59628094D02*
X98310533Y-59723332D01*
X98453390Y-58580475D02*
X98405771Y-58675713D01*
X98405771Y-58675713D02*
X98358152Y-58723332D01*
X98358152Y-58723332D02*
X98262914Y-58770951D01*
X98262914Y-58770951D02*
X98215295Y-58770951D01*
X98215295Y-58770951D02*
X98120057Y-58723332D01*
X98120057Y-58723332D02*
X98072438Y-58675713D01*
X98072438Y-58675713D02*
X98024819Y-58580475D01*
X98024819Y-58580475D02*
X98024819Y-58389999D01*
X98024819Y-58389999D02*
X98072438Y-58294761D01*
X98072438Y-58294761D02*
X98120057Y-58247142D01*
X98120057Y-58247142D02*
X98215295Y-58199523D01*
X98215295Y-58199523D02*
X98262914Y-58199523D01*
X98262914Y-58199523D02*
X98358152Y-58247142D01*
X98358152Y-58247142D02*
X98405771Y-58294761D01*
X98405771Y-58294761D02*
X98453390Y-58389999D01*
X98453390Y-58389999D02*
X98453390Y-58580475D01*
X98453390Y-58580475D02*
X98501009Y-58675713D01*
X98501009Y-58675713D02*
X98548628Y-58723332D01*
X98548628Y-58723332D02*
X98643866Y-58770951D01*
X98643866Y-58770951D02*
X98834342Y-58770951D01*
X98834342Y-58770951D02*
X98929580Y-58723332D01*
X98929580Y-58723332D02*
X98977200Y-58675713D01*
X98977200Y-58675713D02*
X99024819Y-58580475D01*
X99024819Y-58580475D02*
X99024819Y-58389999D01*
X99024819Y-58389999D02*
X98977200Y-58294761D01*
X98977200Y-58294761D02*
X98929580Y-58247142D01*
X98929580Y-58247142D02*
X98834342Y-58199523D01*
X98834342Y-58199523D02*
X98643866Y-58199523D01*
X98643866Y-58199523D02*
X98548628Y-58247142D01*
X98548628Y-58247142D02*
X98501009Y-58294761D01*
X98501009Y-58294761D02*
X98453390Y-58389999D01*
X69915714Y-61059104D02*
X70391904Y-61059104D01*
X69820476Y-61344819D02*
X70153809Y-60344819D01*
X70153809Y-60344819D02*
X70487142Y-61344819D01*
X71344285Y-61344819D02*
X70772857Y-61344819D01*
X71058571Y-61344819D02*
X71058571Y-60344819D01*
X71058571Y-60344819D02*
X70963333Y-60487676D01*
X70963333Y-60487676D02*
X70868095Y-60582914D01*
X70868095Y-60582914D02*
X70772857Y-60630533D01*
D10*
X75356666Y-66227149D02*
X75190000Y-65989054D01*
X75070952Y-66227149D02*
X75070952Y-65727149D01*
X75070952Y-65727149D02*
X75261428Y-65727149D01*
X75261428Y-65727149D02*
X75309047Y-65750959D01*
X75309047Y-65750959D02*
X75332857Y-65774768D01*
X75332857Y-65774768D02*
X75356666Y-65822387D01*
X75356666Y-65822387D02*
X75356666Y-65893816D01*
X75356666Y-65893816D02*
X75332857Y-65941435D01*
X75332857Y-65941435D02*
X75309047Y-65965244D01*
X75309047Y-65965244D02*
X75261428Y-65989054D01*
X75261428Y-65989054D02*
X75070952Y-65989054D01*
X75809047Y-65727149D02*
X75570952Y-65727149D01*
X75570952Y-65727149D02*
X75547143Y-65965244D01*
X75547143Y-65965244D02*
X75570952Y-65941435D01*
X75570952Y-65941435D02*
X75618571Y-65917625D01*
X75618571Y-65917625D02*
X75737619Y-65917625D01*
X75737619Y-65917625D02*
X75785238Y-65941435D01*
X75785238Y-65941435D02*
X75809047Y-65965244D01*
X75809047Y-65965244D02*
X75832857Y-66012863D01*
X75832857Y-66012863D02*
X75832857Y-66131911D01*
X75832857Y-66131911D02*
X75809047Y-66179530D01*
X75809047Y-66179530D02*
X75785238Y-66203340D01*
X75785238Y-66203340D02*
X75737619Y-66227149D01*
X75737619Y-66227149D02*
X75618571Y-66227149D01*
X75618571Y-66227149D02*
X75570952Y-66203340D01*
X75570952Y-66203340D02*
X75547143Y-66179530D01*
X79416666Y-61179530D02*
X79392857Y-61203340D01*
X79392857Y-61203340D02*
X79321428Y-61227149D01*
X79321428Y-61227149D02*
X79273809Y-61227149D01*
X79273809Y-61227149D02*
X79202381Y-61203340D01*
X79202381Y-61203340D02*
X79154762Y-61155720D01*
X79154762Y-61155720D02*
X79130952Y-61108101D01*
X79130952Y-61108101D02*
X79107143Y-61012863D01*
X79107143Y-61012863D02*
X79107143Y-60941435D01*
X79107143Y-60941435D02*
X79130952Y-60846197D01*
X79130952Y-60846197D02*
X79154762Y-60798578D01*
X79154762Y-60798578D02*
X79202381Y-60750959D01*
X79202381Y-60750959D02*
X79273809Y-60727149D01*
X79273809Y-60727149D02*
X79321428Y-60727149D01*
X79321428Y-60727149D02*
X79392857Y-60750959D01*
X79392857Y-60750959D02*
X79416666Y-60774768D01*
X79892857Y-61227149D02*
X79607143Y-61227149D01*
X79750000Y-61227149D02*
X79750000Y-60727149D01*
X79750000Y-60727149D02*
X79702381Y-60798578D01*
X79702381Y-60798578D02*
X79654762Y-60846197D01*
X79654762Y-60846197D02*
X79607143Y-60870006D01*
X68416666Y-62727149D02*
X68250000Y-62489054D01*
X68130952Y-62727149D02*
X68130952Y-62227149D01*
X68130952Y-62227149D02*
X68321428Y-62227149D01*
X68321428Y-62227149D02*
X68369047Y-62250959D01*
X68369047Y-62250959D02*
X68392857Y-62274768D01*
X68392857Y-62274768D02*
X68416666Y-62322387D01*
X68416666Y-62322387D02*
X68416666Y-62393816D01*
X68416666Y-62393816D02*
X68392857Y-62441435D01*
X68392857Y-62441435D02*
X68369047Y-62465244D01*
X68369047Y-62465244D02*
X68321428Y-62489054D01*
X68321428Y-62489054D02*
X68130952Y-62489054D01*
X68654762Y-62727149D02*
X68750000Y-62727149D01*
X68750000Y-62727149D02*
X68797619Y-62703340D01*
X68797619Y-62703340D02*
X68821428Y-62679530D01*
X68821428Y-62679530D02*
X68869047Y-62608101D01*
X68869047Y-62608101D02*
X68892857Y-62512863D01*
X68892857Y-62512863D02*
X68892857Y-62322387D01*
X68892857Y-62322387D02*
X68869047Y-62274768D01*
X68869047Y-62274768D02*
X68845238Y-62250959D01*
X68845238Y-62250959D02*
X68797619Y-62227149D01*
X68797619Y-62227149D02*
X68702381Y-62227149D01*
X68702381Y-62227149D02*
X68654762Y-62250959D01*
X68654762Y-62250959D02*
X68630952Y-62274768D01*
X68630952Y-62274768D02*
X68607143Y-62322387D01*
X68607143Y-62322387D02*
X68607143Y-62441435D01*
X68607143Y-62441435D02*
X68630952Y-62489054D01*
X68630952Y-62489054D02*
X68654762Y-62512863D01*
X68654762Y-62512863D02*
X68702381Y-62536673D01*
X68702381Y-62536673D02*
X68797619Y-62536673D01*
X68797619Y-62536673D02*
X68845238Y-62512863D01*
X68845238Y-62512863D02*
X68869047Y-62489054D01*
X68869047Y-62489054D02*
X68892857Y-62441435D01*
X56289649Y-65133333D02*
X56051554Y-65299999D01*
X56289649Y-65419047D02*
X55789649Y-65419047D01*
X55789649Y-65419047D02*
X55789649Y-65228571D01*
X55789649Y-65228571D02*
X55813459Y-65180952D01*
X55813459Y-65180952D02*
X55837268Y-65157142D01*
X55837268Y-65157142D02*
X55884887Y-65133333D01*
X55884887Y-65133333D02*
X55956316Y-65133333D01*
X55956316Y-65133333D02*
X56003935Y-65157142D01*
X56003935Y-65157142D02*
X56027744Y-65180952D01*
X56027744Y-65180952D02*
X56051554Y-65228571D01*
X56051554Y-65228571D02*
X56051554Y-65419047D01*
X55837268Y-64942856D02*
X55813459Y-64919047D01*
X55813459Y-64919047D02*
X55789649Y-64871428D01*
X55789649Y-64871428D02*
X55789649Y-64752380D01*
X55789649Y-64752380D02*
X55813459Y-64704761D01*
X55813459Y-64704761D02*
X55837268Y-64680952D01*
X55837268Y-64680952D02*
X55884887Y-64657142D01*
X55884887Y-64657142D02*
X55932506Y-64657142D01*
X55932506Y-64657142D02*
X56003935Y-64680952D01*
X56003935Y-64680952D02*
X56289649Y-64966666D01*
X56289649Y-64966666D02*
X56289649Y-64657142D01*
D12*
X64773809Y-82531009D02*
X64916666Y-82578628D01*
X64916666Y-82578628D02*
X64964285Y-82626247D01*
X64964285Y-82626247D02*
X65011904Y-82721485D01*
X65011904Y-82721485D02*
X65011904Y-82864342D01*
X65011904Y-82864342D02*
X64964285Y-82959580D01*
X64964285Y-82959580D02*
X64916666Y-83007200D01*
X64916666Y-83007200D02*
X64821428Y-83054819D01*
X64821428Y-83054819D02*
X64440476Y-83054819D01*
X64440476Y-83054819D02*
X64440476Y-82054819D01*
X64440476Y-82054819D02*
X64773809Y-82054819D01*
X64773809Y-82054819D02*
X64869047Y-82102438D01*
X64869047Y-82102438D02*
X64916666Y-82150057D01*
X64916666Y-82150057D02*
X64964285Y-82245295D01*
X64964285Y-82245295D02*
X64964285Y-82340533D01*
X64964285Y-82340533D02*
X64916666Y-82435771D01*
X64916666Y-82435771D02*
X64869047Y-82483390D01*
X64869047Y-82483390D02*
X64773809Y-82531009D01*
X64773809Y-82531009D02*
X64440476Y-82531009D01*
X65392857Y-82150057D02*
X65440476Y-82102438D01*
X65440476Y-82102438D02*
X65535714Y-82054819D01*
X65535714Y-82054819D02*
X65773809Y-82054819D01*
X65773809Y-82054819D02*
X65869047Y-82102438D01*
X65869047Y-82102438D02*
X65916666Y-82150057D01*
X65916666Y-82150057D02*
X65964285Y-82245295D01*
X65964285Y-82245295D02*
X65964285Y-82340533D01*
X65964285Y-82340533D02*
X65916666Y-82483390D01*
X65916666Y-82483390D02*
X65345238Y-83054819D01*
X65345238Y-83054819D02*
X65964285Y-83054819D01*
X66726190Y-82531009D02*
X66869047Y-82578628D01*
X66869047Y-82578628D02*
X66916666Y-82626247D01*
X66916666Y-82626247D02*
X66964285Y-82721485D01*
X66964285Y-82721485D02*
X66964285Y-82864342D01*
X66964285Y-82864342D02*
X66916666Y-82959580D01*
X66916666Y-82959580D02*
X66869047Y-83007200D01*
X66869047Y-83007200D02*
X66773809Y-83054819D01*
X66773809Y-83054819D02*
X66392857Y-83054819D01*
X66392857Y-83054819D02*
X66392857Y-82054819D01*
X66392857Y-82054819D02*
X66726190Y-82054819D01*
X66726190Y-82054819D02*
X66821428Y-82102438D01*
X66821428Y-82102438D02*
X66869047Y-82150057D01*
X66869047Y-82150057D02*
X66916666Y-82245295D01*
X66916666Y-82245295D02*
X66916666Y-82340533D01*
X66916666Y-82340533D02*
X66869047Y-82435771D01*
X66869047Y-82435771D02*
X66821428Y-82483390D01*
X66821428Y-82483390D02*
X66726190Y-82531009D01*
X66726190Y-82531009D02*
X66392857Y-82531009D01*
X67392857Y-82673866D02*
X68154762Y-82673866D01*
X68535714Y-82054819D02*
X69202380Y-83054819D01*
X69202380Y-82054819D02*
X68535714Y-83054819D01*
X69583333Y-83054819D02*
X69583333Y-82054819D01*
X69583333Y-82531009D02*
X70154761Y-82531009D01*
X70154761Y-83054819D02*
X70154761Y-82054819D01*
X70630952Y-82673866D02*
X71392857Y-82673866D01*
X71821428Y-82769104D02*
X72297618Y-82769104D01*
X71726190Y-83054819D02*
X72059523Y-82054819D01*
X72059523Y-82054819D02*
X72392856Y-83054819D01*
X72726190Y-83054819D02*
X72726190Y-82054819D01*
X72726190Y-82054819D02*
X73059523Y-82769104D01*
X73059523Y-82769104D02*
X73392856Y-82054819D01*
X73392856Y-82054819D02*
X73392856Y-83054819D01*
X74345237Y-83054819D02*
X73869047Y-83054819D01*
X73869047Y-83054819D02*
X73869047Y-82054819D01*
X75011904Y-82531009D02*
X74678571Y-82531009D01*
X74678571Y-83054819D02*
X74678571Y-82054819D01*
X74678571Y-82054819D02*
X75154761Y-82054819D01*
X75488095Y-83007200D02*
X75630952Y-83054819D01*
X75630952Y-83054819D02*
X75869047Y-83054819D01*
X75869047Y-83054819D02*
X75964285Y-83007200D01*
X75964285Y-83007200D02*
X76011904Y-82959580D01*
X76011904Y-82959580D02*
X76059523Y-82864342D01*
X76059523Y-82864342D02*
X76059523Y-82769104D01*
X76059523Y-82769104D02*
X76011904Y-82673866D01*
X76011904Y-82673866D02*
X75964285Y-82626247D01*
X75964285Y-82626247D02*
X75869047Y-82578628D01*
X75869047Y-82578628D02*
X75678571Y-82531009D01*
X75678571Y-82531009D02*
X75583333Y-82483390D01*
X75583333Y-82483390D02*
X75535714Y-82435771D01*
X75535714Y-82435771D02*
X75488095Y-82340533D01*
X75488095Y-82340533D02*
X75488095Y-82245295D01*
X75488095Y-82245295D02*
X75535714Y-82150057D01*
X75535714Y-82150057D02*
X75583333Y-82102438D01*
X75583333Y-82102438D02*
X75678571Y-82054819D01*
X75678571Y-82054819D02*
X75916666Y-82054819D01*
X75916666Y-82054819D02*
X76059523Y-82102438D01*
X76488095Y-83054819D02*
X76488095Y-82054819D01*
X76488095Y-82054819D02*
X77059523Y-83054819D01*
X77059523Y-83054819D02*
X77059523Y-82054819D01*
X77535714Y-83054819D02*
X77535714Y-82054819D01*
X77535714Y-82054819D02*
X77916666Y-82054819D01*
X77916666Y-82054819D02*
X78011904Y-82102438D01*
X78011904Y-82102438D02*
X78059523Y-82150057D01*
X78059523Y-82150057D02*
X78107142Y-82245295D01*
X78107142Y-82245295D02*
X78107142Y-82388152D01*
X78107142Y-82388152D02*
X78059523Y-82483390D01*
X78059523Y-82483390D02*
X78011904Y-82531009D01*
X78011904Y-82531009D02*
X77916666Y-82578628D01*
X77916666Y-82578628D02*
X77535714Y-82578628D01*
X70916666Y-80154819D02*
X70916666Y-80869104D01*
X70916666Y-80869104D02*
X70869047Y-81011961D01*
X70869047Y-81011961D02*
X70773809Y-81107200D01*
X70773809Y-81107200D02*
X70630952Y-81154819D01*
X70630952Y-81154819D02*
X70535714Y-81154819D01*
X71297619Y-80154819D02*
X71964285Y-80154819D01*
X71964285Y-80154819D02*
X71535714Y-81154819D01*
D14*
X74227409Y-60880952D02*
X74632171Y-60880952D01*
X74632171Y-60880952D02*
X74679790Y-60857142D01*
X74679790Y-60857142D02*
X74703600Y-60833333D01*
X74703600Y-60833333D02*
X74727409Y-60785714D01*
X74727409Y-60785714D02*
X74727409Y-60690476D01*
X74727409Y-60690476D02*
X74703600Y-60642857D01*
X74703600Y-60642857D02*
X74679790Y-60619047D01*
X74679790Y-60619047D02*
X74632171Y-60595238D01*
X74632171Y-60595238D02*
X74227409Y-60595238D01*
X74727409Y-60095237D02*
X74727409Y-60380951D01*
X74727409Y-60238094D02*
X74227409Y-60238094D01*
X74227409Y-60238094D02*
X74298838Y-60285713D01*
X74298838Y-60285713D02*
X74346457Y-60333332D01*
X74346457Y-60333332D02*
X74370266Y-60380951D01*
D11*
X63094523Y-60725914D02*
X63064047Y-60710676D01*
X63064047Y-60710676D02*
X63033571Y-60680200D01*
X63033571Y-60680200D02*
X62987857Y-60634485D01*
X62987857Y-60634485D02*
X62957380Y-60619247D01*
X62957380Y-60619247D02*
X62926904Y-60619247D01*
X62942142Y-60695438D02*
X62911666Y-60680200D01*
X62911666Y-60680200D02*
X62881190Y-60649723D01*
X62881190Y-60649723D02*
X62865952Y-60588771D01*
X62865952Y-60588771D02*
X62865952Y-60482104D01*
X62865952Y-60482104D02*
X62881190Y-60421152D01*
X62881190Y-60421152D02*
X62911666Y-60390676D01*
X62911666Y-60390676D02*
X62942142Y-60375438D01*
X62942142Y-60375438D02*
X63003095Y-60375438D01*
X63003095Y-60375438D02*
X63033571Y-60390676D01*
X63033571Y-60390676D02*
X63064047Y-60421152D01*
X63064047Y-60421152D02*
X63079285Y-60482104D01*
X63079285Y-60482104D02*
X63079285Y-60588771D01*
X63079285Y-60588771D02*
X63064047Y-60649723D01*
X63064047Y-60649723D02*
X63033571Y-60680200D01*
X63033571Y-60680200D02*
X63003095Y-60695438D01*
X63003095Y-60695438D02*
X62942142Y-60695438D01*
X63353571Y-60482104D02*
X63353571Y-60695438D01*
X63277380Y-60360200D02*
X63201190Y-60588771D01*
X63201190Y-60588771D02*
X63399285Y-60588771D01*
D13*
X96329523Y-87400345D02*
X96329523Y-86520345D01*
X96329523Y-86939393D02*
X96832380Y-86939393D01*
X96832380Y-87400345D02*
X96832380Y-86520345D01*
X97209524Y-86604155D02*
X97251428Y-86562250D01*
X97251428Y-86562250D02*
X97335238Y-86520345D01*
X97335238Y-86520345D02*
X97544762Y-86520345D01*
X97544762Y-86520345D02*
X97628571Y-86562250D01*
X97628571Y-86562250D02*
X97670476Y-86604155D01*
X97670476Y-86604155D02*
X97712381Y-86687964D01*
X97712381Y-86687964D02*
X97712381Y-86771774D01*
X97712381Y-86771774D02*
X97670476Y-86897488D01*
X97670476Y-86897488D02*
X97167619Y-87400345D01*
X97167619Y-87400345D02*
X97712381Y-87400345D01*
D12*
X55273809Y-90531009D02*
X55416666Y-90578628D01*
X55416666Y-90578628D02*
X55464285Y-90626247D01*
X55464285Y-90626247D02*
X55511904Y-90721485D01*
X55511904Y-90721485D02*
X55511904Y-90864342D01*
X55511904Y-90864342D02*
X55464285Y-90959580D01*
X55464285Y-90959580D02*
X55416666Y-91007200D01*
X55416666Y-91007200D02*
X55321428Y-91054819D01*
X55321428Y-91054819D02*
X54940476Y-91054819D01*
X54940476Y-91054819D02*
X54940476Y-90054819D01*
X54940476Y-90054819D02*
X55273809Y-90054819D01*
X55273809Y-90054819D02*
X55369047Y-90102438D01*
X55369047Y-90102438D02*
X55416666Y-90150057D01*
X55416666Y-90150057D02*
X55464285Y-90245295D01*
X55464285Y-90245295D02*
X55464285Y-90340533D01*
X55464285Y-90340533D02*
X55416666Y-90435771D01*
X55416666Y-90435771D02*
X55369047Y-90483390D01*
X55369047Y-90483390D02*
X55273809Y-90531009D01*
X55273809Y-90531009D02*
X54940476Y-90531009D01*
X55892857Y-90150057D02*
X55940476Y-90102438D01*
X55940476Y-90102438D02*
X56035714Y-90054819D01*
X56035714Y-90054819D02*
X56273809Y-90054819D01*
X56273809Y-90054819D02*
X56369047Y-90102438D01*
X56369047Y-90102438D02*
X56416666Y-90150057D01*
X56416666Y-90150057D02*
X56464285Y-90245295D01*
X56464285Y-90245295D02*
X56464285Y-90340533D01*
X56464285Y-90340533D02*
X56416666Y-90483390D01*
X56416666Y-90483390D02*
X55845238Y-91054819D01*
X55845238Y-91054819D02*
X56464285Y-91054819D01*
X57226190Y-90531009D02*
X57369047Y-90578628D01*
X57369047Y-90578628D02*
X57416666Y-90626247D01*
X57416666Y-90626247D02*
X57464285Y-90721485D01*
X57464285Y-90721485D02*
X57464285Y-90864342D01*
X57464285Y-90864342D02*
X57416666Y-90959580D01*
X57416666Y-90959580D02*
X57369047Y-91007200D01*
X57369047Y-91007200D02*
X57273809Y-91054819D01*
X57273809Y-91054819D02*
X56892857Y-91054819D01*
X56892857Y-91054819D02*
X56892857Y-90054819D01*
X56892857Y-90054819D02*
X57226190Y-90054819D01*
X57226190Y-90054819D02*
X57321428Y-90102438D01*
X57321428Y-90102438D02*
X57369047Y-90150057D01*
X57369047Y-90150057D02*
X57416666Y-90245295D01*
X57416666Y-90245295D02*
X57416666Y-90340533D01*
X57416666Y-90340533D02*
X57369047Y-90435771D01*
X57369047Y-90435771D02*
X57321428Y-90483390D01*
X57321428Y-90483390D02*
X57226190Y-90531009D01*
X57226190Y-90531009D02*
X56892857Y-90531009D01*
X57892857Y-90673866D02*
X58654762Y-90673866D01*
X59035714Y-90054819D02*
X59702380Y-91054819D01*
X59702380Y-90054819D02*
X59035714Y-91054819D01*
X60083333Y-91054819D02*
X60083333Y-90054819D01*
X60083333Y-90531009D02*
X60654761Y-90531009D01*
X60654761Y-91054819D02*
X60654761Y-90054819D01*
X61130952Y-90673866D02*
X61892857Y-90673866D01*
X62321428Y-90769104D02*
X62797618Y-90769104D01*
X62226190Y-91054819D02*
X62559523Y-90054819D01*
X62559523Y-90054819D02*
X62892856Y-91054819D01*
X63226190Y-91054819D02*
X63226190Y-90054819D01*
X63226190Y-90054819D02*
X63559523Y-90769104D01*
X63559523Y-90769104D02*
X63892856Y-90054819D01*
X63892856Y-90054819D02*
X63892856Y-91054819D01*
X64845237Y-91054819D02*
X64369047Y-91054819D01*
X64369047Y-91054819D02*
X64369047Y-90054819D01*
X65511904Y-90531009D02*
X65178571Y-90531009D01*
X65178571Y-91054819D02*
X65178571Y-90054819D01*
X65178571Y-90054819D02*
X65654761Y-90054819D01*
X65988095Y-91007200D02*
X66130952Y-91054819D01*
X66130952Y-91054819D02*
X66369047Y-91054819D01*
X66369047Y-91054819D02*
X66464285Y-91007200D01*
X66464285Y-91007200D02*
X66511904Y-90959580D01*
X66511904Y-90959580D02*
X66559523Y-90864342D01*
X66559523Y-90864342D02*
X66559523Y-90769104D01*
X66559523Y-90769104D02*
X66511904Y-90673866D01*
X66511904Y-90673866D02*
X66464285Y-90626247D01*
X66464285Y-90626247D02*
X66369047Y-90578628D01*
X66369047Y-90578628D02*
X66178571Y-90531009D01*
X66178571Y-90531009D02*
X66083333Y-90483390D01*
X66083333Y-90483390D02*
X66035714Y-90435771D01*
X66035714Y-90435771D02*
X65988095Y-90340533D01*
X65988095Y-90340533D02*
X65988095Y-90245295D01*
X65988095Y-90245295D02*
X66035714Y-90150057D01*
X66035714Y-90150057D02*
X66083333Y-90102438D01*
X66083333Y-90102438D02*
X66178571Y-90054819D01*
X66178571Y-90054819D02*
X66416666Y-90054819D01*
X66416666Y-90054819D02*
X66559523Y-90102438D01*
X66988095Y-91054819D02*
X66988095Y-90054819D01*
X66988095Y-90054819D02*
X67559523Y-91054819D01*
X67559523Y-91054819D02*
X67559523Y-90054819D01*
X68035714Y-91054819D02*
X68035714Y-90054819D01*
X68035714Y-90054819D02*
X68416666Y-90054819D01*
X68416666Y-90054819D02*
X68511904Y-90102438D01*
X68511904Y-90102438D02*
X68559523Y-90150057D01*
X68559523Y-90150057D02*
X68607142Y-90245295D01*
X68607142Y-90245295D02*
X68607142Y-90388152D01*
X68607142Y-90388152D02*
X68559523Y-90483390D01*
X68559523Y-90483390D02*
X68511904Y-90531009D01*
X68511904Y-90531009D02*
X68416666Y-90578628D01*
X68416666Y-90578628D02*
X68035714Y-90578628D01*
X61416666Y-88154819D02*
X61416666Y-88869104D01*
X61416666Y-88869104D02*
X61369047Y-89011961D01*
X61369047Y-89011961D02*
X61273809Y-89107200D01*
X61273809Y-89107200D02*
X61130952Y-89154819D01*
X61130952Y-89154819D02*
X61035714Y-89154819D01*
X61845238Y-88250057D02*
X61892857Y-88202438D01*
X61892857Y-88202438D02*
X61988095Y-88154819D01*
X61988095Y-88154819D02*
X62226190Y-88154819D01*
X62226190Y-88154819D02*
X62321428Y-88202438D01*
X62321428Y-88202438D02*
X62369047Y-88250057D01*
X62369047Y-88250057D02*
X62416666Y-88345295D01*
X62416666Y-88345295D02*
X62416666Y-88440533D01*
X62416666Y-88440533D02*
X62369047Y-88583390D01*
X62369047Y-88583390D02*
X61797619Y-89154819D01*
X61797619Y-89154819D02*
X62416666Y-89154819D01*
D15*
X68894444Y-57788052D02*
X68592857Y-57788052D01*
X68592857Y-57788052D02*
X68592857Y-57154719D01*
X69437301Y-57788052D02*
X69075396Y-57788052D01*
X69256349Y-57788052D02*
X69256349Y-57154719D01*
X69256349Y-57154719D02*
X69196031Y-57245195D01*
X69196031Y-57245195D02*
X69135714Y-57305513D01*
X69135714Y-57305513D02*
X69075396Y-57335672D01*
D10*
X60289649Y-65133333D02*
X60051554Y-65299999D01*
X60289649Y-65419047D02*
X59789649Y-65419047D01*
X59789649Y-65419047D02*
X59789649Y-65228571D01*
X59789649Y-65228571D02*
X59813459Y-65180952D01*
X59813459Y-65180952D02*
X59837268Y-65157142D01*
X59837268Y-65157142D02*
X59884887Y-65133333D01*
X59884887Y-65133333D02*
X59956316Y-65133333D01*
X59956316Y-65133333D02*
X60003935Y-65157142D01*
X60003935Y-65157142D02*
X60027744Y-65180952D01*
X60027744Y-65180952D02*
X60051554Y-65228571D01*
X60051554Y-65228571D02*
X60051554Y-65419047D01*
X59789649Y-64966666D02*
X59789649Y-64657142D01*
X59789649Y-64657142D02*
X59980125Y-64823809D01*
X59980125Y-64823809D02*
X59980125Y-64752380D01*
X59980125Y-64752380D02*
X60003935Y-64704761D01*
X60003935Y-64704761D02*
X60027744Y-64680952D01*
X60027744Y-64680952D02*
X60075363Y-64657142D01*
X60075363Y-64657142D02*
X60194411Y-64657142D01*
X60194411Y-64657142D02*
X60242030Y-64680952D01*
X60242030Y-64680952D02*
X60265840Y-64704761D01*
X60265840Y-64704761D02*
X60289649Y-64752380D01*
X60289649Y-64752380D02*
X60289649Y-64895237D01*
X60289649Y-64895237D02*
X60265840Y-64942856D01*
X60265840Y-64942856D02*
X60242030Y-64966666D01*
D16*
%TO.C,R10*%
X67500000Y-65375000D02*
X69500000Y-65375000D01*
X67500000Y-66625000D02*
X67500000Y-65375000D01*
X69500000Y-65375000D02*
X69500000Y-66625000D01*
X69500000Y-66625000D02*
X67500000Y-66625000D01*
%TO.C,Q1*%
X50475000Y-59100000D02*
X51775000Y-59100000D01*
X50475000Y-62000000D02*
X50475000Y-59100000D01*
X51450000Y-62000000D02*
X50475000Y-62000000D01*
X51775000Y-59100000D02*
X51775000Y-61675000D01*
X51775000Y-61675000D02*
X51450000Y-62000000D01*
%TO.C,J4*%
X77050000Y-83650000D02*
X77050000Y-89400000D01*
X77050000Y-89400000D02*
X84450000Y-89400000D01*
X78875000Y-83650000D02*
X79500000Y-84650000D01*
X79500000Y-84650000D02*
X80125000Y-83650000D01*
X84450000Y-83650000D02*
X77050000Y-83650000D01*
X84450000Y-89400000D02*
X84450000Y-83650000D01*
%TO.C,J1*%
X41300000Y-73500000D02*
X41300000Y-82500000D01*
X41300000Y-82500000D02*
X55800000Y-82500000D01*
X44800000Y-73500000D02*
X44800000Y-82500000D01*
X54996787Y-73494575D02*
X55800000Y-74250000D01*
X55000000Y-73500000D02*
X41300000Y-73500000D01*
X55800000Y-82500000D02*
X55800000Y-74250000D01*
%TO.C,R1*%
X51437500Y-64050000D02*
X52687500Y-64050000D01*
X51437500Y-66050000D02*
X51437500Y-64050000D01*
X52687500Y-64050000D02*
X52687500Y-66050000D01*
X52687500Y-66050000D02*
X51437500Y-66050000D01*
%TO.C,J9*%
X86550000Y-75650000D02*
X86550000Y-81400000D01*
X86550000Y-81400000D02*
X93950000Y-81400000D01*
X88375000Y-75650000D02*
X89000000Y-76650000D01*
X89000000Y-76650000D02*
X89625000Y-75650000D01*
X93950000Y-75650000D02*
X86550000Y-75650000D01*
X93950000Y-81400000D02*
X93950000Y-75650000D01*
%TO.C,J6*%
X58050000Y-75650000D02*
X58050000Y-81400000D01*
X58050000Y-81400000D02*
X65450000Y-81400000D01*
X59875000Y-75650000D02*
X60500000Y-76650000D01*
X60500000Y-76650000D02*
X61125000Y-75650000D01*
X65450000Y-75650000D02*
X58050000Y-75650000D01*
X65450000Y-81400000D02*
X65450000Y-75650000D01*
%TO.C,Q3*%
X58475000Y-59100000D02*
X59775000Y-59100000D01*
X58475000Y-62000000D02*
X58475000Y-59100000D01*
X59450000Y-62000000D02*
X58475000Y-62000000D01*
X59775000Y-59100000D02*
X59775000Y-61675000D01*
X59775000Y-61675000D02*
X59450000Y-62000000D01*
%TO.C,Q2*%
X54475000Y-59100000D02*
X55775000Y-59100000D01*
X54475000Y-62000000D02*
X54475000Y-59100000D01*
X55450000Y-62000000D02*
X54475000Y-62000000D01*
X55775000Y-59100000D02*
X55775000Y-61675000D01*
X55775000Y-61675000D02*
X55450000Y-62000000D01*
%TO.C,C3*%
X73000000Y-55375000D02*
X75000000Y-55375000D01*
X73000000Y-56625000D02*
X73000000Y-55375000D01*
X75000000Y-55375000D02*
X75000000Y-56625000D01*
X75000000Y-56625000D02*
X73000000Y-56625000D01*
%TO.C,C2*%
X53000000Y-54375000D02*
X55000000Y-54375000D01*
X53000000Y-55625000D02*
X53000000Y-54375000D01*
X55000000Y-54375000D02*
X55000000Y-55625000D01*
X55000000Y-55625000D02*
X53000000Y-55625000D01*
%TO.C,J5*%
X86550000Y-83650000D02*
X86550000Y-89400000D01*
X86550000Y-89400000D02*
X93950000Y-89400000D01*
X88375000Y-83650000D02*
X89000000Y-84650000D01*
X89000000Y-84650000D02*
X89625000Y-83650000D01*
X93950000Y-83650000D02*
X86550000Y-83650000D01*
X93950000Y-89400000D02*
X93950000Y-83650000D01*
%TO.C,R6*%
X78895000Y-64000000D02*
X80145000Y-64000000D01*
X78895000Y-66000000D02*
X78895000Y-64000000D01*
X80145000Y-64000000D02*
X80145000Y-66000000D01*
X80145000Y-66000000D02*
X78895000Y-66000000D01*
%TO.C,J3*%
X67550000Y-83650000D02*
X67550000Y-89400000D01*
X67550000Y-89400000D02*
X74950000Y-89400000D01*
X69375000Y-83650000D02*
X70000000Y-84650000D01*
X70000000Y-84650000D02*
X70625000Y-83650000D01*
X74950000Y-83650000D02*
X67550000Y-83650000D01*
X74950000Y-89400000D02*
X74950000Y-83650000D01*
%TO.C,R8*%
X83975000Y-64000000D02*
X85225000Y-64000000D01*
X83975000Y-66000000D02*
X83975000Y-64000000D01*
X85225000Y-64000000D02*
X85225000Y-66000000D01*
X85225000Y-66000000D02*
X83975000Y-66000000D01*
%TO.C,R7*%
X81435000Y-64000000D02*
X82685000Y-64000000D01*
X81435000Y-66000000D02*
X81435000Y-64000000D01*
X82685000Y-64000000D02*
X82685000Y-66000000D01*
X82685000Y-66000000D02*
X81435000Y-66000000D01*
%TO.C,R4*%
X63437500Y-64050000D02*
X64687500Y-64050000D01*
X63437500Y-66050000D02*
X63437500Y-64050000D01*
X64687500Y-64050000D02*
X64687500Y-66050000D01*
X64687500Y-66050000D02*
X63437500Y-66050000D01*
%TO.C,J8*%
X77050000Y-75650000D02*
X77050000Y-81400000D01*
X77050000Y-81400000D02*
X84450000Y-81400000D01*
X78875000Y-75650000D02*
X79500000Y-76650000D01*
X79500000Y-76650000D02*
X80125000Y-75650000D01*
X84450000Y-75650000D02*
X77050000Y-75650000D01*
X84450000Y-81400000D02*
X84450000Y-75650000D01*
%TO.C,A1*%
X45130000Y-70390000D02*
X45130000Y-50890000D01*
X45630000Y-50390000D02*
X95630000Y-50390000D01*
X46130000Y-71390000D02*
X45130000Y-70390000D01*
X56555000Y-63265000D02*
X57705000Y-63265000D01*
X56555000Y-65515000D02*
X57705000Y-65515000D01*
X95630000Y-71390000D02*
X46130000Y-71390000D01*
X96130000Y-50890000D02*
X96130000Y-70890000D01*
X49530000Y-67090000D02*
X50330000Y-67090000D01*
X50330000Y-66090000D01*
X49530000Y-66090000D01*
X49530000Y-67090000D01*
X49530000Y-67390000D02*
X50330000Y-67390000D01*
X50330000Y-65790000D01*
X49530000Y-65790000D01*
X49530000Y-67390000D01*
X55005000Y-65990000D02*
X59255000Y-65990000D01*
X59255000Y-62790000D01*
X55005000Y-62790000D01*
X55005000Y-65990000D01*
X45130000Y-50890000D02*
G75*
G02*
X45630000Y-50390000I500000J0D01*
G01*
X56555000Y-65515000D02*
G75*
G02*
X56555000Y-63265000I0J1125000D01*
G01*
X57705000Y-63265000D02*
G75*
G02*
X57705000Y-65515000I0J-1125000D01*
G01*
X95630000Y-50390000D02*
G75*
G02*
X96130000Y-50890000I0J-500000D01*
G01*
X96130000Y-70890000D02*
G75*
G02*
X95630000Y-71390000I-500001J1D01*
G01*
X44430000Y-57100000D02*
X49430000Y-57100000D01*
X49430000Y-64680000D01*
X44430000Y-64680000D01*
X44430000Y-64890000D01*
X43830000Y-64890000D01*
X43830000Y-56890000D01*
X44430000Y-56890000D01*
X44430000Y-57100000D01*
%TO.C,R5*%
X74440000Y-65375000D02*
X76440000Y-65375000D01*
X74440000Y-66625000D02*
X74440000Y-65375000D01*
X76440000Y-65375000D02*
X76440000Y-66625000D01*
X76440000Y-66625000D02*
X74440000Y-66625000D01*
%TO.C,C1*%
X78500000Y-60375000D02*
X80500000Y-60375000D01*
X78500000Y-61625000D02*
X78500000Y-60375000D01*
X80500000Y-60375000D02*
X80500000Y-61625000D01*
X80500000Y-61625000D02*
X78500000Y-61625000D01*
%TO.C,R9*%
X67500000Y-61875000D02*
X69500000Y-61875000D01*
X67500000Y-63125000D02*
X67500000Y-61875000D01*
X69500000Y-61875000D02*
X69500000Y-63125000D01*
X69500000Y-63125000D02*
X67500000Y-63125000D01*
%TO.C,R2*%
X55437500Y-64050000D02*
X56687500Y-64050000D01*
X55437500Y-66050000D02*
X55437500Y-64050000D01*
X56687500Y-64050000D02*
X56687500Y-66050000D01*
X56687500Y-66050000D02*
X55437500Y-66050000D01*
%TO.C,J7*%
X67550000Y-75650000D02*
X67550000Y-81400000D01*
X67550000Y-81400000D02*
X74950000Y-81400000D01*
X69375000Y-75650000D02*
X70000000Y-76650000D01*
X70000000Y-76650000D02*
X70625000Y-75650000D01*
X74950000Y-75650000D02*
X67550000Y-75650000D01*
X74950000Y-81400000D02*
X74950000Y-75650000D01*
%TO.C,U1*%
X73600000Y-59600000D02*
X73600000Y-62050000D01*
X73600000Y-59600000D02*
X74250000Y-58950000D01*
X75400000Y-58950000D02*
X74250000Y-58950000D01*
X75400000Y-58950000D02*
X75400000Y-62050000D01*
X75400000Y-62050000D02*
X73600000Y-62050000D01*
%TO.C,Q4*%
X62475000Y-59100000D02*
X63775000Y-59100000D01*
X62475000Y-62000000D02*
X62475000Y-59100000D01*
X63450000Y-62000000D02*
X62475000Y-62000000D01*
X63775000Y-59100000D02*
X63775000Y-61675000D01*
X63775000Y-61675000D02*
X63450000Y-62000000D01*
%TO.C,J2*%
X58050000Y-83650000D02*
X58050000Y-89400000D01*
X58050000Y-89400000D02*
X65450000Y-89400000D01*
X59875000Y-83650000D02*
X60500000Y-84650000D01*
X60500000Y-84650000D02*
X61125000Y-83650000D01*
X65450000Y-83650000D02*
X58050000Y-83650000D01*
X65450000Y-89400000D02*
X65450000Y-83650000D01*
%TO.C,L1*%
X67000000Y-55500000D02*
X67000000Y-59500000D01*
X67000000Y-59500000D02*
X71000000Y-59500000D01*
X71000000Y-55500000D02*
X67000000Y-55500000D01*
X71000000Y-59500000D02*
X71000000Y-55500000D01*
%TO.C,R3*%
X59437500Y-64050000D02*
X60687500Y-64050000D01*
X59437500Y-66050000D02*
X59437500Y-64050000D01*
X60687500Y-64050000D02*
X60687500Y-66050000D01*
X60687500Y-66050000D02*
X59437500Y-66050000D01*
%TD*%
M02*
