%TF.GenerationSoftware,KiCad,Pcbnew,9.0.2*%
%TF.CreationDate,2025-06-25T21:04:22+02:00*%
%TF.ProjectId,Schrankbeleuchtung,53636872-616e-46b6-9265-6c6575636874,rev?*%
%TF.SameCoordinates,Original*%
%TF.FileFunction,Legend,Top*%
%TF.FilePolarity,Positive*%
%FSLAX46Y46*%
G04 Gerber Fmt 4.6, Leading zero omitted, Abs format (unit mm)*
G04 Created by KiCad (PCBNEW 9.0.2) date 2025-06-25 21:04:22*
%MOMM*%
%LPD*%
G01*
G04 APERTURE LIST*
%ADD10C,0.250000*%
%ADD11C,0.150000*%
%ADD12C,0.120000*%
G04 APERTURE END LIST*
D10*
X62378758Y-48160571D02*
X62307330Y-48232000D01*
X62307330Y-48232000D02*
X62093044Y-48303428D01*
X62093044Y-48303428D02*
X61950187Y-48303428D01*
X61950187Y-48303428D02*
X61735901Y-48232000D01*
X61735901Y-48232000D02*
X61593044Y-48089142D01*
X61593044Y-48089142D02*
X61521615Y-47946285D01*
X61521615Y-47946285D02*
X61450187Y-47660571D01*
X61450187Y-47660571D02*
X61450187Y-47446285D01*
X61450187Y-47446285D02*
X61521615Y-47160571D01*
X61521615Y-47160571D02*
X61593044Y-47017714D01*
X61593044Y-47017714D02*
X61735901Y-46874857D01*
X61735901Y-46874857D02*
X61950187Y-46803428D01*
X61950187Y-46803428D02*
X62093044Y-46803428D01*
X62093044Y-46803428D02*
X62307330Y-46874857D01*
X62307330Y-46874857D02*
X62378758Y-46946285D01*
X63664473Y-48303428D02*
X63664473Y-47517714D01*
X63664473Y-47517714D02*
X63593044Y-47374857D01*
X63593044Y-47374857D02*
X63450187Y-47303428D01*
X63450187Y-47303428D02*
X63164473Y-47303428D01*
X63164473Y-47303428D02*
X63021615Y-47374857D01*
X63664473Y-48232000D02*
X63521615Y-48303428D01*
X63521615Y-48303428D02*
X63164473Y-48303428D01*
X63164473Y-48303428D02*
X63021615Y-48232000D01*
X63021615Y-48232000D02*
X62950187Y-48089142D01*
X62950187Y-48089142D02*
X62950187Y-47946285D01*
X62950187Y-47946285D02*
X63021615Y-47803428D01*
X63021615Y-47803428D02*
X63164473Y-47732000D01*
X63164473Y-47732000D02*
X63521615Y-47732000D01*
X63521615Y-47732000D02*
X63664473Y-47660571D01*
X64378758Y-48303428D02*
X64378758Y-46803428D01*
X64378758Y-47374857D02*
X64521616Y-47303428D01*
X64521616Y-47303428D02*
X64807330Y-47303428D01*
X64807330Y-47303428D02*
X64950187Y-47374857D01*
X64950187Y-47374857D02*
X65021616Y-47446285D01*
X65021616Y-47446285D02*
X65093044Y-47589142D01*
X65093044Y-47589142D02*
X65093044Y-48017714D01*
X65093044Y-48017714D02*
X65021616Y-48160571D01*
X65021616Y-48160571D02*
X64950187Y-48232000D01*
X64950187Y-48232000D02*
X64807330Y-48303428D01*
X64807330Y-48303428D02*
X64521616Y-48303428D01*
X64521616Y-48303428D02*
X64378758Y-48232000D01*
X65735901Y-48303428D02*
X65735901Y-47303428D01*
X65735901Y-46803428D02*
X65664473Y-46874857D01*
X65664473Y-46874857D02*
X65735901Y-46946285D01*
X65735901Y-46946285D02*
X65807330Y-46874857D01*
X65807330Y-46874857D02*
X65735901Y-46803428D01*
X65735901Y-46803428D02*
X65735901Y-46946285D01*
X66450187Y-47303428D02*
X66450187Y-48303428D01*
X66450187Y-47446285D02*
X66521616Y-47374857D01*
X66521616Y-47374857D02*
X66664473Y-47303428D01*
X66664473Y-47303428D02*
X66878759Y-47303428D01*
X66878759Y-47303428D02*
X67021616Y-47374857D01*
X67021616Y-47374857D02*
X67093045Y-47517714D01*
X67093045Y-47517714D02*
X67093045Y-48303428D01*
X68378759Y-48232000D02*
X68235902Y-48303428D01*
X68235902Y-48303428D02*
X67950188Y-48303428D01*
X67950188Y-48303428D02*
X67807330Y-48232000D01*
X67807330Y-48232000D02*
X67735902Y-48089142D01*
X67735902Y-48089142D02*
X67735902Y-47517714D01*
X67735902Y-47517714D02*
X67807330Y-47374857D01*
X67807330Y-47374857D02*
X67950188Y-47303428D01*
X67950188Y-47303428D02*
X68235902Y-47303428D01*
X68235902Y-47303428D02*
X68378759Y-47374857D01*
X68378759Y-47374857D02*
X68450188Y-47517714D01*
X68450188Y-47517714D02*
X68450188Y-47660571D01*
X68450188Y-47660571D02*
X67735902Y-47803428D01*
X68878759Y-47303428D02*
X69450187Y-47303428D01*
X69093044Y-46803428D02*
X69093044Y-48089142D01*
X69093044Y-48089142D02*
X69164473Y-48232000D01*
X69164473Y-48232000D02*
X69307330Y-48303428D01*
X69307330Y-48303428D02*
X69450187Y-48303428D01*
X71807330Y-48303428D02*
X71093044Y-48303428D01*
X71093044Y-48303428D02*
X71093044Y-46803428D01*
X72307330Y-48303428D02*
X72307330Y-47303428D01*
X72307330Y-46803428D02*
X72235902Y-46874857D01*
X72235902Y-46874857D02*
X72307330Y-46946285D01*
X72307330Y-46946285D02*
X72378759Y-46874857D01*
X72378759Y-46874857D02*
X72307330Y-46803428D01*
X72307330Y-46803428D02*
X72307330Y-46946285D01*
X73664474Y-47303428D02*
X73664474Y-48517714D01*
X73664474Y-48517714D02*
X73593045Y-48660571D01*
X73593045Y-48660571D02*
X73521616Y-48732000D01*
X73521616Y-48732000D02*
X73378759Y-48803428D01*
X73378759Y-48803428D02*
X73164474Y-48803428D01*
X73164474Y-48803428D02*
X73021616Y-48732000D01*
X73664474Y-48232000D02*
X73521616Y-48303428D01*
X73521616Y-48303428D02*
X73235902Y-48303428D01*
X73235902Y-48303428D02*
X73093045Y-48232000D01*
X73093045Y-48232000D02*
X73021616Y-48160571D01*
X73021616Y-48160571D02*
X72950188Y-48017714D01*
X72950188Y-48017714D02*
X72950188Y-47589142D01*
X72950188Y-47589142D02*
X73021616Y-47446285D01*
X73021616Y-47446285D02*
X73093045Y-47374857D01*
X73093045Y-47374857D02*
X73235902Y-47303428D01*
X73235902Y-47303428D02*
X73521616Y-47303428D01*
X73521616Y-47303428D02*
X73664474Y-47374857D01*
X74378759Y-48303428D02*
X74378759Y-46803428D01*
X75021617Y-48303428D02*
X75021617Y-47517714D01*
X75021617Y-47517714D02*
X74950188Y-47374857D01*
X74950188Y-47374857D02*
X74807331Y-47303428D01*
X74807331Y-47303428D02*
X74593045Y-47303428D01*
X74593045Y-47303428D02*
X74450188Y-47374857D01*
X74450188Y-47374857D02*
X74378759Y-47446285D01*
X75521617Y-47303428D02*
X76093045Y-47303428D01*
X75735902Y-46803428D02*
X75735902Y-48089142D01*
X75735902Y-48089142D02*
X75807331Y-48232000D01*
X75807331Y-48232000D02*
X75950188Y-48303428D01*
X75950188Y-48303428D02*
X76093045Y-48303428D01*
X77593045Y-47303428D02*
X77950188Y-48303428D01*
X77950188Y-48303428D02*
X78307331Y-47303428D01*
X79664474Y-48303428D02*
X78807331Y-48303428D01*
X79235902Y-48303428D02*
X79235902Y-46803428D01*
X79235902Y-46803428D02*
X79093045Y-47017714D01*
X79093045Y-47017714D02*
X78950188Y-47160571D01*
X78950188Y-47160571D02*
X78807331Y-47232000D01*
X80307330Y-48160571D02*
X80378759Y-48232000D01*
X80378759Y-48232000D02*
X80307330Y-48303428D01*
X80307330Y-48303428D02*
X80235902Y-48232000D01*
X80235902Y-48232000D02*
X80307330Y-48160571D01*
X80307330Y-48160571D02*
X80307330Y-48303428D01*
X81307331Y-46803428D02*
X81450188Y-46803428D01*
X81450188Y-46803428D02*
X81593045Y-46874857D01*
X81593045Y-46874857D02*
X81664474Y-46946285D01*
X81664474Y-46946285D02*
X81735902Y-47089142D01*
X81735902Y-47089142D02*
X81807331Y-47374857D01*
X81807331Y-47374857D02*
X81807331Y-47732000D01*
X81807331Y-47732000D02*
X81735902Y-48017714D01*
X81735902Y-48017714D02*
X81664474Y-48160571D01*
X81664474Y-48160571D02*
X81593045Y-48232000D01*
X81593045Y-48232000D02*
X81450188Y-48303428D01*
X81450188Y-48303428D02*
X81307331Y-48303428D01*
X81307331Y-48303428D02*
X81164474Y-48232000D01*
X81164474Y-48232000D02*
X81093045Y-48160571D01*
X81093045Y-48160571D02*
X81021616Y-48017714D01*
X81021616Y-48017714D02*
X80950188Y-47732000D01*
X80950188Y-47732000D02*
X80950188Y-47374857D01*
X80950188Y-47374857D02*
X81021616Y-47089142D01*
X81021616Y-47089142D02*
X81093045Y-46946285D01*
X81093045Y-46946285D02*
X81164474Y-46874857D01*
X81164474Y-46874857D02*
X81307331Y-46803428D01*
D11*
X67857142Y-64774819D02*
X67523809Y-64298628D01*
X67285714Y-64774819D02*
X67285714Y-63774819D01*
X67285714Y-63774819D02*
X67666666Y-63774819D01*
X67666666Y-63774819D02*
X67761904Y-63822438D01*
X67761904Y-63822438D02*
X67809523Y-63870057D01*
X67809523Y-63870057D02*
X67857142Y-63965295D01*
X67857142Y-63965295D02*
X67857142Y-64108152D01*
X67857142Y-64108152D02*
X67809523Y-64203390D01*
X67809523Y-64203390D02*
X67761904Y-64251009D01*
X67761904Y-64251009D02*
X67666666Y-64298628D01*
X67666666Y-64298628D02*
X67285714Y-64298628D01*
X68809523Y-64774819D02*
X68238095Y-64774819D01*
X68523809Y-64774819D02*
X68523809Y-63774819D01*
X68523809Y-63774819D02*
X68428571Y-63917676D01*
X68428571Y-63917676D02*
X68333333Y-64012914D01*
X68333333Y-64012914D02*
X68238095Y-64060533D01*
X69428571Y-63774819D02*
X69523809Y-63774819D01*
X69523809Y-63774819D02*
X69619047Y-63822438D01*
X69619047Y-63822438D02*
X69666666Y-63870057D01*
X69666666Y-63870057D02*
X69714285Y-63965295D01*
X69714285Y-63965295D02*
X69761904Y-64155771D01*
X69761904Y-64155771D02*
X69761904Y-64393866D01*
X69761904Y-64393866D02*
X69714285Y-64584342D01*
X69714285Y-64584342D02*
X69666666Y-64679580D01*
X69666666Y-64679580D02*
X69619047Y-64727200D01*
X69619047Y-64727200D02*
X69523809Y-64774819D01*
X69523809Y-64774819D02*
X69428571Y-64774819D01*
X69428571Y-64774819D02*
X69333333Y-64727200D01*
X69333333Y-64727200D02*
X69285714Y-64679580D01*
X69285714Y-64679580D02*
X69238095Y-64584342D01*
X69238095Y-64584342D02*
X69190476Y-64393866D01*
X69190476Y-64393866D02*
X69190476Y-64155771D01*
X69190476Y-64155771D02*
X69238095Y-63965295D01*
X69238095Y-63965295D02*
X69285714Y-63870057D01*
X69285714Y-63870057D02*
X69333333Y-63822438D01*
X69333333Y-63822438D02*
X69428571Y-63774819D01*
X50404761Y-58600057D02*
X50309523Y-58552438D01*
X50309523Y-58552438D02*
X50214285Y-58457200D01*
X50214285Y-58457200D02*
X50071428Y-58314342D01*
X50071428Y-58314342D02*
X49976190Y-58266723D01*
X49976190Y-58266723D02*
X49880952Y-58266723D01*
X49928571Y-58504819D02*
X49833333Y-58457200D01*
X49833333Y-58457200D02*
X49738095Y-58361961D01*
X49738095Y-58361961D02*
X49690476Y-58171485D01*
X49690476Y-58171485D02*
X49690476Y-57838152D01*
X49690476Y-57838152D02*
X49738095Y-57647676D01*
X49738095Y-57647676D02*
X49833333Y-57552438D01*
X49833333Y-57552438D02*
X49928571Y-57504819D01*
X49928571Y-57504819D02*
X50119047Y-57504819D01*
X50119047Y-57504819D02*
X50214285Y-57552438D01*
X50214285Y-57552438D02*
X50309523Y-57647676D01*
X50309523Y-57647676D02*
X50357142Y-57838152D01*
X50357142Y-57838152D02*
X50357142Y-58171485D01*
X50357142Y-58171485D02*
X50309523Y-58361961D01*
X50309523Y-58361961D02*
X50214285Y-58457200D01*
X50214285Y-58457200D02*
X50119047Y-58504819D01*
X50119047Y-58504819D02*
X49928571Y-58504819D01*
X51309523Y-58504819D02*
X50738095Y-58504819D01*
X51023809Y-58504819D02*
X51023809Y-57504819D01*
X51023809Y-57504819D02*
X50928571Y-57647676D01*
X50928571Y-57647676D02*
X50833333Y-57742914D01*
X50833333Y-57742914D02*
X50738095Y-57790533D01*
X80416666Y-81904819D02*
X80416666Y-82619104D01*
X80416666Y-82619104D02*
X80369047Y-82761961D01*
X80369047Y-82761961D02*
X80273809Y-82857200D01*
X80273809Y-82857200D02*
X80130952Y-82904819D01*
X80130952Y-82904819D02*
X80035714Y-82904819D01*
X81321428Y-82238152D02*
X81321428Y-82904819D01*
X81083333Y-81857200D02*
X80845238Y-82571485D01*
X80845238Y-82571485D02*
X81464285Y-82571485D01*
X46216666Y-83204819D02*
X46216666Y-83919104D01*
X46216666Y-83919104D02*
X46169047Y-84061961D01*
X46169047Y-84061961D02*
X46073809Y-84157200D01*
X46073809Y-84157200D02*
X45930952Y-84204819D01*
X45930952Y-84204819D02*
X45835714Y-84204819D01*
X47216666Y-84204819D02*
X46645238Y-84204819D01*
X46930952Y-84204819D02*
X46930952Y-83204819D01*
X46930952Y-83204819D02*
X46835714Y-83347676D01*
X46835714Y-83347676D02*
X46740476Y-83442914D01*
X46740476Y-83442914D02*
X46645238Y-83490533D01*
X50867319Y-65216666D02*
X50391128Y-65549999D01*
X50867319Y-65788094D02*
X49867319Y-65788094D01*
X49867319Y-65788094D02*
X49867319Y-65407142D01*
X49867319Y-65407142D02*
X49914938Y-65311904D01*
X49914938Y-65311904D02*
X49962557Y-65264285D01*
X49962557Y-65264285D02*
X50057795Y-65216666D01*
X50057795Y-65216666D02*
X50200652Y-65216666D01*
X50200652Y-65216666D02*
X50295890Y-65264285D01*
X50295890Y-65264285D02*
X50343509Y-65311904D01*
X50343509Y-65311904D02*
X50391128Y-65407142D01*
X50391128Y-65407142D02*
X50391128Y-65788094D01*
X50867319Y-64264285D02*
X50867319Y-64835713D01*
X50867319Y-64549999D02*
X49867319Y-64549999D01*
X49867319Y-64549999D02*
X50010176Y-64645237D01*
X50010176Y-64645237D02*
X50105414Y-64740475D01*
X50105414Y-64740475D02*
X50153033Y-64835713D01*
X89916666Y-73904819D02*
X89916666Y-74619104D01*
X89916666Y-74619104D02*
X89869047Y-74761961D01*
X89869047Y-74761961D02*
X89773809Y-74857200D01*
X89773809Y-74857200D02*
X89630952Y-74904819D01*
X89630952Y-74904819D02*
X89535714Y-74904819D01*
X90440476Y-74904819D02*
X90630952Y-74904819D01*
X90630952Y-74904819D02*
X90726190Y-74857200D01*
X90726190Y-74857200D02*
X90773809Y-74809580D01*
X90773809Y-74809580D02*
X90869047Y-74666723D01*
X90869047Y-74666723D02*
X90916666Y-74476247D01*
X90916666Y-74476247D02*
X90916666Y-74095295D01*
X90916666Y-74095295D02*
X90869047Y-74000057D01*
X90869047Y-74000057D02*
X90821428Y-73952438D01*
X90821428Y-73952438D02*
X90726190Y-73904819D01*
X90726190Y-73904819D02*
X90535714Y-73904819D01*
X90535714Y-73904819D02*
X90440476Y-73952438D01*
X90440476Y-73952438D02*
X90392857Y-74000057D01*
X90392857Y-74000057D02*
X90345238Y-74095295D01*
X90345238Y-74095295D02*
X90345238Y-74333390D01*
X90345238Y-74333390D02*
X90392857Y-74428628D01*
X90392857Y-74428628D02*
X90440476Y-74476247D01*
X90440476Y-74476247D02*
X90535714Y-74523866D01*
X90535714Y-74523866D02*
X90726190Y-74523866D01*
X90726190Y-74523866D02*
X90821428Y-74476247D01*
X90821428Y-74476247D02*
X90869047Y-74428628D01*
X90869047Y-74428628D02*
X90916666Y-74333390D01*
X61416666Y-73904819D02*
X61416666Y-74619104D01*
X61416666Y-74619104D02*
X61369047Y-74761961D01*
X61369047Y-74761961D02*
X61273809Y-74857200D01*
X61273809Y-74857200D02*
X61130952Y-74904819D01*
X61130952Y-74904819D02*
X61035714Y-74904819D01*
X62321428Y-73904819D02*
X62130952Y-73904819D01*
X62130952Y-73904819D02*
X62035714Y-73952438D01*
X62035714Y-73952438D02*
X61988095Y-74000057D01*
X61988095Y-74000057D02*
X61892857Y-74142914D01*
X61892857Y-74142914D02*
X61845238Y-74333390D01*
X61845238Y-74333390D02*
X61845238Y-74714342D01*
X61845238Y-74714342D02*
X61892857Y-74809580D01*
X61892857Y-74809580D02*
X61940476Y-74857200D01*
X61940476Y-74857200D02*
X62035714Y-74904819D01*
X62035714Y-74904819D02*
X62226190Y-74904819D01*
X62226190Y-74904819D02*
X62321428Y-74857200D01*
X62321428Y-74857200D02*
X62369047Y-74809580D01*
X62369047Y-74809580D02*
X62416666Y-74714342D01*
X62416666Y-74714342D02*
X62416666Y-74476247D01*
X62416666Y-74476247D02*
X62369047Y-74381009D01*
X62369047Y-74381009D02*
X62321428Y-74333390D01*
X62321428Y-74333390D02*
X62226190Y-74285771D01*
X62226190Y-74285771D02*
X62035714Y-74285771D01*
X62035714Y-74285771D02*
X61940476Y-74333390D01*
X61940476Y-74333390D02*
X61892857Y-74381009D01*
X61892857Y-74381009D02*
X61845238Y-74476247D01*
X58379761Y-58600057D02*
X58284523Y-58552438D01*
X58284523Y-58552438D02*
X58189285Y-58457200D01*
X58189285Y-58457200D02*
X58046428Y-58314342D01*
X58046428Y-58314342D02*
X57951190Y-58266723D01*
X57951190Y-58266723D02*
X57855952Y-58266723D01*
X57903571Y-58504819D02*
X57808333Y-58457200D01*
X57808333Y-58457200D02*
X57713095Y-58361961D01*
X57713095Y-58361961D02*
X57665476Y-58171485D01*
X57665476Y-58171485D02*
X57665476Y-57838152D01*
X57665476Y-57838152D02*
X57713095Y-57647676D01*
X57713095Y-57647676D02*
X57808333Y-57552438D01*
X57808333Y-57552438D02*
X57903571Y-57504819D01*
X57903571Y-57504819D02*
X58094047Y-57504819D01*
X58094047Y-57504819D02*
X58189285Y-57552438D01*
X58189285Y-57552438D02*
X58284523Y-57647676D01*
X58284523Y-57647676D02*
X58332142Y-57838152D01*
X58332142Y-57838152D02*
X58332142Y-58171485D01*
X58332142Y-58171485D02*
X58284523Y-58361961D01*
X58284523Y-58361961D02*
X58189285Y-58457200D01*
X58189285Y-58457200D02*
X58094047Y-58504819D01*
X58094047Y-58504819D02*
X57903571Y-58504819D01*
X58665476Y-57504819D02*
X59284523Y-57504819D01*
X59284523Y-57504819D02*
X58951190Y-57885771D01*
X58951190Y-57885771D02*
X59094047Y-57885771D01*
X59094047Y-57885771D02*
X59189285Y-57933390D01*
X59189285Y-57933390D02*
X59236904Y-57981009D01*
X59236904Y-57981009D02*
X59284523Y-58076247D01*
X59284523Y-58076247D02*
X59284523Y-58314342D01*
X59284523Y-58314342D02*
X59236904Y-58409580D01*
X59236904Y-58409580D02*
X59189285Y-58457200D01*
X59189285Y-58457200D02*
X59094047Y-58504819D01*
X59094047Y-58504819D02*
X58808333Y-58504819D01*
X58808333Y-58504819D02*
X58713095Y-58457200D01*
X58713095Y-58457200D02*
X58665476Y-58409580D01*
X54379761Y-58600057D02*
X54284523Y-58552438D01*
X54284523Y-58552438D02*
X54189285Y-58457200D01*
X54189285Y-58457200D02*
X54046428Y-58314342D01*
X54046428Y-58314342D02*
X53951190Y-58266723D01*
X53951190Y-58266723D02*
X53855952Y-58266723D01*
X53903571Y-58504819D02*
X53808333Y-58457200D01*
X53808333Y-58457200D02*
X53713095Y-58361961D01*
X53713095Y-58361961D02*
X53665476Y-58171485D01*
X53665476Y-58171485D02*
X53665476Y-57838152D01*
X53665476Y-57838152D02*
X53713095Y-57647676D01*
X53713095Y-57647676D02*
X53808333Y-57552438D01*
X53808333Y-57552438D02*
X53903571Y-57504819D01*
X53903571Y-57504819D02*
X54094047Y-57504819D01*
X54094047Y-57504819D02*
X54189285Y-57552438D01*
X54189285Y-57552438D02*
X54284523Y-57647676D01*
X54284523Y-57647676D02*
X54332142Y-57838152D01*
X54332142Y-57838152D02*
X54332142Y-58171485D01*
X54332142Y-58171485D02*
X54284523Y-58361961D01*
X54284523Y-58361961D02*
X54189285Y-58457200D01*
X54189285Y-58457200D02*
X54094047Y-58504819D01*
X54094047Y-58504819D02*
X53903571Y-58504819D01*
X54713095Y-57600057D02*
X54760714Y-57552438D01*
X54760714Y-57552438D02*
X54855952Y-57504819D01*
X54855952Y-57504819D02*
X55094047Y-57504819D01*
X55094047Y-57504819D02*
X55189285Y-57552438D01*
X55189285Y-57552438D02*
X55236904Y-57600057D01*
X55236904Y-57600057D02*
X55284523Y-57695295D01*
X55284523Y-57695295D02*
X55284523Y-57790533D01*
X55284523Y-57790533D02*
X55236904Y-57933390D01*
X55236904Y-57933390D02*
X54665476Y-58504819D01*
X54665476Y-58504819D02*
X55284523Y-58504819D01*
X73833333Y-54679580D02*
X73785714Y-54727200D01*
X73785714Y-54727200D02*
X73642857Y-54774819D01*
X73642857Y-54774819D02*
X73547619Y-54774819D01*
X73547619Y-54774819D02*
X73404762Y-54727200D01*
X73404762Y-54727200D02*
X73309524Y-54631961D01*
X73309524Y-54631961D02*
X73261905Y-54536723D01*
X73261905Y-54536723D02*
X73214286Y-54346247D01*
X73214286Y-54346247D02*
X73214286Y-54203390D01*
X73214286Y-54203390D02*
X73261905Y-54012914D01*
X73261905Y-54012914D02*
X73309524Y-53917676D01*
X73309524Y-53917676D02*
X73404762Y-53822438D01*
X73404762Y-53822438D02*
X73547619Y-53774819D01*
X73547619Y-53774819D02*
X73642857Y-53774819D01*
X73642857Y-53774819D02*
X73785714Y-53822438D01*
X73785714Y-53822438D02*
X73833333Y-53870057D01*
X74166667Y-53774819D02*
X74785714Y-53774819D01*
X74785714Y-53774819D02*
X74452381Y-54155771D01*
X74452381Y-54155771D02*
X74595238Y-54155771D01*
X74595238Y-54155771D02*
X74690476Y-54203390D01*
X74690476Y-54203390D02*
X74738095Y-54251009D01*
X74738095Y-54251009D02*
X74785714Y-54346247D01*
X74785714Y-54346247D02*
X74785714Y-54584342D01*
X74785714Y-54584342D02*
X74738095Y-54679580D01*
X74738095Y-54679580D02*
X74690476Y-54727200D01*
X74690476Y-54727200D02*
X74595238Y-54774819D01*
X74595238Y-54774819D02*
X74309524Y-54774819D01*
X74309524Y-54774819D02*
X74214286Y-54727200D01*
X74214286Y-54727200D02*
X74166667Y-54679580D01*
X50833333Y-55359580D02*
X50785714Y-55407200D01*
X50785714Y-55407200D02*
X50642857Y-55454819D01*
X50642857Y-55454819D02*
X50547619Y-55454819D01*
X50547619Y-55454819D02*
X50404762Y-55407200D01*
X50404762Y-55407200D02*
X50309524Y-55311961D01*
X50309524Y-55311961D02*
X50261905Y-55216723D01*
X50261905Y-55216723D02*
X50214286Y-55026247D01*
X50214286Y-55026247D02*
X50214286Y-54883390D01*
X50214286Y-54883390D02*
X50261905Y-54692914D01*
X50261905Y-54692914D02*
X50309524Y-54597676D01*
X50309524Y-54597676D02*
X50404762Y-54502438D01*
X50404762Y-54502438D02*
X50547619Y-54454819D01*
X50547619Y-54454819D02*
X50642857Y-54454819D01*
X50642857Y-54454819D02*
X50785714Y-54502438D01*
X50785714Y-54502438D02*
X50833333Y-54550057D01*
X51214286Y-54550057D02*
X51261905Y-54502438D01*
X51261905Y-54502438D02*
X51357143Y-54454819D01*
X51357143Y-54454819D02*
X51595238Y-54454819D01*
X51595238Y-54454819D02*
X51690476Y-54502438D01*
X51690476Y-54502438D02*
X51738095Y-54550057D01*
X51738095Y-54550057D02*
X51785714Y-54645295D01*
X51785714Y-54645295D02*
X51785714Y-54740533D01*
X51785714Y-54740533D02*
X51738095Y-54883390D01*
X51738095Y-54883390D02*
X51166667Y-55454819D01*
X51166667Y-55454819D02*
X51785714Y-55454819D01*
X89916666Y-81904819D02*
X89916666Y-82619104D01*
X89916666Y-82619104D02*
X89869047Y-82761961D01*
X89869047Y-82761961D02*
X89773809Y-82857200D01*
X89773809Y-82857200D02*
X89630952Y-82904819D01*
X89630952Y-82904819D02*
X89535714Y-82904819D01*
X90869047Y-81904819D02*
X90392857Y-81904819D01*
X90392857Y-81904819D02*
X90345238Y-82381009D01*
X90345238Y-82381009D02*
X90392857Y-82333390D01*
X90392857Y-82333390D02*
X90488095Y-82285771D01*
X90488095Y-82285771D02*
X90726190Y-82285771D01*
X90726190Y-82285771D02*
X90821428Y-82333390D01*
X90821428Y-82333390D02*
X90869047Y-82381009D01*
X90869047Y-82381009D02*
X90916666Y-82476247D01*
X90916666Y-82476247D02*
X90916666Y-82714342D01*
X90916666Y-82714342D02*
X90869047Y-82809580D01*
X90869047Y-82809580D02*
X90821428Y-82857200D01*
X90821428Y-82857200D02*
X90726190Y-82904819D01*
X90726190Y-82904819D02*
X90488095Y-82904819D01*
X90488095Y-82904819D02*
X90392857Y-82857200D01*
X90392857Y-82857200D02*
X90345238Y-82809580D01*
X78324819Y-65166666D02*
X77848628Y-65499999D01*
X78324819Y-65738094D02*
X77324819Y-65738094D01*
X77324819Y-65738094D02*
X77324819Y-65357142D01*
X77324819Y-65357142D02*
X77372438Y-65261904D01*
X77372438Y-65261904D02*
X77420057Y-65214285D01*
X77420057Y-65214285D02*
X77515295Y-65166666D01*
X77515295Y-65166666D02*
X77658152Y-65166666D01*
X77658152Y-65166666D02*
X77753390Y-65214285D01*
X77753390Y-65214285D02*
X77801009Y-65261904D01*
X77801009Y-65261904D02*
X77848628Y-65357142D01*
X77848628Y-65357142D02*
X77848628Y-65738094D01*
X77324819Y-64309523D02*
X77324819Y-64499999D01*
X77324819Y-64499999D02*
X77372438Y-64595237D01*
X77372438Y-64595237D02*
X77420057Y-64642856D01*
X77420057Y-64642856D02*
X77562914Y-64738094D01*
X77562914Y-64738094D02*
X77753390Y-64785713D01*
X77753390Y-64785713D02*
X78134342Y-64785713D01*
X78134342Y-64785713D02*
X78229580Y-64738094D01*
X78229580Y-64738094D02*
X78277200Y-64690475D01*
X78277200Y-64690475D02*
X78324819Y-64595237D01*
X78324819Y-64595237D02*
X78324819Y-64404761D01*
X78324819Y-64404761D02*
X78277200Y-64309523D01*
X78277200Y-64309523D02*
X78229580Y-64261904D01*
X78229580Y-64261904D02*
X78134342Y-64214285D01*
X78134342Y-64214285D02*
X77896247Y-64214285D01*
X77896247Y-64214285D02*
X77801009Y-64261904D01*
X77801009Y-64261904D02*
X77753390Y-64309523D01*
X77753390Y-64309523D02*
X77705771Y-64404761D01*
X77705771Y-64404761D02*
X77705771Y-64595237D01*
X77705771Y-64595237D02*
X77753390Y-64690475D01*
X77753390Y-64690475D02*
X77801009Y-64738094D01*
X77801009Y-64738094D02*
X77896247Y-64785713D01*
X70916666Y-81904819D02*
X70916666Y-82619104D01*
X70916666Y-82619104D02*
X70869047Y-82761961D01*
X70869047Y-82761961D02*
X70773809Y-82857200D01*
X70773809Y-82857200D02*
X70630952Y-82904819D01*
X70630952Y-82904819D02*
X70535714Y-82904819D01*
X71297619Y-81904819D02*
X71916666Y-81904819D01*
X71916666Y-81904819D02*
X71583333Y-82285771D01*
X71583333Y-82285771D02*
X71726190Y-82285771D01*
X71726190Y-82285771D02*
X71821428Y-82333390D01*
X71821428Y-82333390D02*
X71869047Y-82381009D01*
X71869047Y-82381009D02*
X71916666Y-82476247D01*
X71916666Y-82476247D02*
X71916666Y-82714342D01*
X71916666Y-82714342D02*
X71869047Y-82809580D01*
X71869047Y-82809580D02*
X71821428Y-82857200D01*
X71821428Y-82857200D02*
X71726190Y-82904819D01*
X71726190Y-82904819D02*
X71440476Y-82904819D01*
X71440476Y-82904819D02*
X71345238Y-82857200D01*
X71345238Y-82857200D02*
X71297619Y-82809580D01*
X86954819Y-65166666D02*
X86478628Y-65499999D01*
X86954819Y-65738094D02*
X85954819Y-65738094D01*
X85954819Y-65738094D02*
X85954819Y-65357142D01*
X85954819Y-65357142D02*
X86002438Y-65261904D01*
X86002438Y-65261904D02*
X86050057Y-65214285D01*
X86050057Y-65214285D02*
X86145295Y-65166666D01*
X86145295Y-65166666D02*
X86288152Y-65166666D01*
X86288152Y-65166666D02*
X86383390Y-65214285D01*
X86383390Y-65214285D02*
X86431009Y-65261904D01*
X86431009Y-65261904D02*
X86478628Y-65357142D01*
X86478628Y-65357142D02*
X86478628Y-65738094D01*
X86383390Y-64595237D02*
X86335771Y-64690475D01*
X86335771Y-64690475D02*
X86288152Y-64738094D01*
X86288152Y-64738094D02*
X86192914Y-64785713D01*
X86192914Y-64785713D02*
X86145295Y-64785713D01*
X86145295Y-64785713D02*
X86050057Y-64738094D01*
X86050057Y-64738094D02*
X86002438Y-64690475D01*
X86002438Y-64690475D02*
X85954819Y-64595237D01*
X85954819Y-64595237D02*
X85954819Y-64404761D01*
X85954819Y-64404761D02*
X86002438Y-64309523D01*
X86002438Y-64309523D02*
X86050057Y-64261904D01*
X86050057Y-64261904D02*
X86145295Y-64214285D01*
X86145295Y-64214285D02*
X86192914Y-64214285D01*
X86192914Y-64214285D02*
X86288152Y-64261904D01*
X86288152Y-64261904D02*
X86335771Y-64309523D01*
X86335771Y-64309523D02*
X86383390Y-64404761D01*
X86383390Y-64404761D02*
X86383390Y-64595237D01*
X86383390Y-64595237D02*
X86431009Y-64690475D01*
X86431009Y-64690475D02*
X86478628Y-64738094D01*
X86478628Y-64738094D02*
X86573866Y-64785713D01*
X86573866Y-64785713D02*
X86764342Y-64785713D01*
X86764342Y-64785713D02*
X86859580Y-64738094D01*
X86859580Y-64738094D02*
X86907200Y-64690475D01*
X86907200Y-64690475D02*
X86954819Y-64595237D01*
X86954819Y-64595237D02*
X86954819Y-64404761D01*
X86954819Y-64404761D02*
X86907200Y-64309523D01*
X86907200Y-64309523D02*
X86859580Y-64261904D01*
X86859580Y-64261904D02*
X86764342Y-64214285D01*
X86764342Y-64214285D02*
X86573866Y-64214285D01*
X86573866Y-64214285D02*
X86478628Y-64261904D01*
X86478628Y-64261904D02*
X86431009Y-64309523D01*
X86431009Y-64309523D02*
X86383390Y-64404761D01*
X82954819Y-62166666D02*
X82478628Y-62499999D01*
X82954819Y-62738094D02*
X81954819Y-62738094D01*
X81954819Y-62738094D02*
X81954819Y-62357142D01*
X81954819Y-62357142D02*
X82002438Y-62261904D01*
X82002438Y-62261904D02*
X82050057Y-62214285D01*
X82050057Y-62214285D02*
X82145295Y-62166666D01*
X82145295Y-62166666D02*
X82288152Y-62166666D01*
X82288152Y-62166666D02*
X82383390Y-62214285D01*
X82383390Y-62214285D02*
X82431009Y-62261904D01*
X82431009Y-62261904D02*
X82478628Y-62357142D01*
X82478628Y-62357142D02*
X82478628Y-62738094D01*
X81954819Y-61833332D02*
X81954819Y-61166666D01*
X81954819Y-61166666D02*
X82954819Y-61595237D01*
X62867319Y-65216666D02*
X62391128Y-65549999D01*
X62867319Y-65788094D02*
X61867319Y-65788094D01*
X61867319Y-65788094D02*
X61867319Y-65407142D01*
X61867319Y-65407142D02*
X61914938Y-65311904D01*
X61914938Y-65311904D02*
X61962557Y-65264285D01*
X61962557Y-65264285D02*
X62057795Y-65216666D01*
X62057795Y-65216666D02*
X62200652Y-65216666D01*
X62200652Y-65216666D02*
X62295890Y-65264285D01*
X62295890Y-65264285D02*
X62343509Y-65311904D01*
X62343509Y-65311904D02*
X62391128Y-65407142D01*
X62391128Y-65407142D02*
X62391128Y-65788094D01*
X62200652Y-64359523D02*
X62867319Y-64359523D01*
X61819700Y-64597618D02*
X62533985Y-64835713D01*
X62533985Y-64835713D02*
X62533985Y-64216666D01*
X80416666Y-73904819D02*
X80416666Y-74619104D01*
X80416666Y-74619104D02*
X80369047Y-74761961D01*
X80369047Y-74761961D02*
X80273809Y-74857200D01*
X80273809Y-74857200D02*
X80130952Y-74904819D01*
X80130952Y-74904819D02*
X80035714Y-74904819D01*
X81035714Y-74333390D02*
X80940476Y-74285771D01*
X80940476Y-74285771D02*
X80892857Y-74238152D01*
X80892857Y-74238152D02*
X80845238Y-74142914D01*
X80845238Y-74142914D02*
X80845238Y-74095295D01*
X80845238Y-74095295D02*
X80892857Y-74000057D01*
X80892857Y-74000057D02*
X80940476Y-73952438D01*
X80940476Y-73952438D02*
X81035714Y-73904819D01*
X81035714Y-73904819D02*
X81226190Y-73904819D01*
X81226190Y-73904819D02*
X81321428Y-73952438D01*
X81321428Y-73952438D02*
X81369047Y-74000057D01*
X81369047Y-74000057D02*
X81416666Y-74095295D01*
X81416666Y-74095295D02*
X81416666Y-74142914D01*
X81416666Y-74142914D02*
X81369047Y-74238152D01*
X81369047Y-74238152D02*
X81321428Y-74285771D01*
X81321428Y-74285771D02*
X81226190Y-74333390D01*
X81226190Y-74333390D02*
X81035714Y-74333390D01*
X81035714Y-74333390D02*
X80940476Y-74381009D01*
X80940476Y-74381009D02*
X80892857Y-74428628D01*
X80892857Y-74428628D02*
X80845238Y-74523866D01*
X80845238Y-74523866D02*
X80845238Y-74714342D01*
X80845238Y-74714342D02*
X80892857Y-74809580D01*
X80892857Y-74809580D02*
X80940476Y-74857200D01*
X80940476Y-74857200D02*
X81035714Y-74904819D01*
X81035714Y-74904819D02*
X81226190Y-74904819D01*
X81226190Y-74904819D02*
X81321428Y-74857200D01*
X81321428Y-74857200D02*
X81369047Y-74809580D01*
X81369047Y-74809580D02*
X81416666Y-74714342D01*
X81416666Y-74714342D02*
X81416666Y-74523866D01*
X81416666Y-74523866D02*
X81369047Y-74428628D01*
X81369047Y-74428628D02*
X81321428Y-74381009D01*
X81321428Y-74381009D02*
X81226190Y-74333390D01*
X46789160Y-60949104D02*
X47265350Y-60949104D01*
X46693922Y-61234819D02*
X47027255Y-60234819D01*
X47027255Y-60234819D02*
X47360588Y-61234819D01*
X48217731Y-61234819D02*
X47646303Y-61234819D01*
X47932017Y-61234819D02*
X47932017Y-60234819D01*
X47932017Y-60234819D02*
X47836779Y-60377676D01*
X47836779Y-60377676D02*
X47741541Y-60472914D01*
X47741541Y-60472914D02*
X47646303Y-60520533D01*
X75273333Y-64804819D02*
X74940000Y-64328628D01*
X74701905Y-64804819D02*
X74701905Y-63804819D01*
X74701905Y-63804819D02*
X75082857Y-63804819D01*
X75082857Y-63804819D02*
X75178095Y-63852438D01*
X75178095Y-63852438D02*
X75225714Y-63900057D01*
X75225714Y-63900057D02*
X75273333Y-63995295D01*
X75273333Y-63995295D02*
X75273333Y-64138152D01*
X75273333Y-64138152D02*
X75225714Y-64233390D01*
X75225714Y-64233390D02*
X75178095Y-64281009D01*
X75178095Y-64281009D02*
X75082857Y-64328628D01*
X75082857Y-64328628D02*
X74701905Y-64328628D01*
X76178095Y-63804819D02*
X75701905Y-63804819D01*
X75701905Y-63804819D02*
X75654286Y-64281009D01*
X75654286Y-64281009D02*
X75701905Y-64233390D01*
X75701905Y-64233390D02*
X75797143Y-64185771D01*
X75797143Y-64185771D02*
X76035238Y-64185771D01*
X76035238Y-64185771D02*
X76130476Y-64233390D01*
X76130476Y-64233390D02*
X76178095Y-64281009D01*
X76178095Y-64281009D02*
X76225714Y-64376247D01*
X76225714Y-64376247D02*
X76225714Y-64614342D01*
X76225714Y-64614342D02*
X76178095Y-64709580D01*
X76178095Y-64709580D02*
X76130476Y-64757200D01*
X76130476Y-64757200D02*
X76035238Y-64804819D01*
X76035238Y-64804819D02*
X75797143Y-64804819D01*
X75797143Y-64804819D02*
X75701905Y-64757200D01*
X75701905Y-64757200D02*
X75654286Y-64709580D01*
X79333333Y-59679580D02*
X79285714Y-59727200D01*
X79285714Y-59727200D02*
X79142857Y-59774819D01*
X79142857Y-59774819D02*
X79047619Y-59774819D01*
X79047619Y-59774819D02*
X78904762Y-59727200D01*
X78904762Y-59727200D02*
X78809524Y-59631961D01*
X78809524Y-59631961D02*
X78761905Y-59536723D01*
X78761905Y-59536723D02*
X78714286Y-59346247D01*
X78714286Y-59346247D02*
X78714286Y-59203390D01*
X78714286Y-59203390D02*
X78761905Y-59012914D01*
X78761905Y-59012914D02*
X78809524Y-58917676D01*
X78809524Y-58917676D02*
X78904762Y-58822438D01*
X78904762Y-58822438D02*
X79047619Y-58774819D01*
X79047619Y-58774819D02*
X79142857Y-58774819D01*
X79142857Y-58774819D02*
X79285714Y-58822438D01*
X79285714Y-58822438D02*
X79333333Y-58870057D01*
X80285714Y-59774819D02*
X79714286Y-59774819D01*
X80000000Y-59774819D02*
X80000000Y-58774819D01*
X80000000Y-58774819D02*
X79904762Y-58917676D01*
X79904762Y-58917676D02*
X79809524Y-59012914D01*
X79809524Y-59012914D02*
X79714286Y-59060533D01*
X68333333Y-61274819D02*
X68000000Y-60798628D01*
X67761905Y-61274819D02*
X67761905Y-60274819D01*
X67761905Y-60274819D02*
X68142857Y-60274819D01*
X68142857Y-60274819D02*
X68238095Y-60322438D01*
X68238095Y-60322438D02*
X68285714Y-60370057D01*
X68285714Y-60370057D02*
X68333333Y-60465295D01*
X68333333Y-60465295D02*
X68333333Y-60608152D01*
X68333333Y-60608152D02*
X68285714Y-60703390D01*
X68285714Y-60703390D02*
X68238095Y-60751009D01*
X68238095Y-60751009D02*
X68142857Y-60798628D01*
X68142857Y-60798628D02*
X67761905Y-60798628D01*
X68809524Y-61274819D02*
X69000000Y-61274819D01*
X69000000Y-61274819D02*
X69095238Y-61227200D01*
X69095238Y-61227200D02*
X69142857Y-61179580D01*
X69142857Y-61179580D02*
X69238095Y-61036723D01*
X69238095Y-61036723D02*
X69285714Y-60846247D01*
X69285714Y-60846247D02*
X69285714Y-60465295D01*
X69285714Y-60465295D02*
X69238095Y-60370057D01*
X69238095Y-60370057D02*
X69190476Y-60322438D01*
X69190476Y-60322438D02*
X69095238Y-60274819D01*
X69095238Y-60274819D02*
X68904762Y-60274819D01*
X68904762Y-60274819D02*
X68809524Y-60322438D01*
X68809524Y-60322438D02*
X68761905Y-60370057D01*
X68761905Y-60370057D02*
X68714286Y-60465295D01*
X68714286Y-60465295D02*
X68714286Y-60703390D01*
X68714286Y-60703390D02*
X68761905Y-60798628D01*
X68761905Y-60798628D02*
X68809524Y-60846247D01*
X68809524Y-60846247D02*
X68904762Y-60893866D01*
X68904762Y-60893866D02*
X69095238Y-60893866D01*
X69095238Y-60893866D02*
X69190476Y-60846247D01*
X69190476Y-60846247D02*
X69238095Y-60798628D01*
X69238095Y-60798628D02*
X69285714Y-60703390D01*
X54867319Y-65216666D02*
X54391128Y-65549999D01*
X54867319Y-65788094D02*
X53867319Y-65788094D01*
X53867319Y-65788094D02*
X53867319Y-65407142D01*
X53867319Y-65407142D02*
X53914938Y-65311904D01*
X53914938Y-65311904D02*
X53962557Y-65264285D01*
X53962557Y-65264285D02*
X54057795Y-65216666D01*
X54057795Y-65216666D02*
X54200652Y-65216666D01*
X54200652Y-65216666D02*
X54295890Y-65264285D01*
X54295890Y-65264285D02*
X54343509Y-65311904D01*
X54343509Y-65311904D02*
X54391128Y-65407142D01*
X54391128Y-65407142D02*
X54391128Y-65788094D01*
X53962557Y-64835713D02*
X53914938Y-64788094D01*
X53914938Y-64788094D02*
X53867319Y-64692856D01*
X53867319Y-64692856D02*
X53867319Y-64454761D01*
X53867319Y-64454761D02*
X53914938Y-64359523D01*
X53914938Y-64359523D02*
X53962557Y-64311904D01*
X53962557Y-64311904D02*
X54057795Y-64264285D01*
X54057795Y-64264285D02*
X54153033Y-64264285D01*
X54153033Y-64264285D02*
X54295890Y-64311904D01*
X54295890Y-64311904D02*
X54867319Y-64883332D01*
X54867319Y-64883332D02*
X54867319Y-64264285D01*
X70916666Y-73904819D02*
X70916666Y-74619104D01*
X70916666Y-74619104D02*
X70869047Y-74761961D01*
X70869047Y-74761961D02*
X70773809Y-74857200D01*
X70773809Y-74857200D02*
X70630952Y-74904819D01*
X70630952Y-74904819D02*
X70535714Y-74904819D01*
X71297619Y-73904819D02*
X71964285Y-73904819D01*
X71964285Y-73904819D02*
X71535714Y-74904819D01*
X73738095Y-57454819D02*
X73738095Y-58264342D01*
X73738095Y-58264342D02*
X73785714Y-58359580D01*
X73785714Y-58359580D02*
X73833333Y-58407200D01*
X73833333Y-58407200D02*
X73928571Y-58454819D01*
X73928571Y-58454819D02*
X74119047Y-58454819D01*
X74119047Y-58454819D02*
X74214285Y-58407200D01*
X74214285Y-58407200D02*
X74261904Y-58359580D01*
X74261904Y-58359580D02*
X74309523Y-58264342D01*
X74309523Y-58264342D02*
X74309523Y-57454819D01*
X75309523Y-58454819D02*
X74738095Y-58454819D01*
X75023809Y-58454819D02*
X75023809Y-57454819D01*
X75023809Y-57454819D02*
X74928571Y-57597676D01*
X74928571Y-57597676D02*
X74833333Y-57692914D01*
X74833333Y-57692914D02*
X74738095Y-57740533D01*
X62529761Y-58600057D02*
X62434523Y-58552438D01*
X62434523Y-58552438D02*
X62339285Y-58457200D01*
X62339285Y-58457200D02*
X62196428Y-58314342D01*
X62196428Y-58314342D02*
X62101190Y-58266723D01*
X62101190Y-58266723D02*
X62005952Y-58266723D01*
X62053571Y-58504819D02*
X61958333Y-58457200D01*
X61958333Y-58457200D02*
X61863095Y-58361961D01*
X61863095Y-58361961D02*
X61815476Y-58171485D01*
X61815476Y-58171485D02*
X61815476Y-57838152D01*
X61815476Y-57838152D02*
X61863095Y-57647676D01*
X61863095Y-57647676D02*
X61958333Y-57552438D01*
X61958333Y-57552438D02*
X62053571Y-57504819D01*
X62053571Y-57504819D02*
X62244047Y-57504819D01*
X62244047Y-57504819D02*
X62339285Y-57552438D01*
X62339285Y-57552438D02*
X62434523Y-57647676D01*
X62434523Y-57647676D02*
X62482142Y-57838152D01*
X62482142Y-57838152D02*
X62482142Y-58171485D01*
X62482142Y-58171485D02*
X62434523Y-58361961D01*
X62434523Y-58361961D02*
X62339285Y-58457200D01*
X62339285Y-58457200D02*
X62244047Y-58504819D01*
X62244047Y-58504819D02*
X62053571Y-58504819D01*
X63339285Y-57838152D02*
X63339285Y-58504819D01*
X63101190Y-57457200D02*
X62863095Y-58171485D01*
X62863095Y-58171485D02*
X63482142Y-58171485D01*
X61416666Y-81904819D02*
X61416666Y-82619104D01*
X61416666Y-82619104D02*
X61369047Y-82761961D01*
X61369047Y-82761961D02*
X61273809Y-82857200D01*
X61273809Y-82857200D02*
X61130952Y-82904819D01*
X61130952Y-82904819D02*
X61035714Y-82904819D01*
X61845238Y-82000057D02*
X61892857Y-81952438D01*
X61892857Y-81952438D02*
X61988095Y-81904819D01*
X61988095Y-81904819D02*
X62226190Y-81904819D01*
X62226190Y-81904819D02*
X62321428Y-81952438D01*
X62321428Y-81952438D02*
X62369047Y-82000057D01*
X62369047Y-82000057D02*
X62416666Y-82095295D01*
X62416666Y-82095295D02*
X62416666Y-82190533D01*
X62416666Y-82190533D02*
X62369047Y-82333390D01*
X62369047Y-82333390D02*
X61797619Y-82904819D01*
X61797619Y-82904819D02*
X62416666Y-82904819D01*
X68833333Y-54954819D02*
X68357143Y-54954819D01*
X68357143Y-54954819D02*
X68357143Y-53954819D01*
X69690476Y-54954819D02*
X69119048Y-54954819D01*
X69404762Y-54954819D02*
X69404762Y-53954819D01*
X69404762Y-53954819D02*
X69309524Y-54097676D01*
X69309524Y-54097676D02*
X69214286Y-54192914D01*
X69214286Y-54192914D02*
X69119048Y-54240533D01*
X58867319Y-65216666D02*
X58391128Y-65549999D01*
X58867319Y-65788094D02*
X57867319Y-65788094D01*
X57867319Y-65788094D02*
X57867319Y-65407142D01*
X57867319Y-65407142D02*
X57914938Y-65311904D01*
X57914938Y-65311904D02*
X57962557Y-65264285D01*
X57962557Y-65264285D02*
X58057795Y-65216666D01*
X58057795Y-65216666D02*
X58200652Y-65216666D01*
X58200652Y-65216666D02*
X58295890Y-65264285D01*
X58295890Y-65264285D02*
X58343509Y-65311904D01*
X58343509Y-65311904D02*
X58391128Y-65407142D01*
X58391128Y-65407142D02*
X58391128Y-65788094D01*
X57867319Y-64883332D02*
X57867319Y-64264285D01*
X57867319Y-64264285D02*
X58248271Y-64597618D01*
X58248271Y-64597618D02*
X58248271Y-64454761D01*
X58248271Y-64454761D02*
X58295890Y-64359523D01*
X58295890Y-64359523D02*
X58343509Y-64311904D01*
X58343509Y-64311904D02*
X58438747Y-64264285D01*
X58438747Y-64264285D02*
X58676842Y-64264285D01*
X58676842Y-64264285D02*
X58772080Y-64311904D01*
X58772080Y-64311904D02*
X58819700Y-64359523D01*
X58819700Y-64359523D02*
X58867319Y-64454761D01*
X58867319Y-64454761D02*
X58867319Y-64740475D01*
X58867319Y-64740475D02*
X58819700Y-64835713D01*
X58819700Y-64835713D02*
X58772080Y-64883332D01*
D12*
%TO.C,R10*%
X68727064Y-65265000D02*
X68272936Y-65265000D01*
X68727064Y-66735000D02*
X68272936Y-66735000D01*
%TO.C,Q1*%
X51125000Y-58990000D02*
X50475000Y-58990000D01*
X51125000Y-58990000D02*
X51775000Y-58990000D01*
X51125000Y-62110000D02*
X50475000Y-62110000D01*
X51125000Y-62110000D02*
X51775000Y-62110000D01*
X52527500Y-62390000D02*
X52047500Y-62390000D01*
X52287500Y-62060000D01*
X52527500Y-62390000D01*
G36*
X52527500Y-62390000D02*
G01*
X52047500Y-62390000D01*
X52287500Y-62060000D01*
X52527500Y-62390000D01*
G37*
%TO.C,J4*%
X76650000Y-83250000D02*
X76650000Y-84500000D01*
X76940000Y-83540000D02*
X76940000Y-89510000D01*
X76940000Y-89510000D02*
X84560000Y-89510000D01*
X76950000Y-83550000D02*
X76950000Y-84300000D01*
X76950000Y-84300000D02*
X78750000Y-84300000D01*
X76950000Y-85800000D02*
X77700000Y-85800000D01*
X77700000Y-85800000D02*
X77700000Y-88750000D01*
X77700000Y-88750000D02*
X80750000Y-88750000D01*
X77900000Y-83250000D02*
X76650000Y-83250000D01*
X78750000Y-83550000D02*
X76950000Y-83550000D01*
X78750000Y-84300000D02*
X78750000Y-83550000D01*
X80250000Y-83550000D02*
X80250000Y-84300000D01*
X80250000Y-84300000D02*
X81250000Y-84300000D01*
X81250000Y-83550000D02*
X80250000Y-83550000D01*
X81250000Y-84300000D02*
X81250000Y-83550000D01*
X82750000Y-83550000D02*
X82750000Y-84300000D01*
X82750000Y-84300000D02*
X84550000Y-84300000D01*
X83800000Y-85800000D02*
X83800000Y-88750000D01*
X83800000Y-88750000D02*
X80750000Y-88750000D01*
X84550000Y-83550000D02*
X82750000Y-83550000D01*
X84550000Y-84300000D02*
X84550000Y-83550000D01*
X84550000Y-85800000D02*
X83800000Y-85800000D01*
X84560000Y-83540000D02*
X76940000Y-83540000D01*
X84560000Y-89510000D02*
X84560000Y-83540000D01*
%TO.C,J1*%
X41200000Y-73400000D02*
X55900000Y-73400000D01*
X41200000Y-82600000D02*
X41200000Y-73400000D01*
X50000000Y-82600000D02*
X41200000Y-82600000D01*
X55050000Y-73200000D02*
X56100000Y-73200000D01*
X55900000Y-73400000D02*
X55900000Y-76000000D01*
X55900000Y-79900000D02*
X55900000Y-82600000D01*
X55900000Y-82600000D02*
X54000000Y-82600000D01*
X56100000Y-74250000D02*
X56100000Y-73200000D01*
%TO.C,R1*%
X51327500Y-65277064D02*
X51327500Y-64822936D01*
X52797500Y-65277064D02*
X52797500Y-64822936D01*
%TO.C,J9*%
X86150000Y-75250000D02*
X86150000Y-76500000D01*
X86440000Y-75540000D02*
X86440000Y-81510000D01*
X86440000Y-81510000D02*
X94060000Y-81510000D01*
X86450000Y-75550000D02*
X86450000Y-76300000D01*
X86450000Y-76300000D02*
X88250000Y-76300000D01*
X86450000Y-77800000D02*
X87200000Y-77800000D01*
X87200000Y-77800000D02*
X87200000Y-80750000D01*
X87200000Y-80750000D02*
X90250000Y-80750000D01*
X87400000Y-75250000D02*
X86150000Y-75250000D01*
X88250000Y-75550000D02*
X86450000Y-75550000D01*
X88250000Y-76300000D02*
X88250000Y-75550000D01*
X89750000Y-75550000D02*
X89750000Y-76300000D01*
X89750000Y-76300000D02*
X90750000Y-76300000D01*
X90750000Y-75550000D02*
X89750000Y-75550000D01*
X90750000Y-76300000D02*
X90750000Y-75550000D01*
X92250000Y-75550000D02*
X92250000Y-76300000D01*
X92250000Y-76300000D02*
X94050000Y-76300000D01*
X93300000Y-77800000D02*
X93300000Y-80750000D01*
X93300000Y-80750000D02*
X90250000Y-80750000D01*
X94050000Y-75550000D02*
X92250000Y-75550000D01*
X94050000Y-76300000D02*
X94050000Y-75550000D01*
X94050000Y-77800000D02*
X93300000Y-77800000D01*
X94060000Y-75540000D02*
X86440000Y-75540000D01*
X94060000Y-81510000D02*
X94060000Y-75540000D01*
%TO.C,J6*%
X57650000Y-75250000D02*
X57650000Y-76500000D01*
X57940000Y-75540000D02*
X57940000Y-81510000D01*
X57940000Y-81510000D02*
X65560000Y-81510000D01*
X57950000Y-75550000D02*
X57950000Y-76300000D01*
X57950000Y-76300000D02*
X59750000Y-76300000D01*
X57950000Y-77800000D02*
X58700000Y-77800000D01*
X58700000Y-77800000D02*
X58700000Y-80750000D01*
X58700000Y-80750000D02*
X61750000Y-80750000D01*
X58900000Y-75250000D02*
X57650000Y-75250000D01*
X59750000Y-75550000D02*
X57950000Y-75550000D01*
X59750000Y-76300000D02*
X59750000Y-75550000D01*
X61250000Y-75550000D02*
X61250000Y-76300000D01*
X61250000Y-76300000D02*
X62250000Y-76300000D01*
X62250000Y-75550000D02*
X61250000Y-75550000D01*
X62250000Y-76300000D02*
X62250000Y-75550000D01*
X63750000Y-75550000D02*
X63750000Y-76300000D01*
X63750000Y-76300000D02*
X65550000Y-76300000D01*
X64800000Y-77800000D02*
X64800000Y-80750000D01*
X64800000Y-80750000D02*
X61750000Y-80750000D01*
X65550000Y-75550000D02*
X63750000Y-75550000D01*
X65550000Y-76300000D02*
X65550000Y-75550000D01*
X65550000Y-77800000D02*
X64800000Y-77800000D01*
X65560000Y-75540000D02*
X57940000Y-75540000D01*
X65560000Y-81510000D02*
X65560000Y-75540000D01*
%TO.C,Q3*%
X59125000Y-58990000D02*
X58475000Y-58990000D01*
X59125000Y-58990000D02*
X59775000Y-58990000D01*
X59125000Y-62110000D02*
X58475000Y-62110000D01*
X59125000Y-62110000D02*
X59775000Y-62110000D01*
X60527500Y-62390000D02*
X60047500Y-62390000D01*
X60287500Y-62060000D01*
X60527500Y-62390000D01*
G36*
X60527500Y-62390000D02*
G01*
X60047500Y-62390000D01*
X60287500Y-62060000D01*
X60527500Y-62390000D01*
G37*
%TO.C,Q2*%
X55125000Y-58990000D02*
X54475000Y-58990000D01*
X55125000Y-58990000D02*
X55775000Y-58990000D01*
X55125000Y-62110000D02*
X54475000Y-62110000D01*
X55125000Y-62110000D02*
X55775000Y-62110000D01*
X56527500Y-62390000D02*
X56047500Y-62390000D01*
X56287500Y-62060000D01*
X56527500Y-62390000D01*
G36*
X56527500Y-62390000D02*
G01*
X56047500Y-62390000D01*
X56287500Y-62060000D01*
X56527500Y-62390000D01*
G37*
%TO.C,C3*%
X73738748Y-55265000D02*
X74261252Y-55265000D01*
X73738748Y-56735000D02*
X74261252Y-56735000D01*
%TO.C,C2*%
X54261252Y-54265000D02*
X53738748Y-54265000D01*
X54261252Y-55735000D02*
X53738748Y-55735000D01*
%TO.C,J5*%
X86150000Y-83250000D02*
X86150000Y-84500000D01*
X86440000Y-83540000D02*
X86440000Y-89510000D01*
X86440000Y-89510000D02*
X94060000Y-89510000D01*
X86450000Y-83550000D02*
X86450000Y-84300000D01*
X86450000Y-84300000D02*
X88250000Y-84300000D01*
X86450000Y-85800000D02*
X87200000Y-85800000D01*
X87200000Y-85800000D02*
X87200000Y-88750000D01*
X87200000Y-88750000D02*
X90250000Y-88750000D01*
X87400000Y-83250000D02*
X86150000Y-83250000D01*
X88250000Y-83550000D02*
X86450000Y-83550000D01*
X88250000Y-84300000D02*
X88250000Y-83550000D01*
X89750000Y-83550000D02*
X89750000Y-84300000D01*
X89750000Y-84300000D02*
X90750000Y-84300000D01*
X90750000Y-83550000D02*
X89750000Y-83550000D01*
X90750000Y-84300000D02*
X90750000Y-83550000D01*
X92250000Y-83550000D02*
X92250000Y-84300000D01*
X92250000Y-84300000D02*
X94050000Y-84300000D01*
X93300000Y-85800000D02*
X93300000Y-88750000D01*
X93300000Y-88750000D02*
X90250000Y-88750000D01*
X94050000Y-83550000D02*
X92250000Y-83550000D01*
X94050000Y-84300000D02*
X94050000Y-83550000D01*
X94050000Y-85800000D02*
X93300000Y-85800000D01*
X94060000Y-83540000D02*
X86440000Y-83540000D01*
X94060000Y-89510000D02*
X94060000Y-83540000D01*
%TO.C,R6*%
X78785000Y-65227064D02*
X78785000Y-64772936D01*
X80255000Y-65227064D02*
X80255000Y-64772936D01*
%TO.C,J3*%
X67150000Y-83250000D02*
X67150000Y-84500000D01*
X67440000Y-83540000D02*
X67440000Y-89510000D01*
X67440000Y-89510000D02*
X75060000Y-89510000D01*
X67450000Y-83550000D02*
X67450000Y-84300000D01*
X67450000Y-84300000D02*
X69250000Y-84300000D01*
X67450000Y-85800000D02*
X68200000Y-85800000D01*
X68200000Y-85800000D02*
X68200000Y-88750000D01*
X68200000Y-88750000D02*
X71250000Y-88750000D01*
X68400000Y-83250000D02*
X67150000Y-83250000D01*
X69250000Y-83550000D02*
X67450000Y-83550000D01*
X69250000Y-84300000D02*
X69250000Y-83550000D01*
X70750000Y-83550000D02*
X70750000Y-84300000D01*
X70750000Y-84300000D02*
X71750000Y-84300000D01*
X71750000Y-83550000D02*
X70750000Y-83550000D01*
X71750000Y-84300000D02*
X71750000Y-83550000D01*
X73250000Y-83550000D02*
X73250000Y-84300000D01*
X73250000Y-84300000D02*
X75050000Y-84300000D01*
X74300000Y-85800000D02*
X74300000Y-88750000D01*
X74300000Y-88750000D02*
X71250000Y-88750000D01*
X75050000Y-83550000D02*
X73250000Y-83550000D01*
X75050000Y-84300000D02*
X75050000Y-83550000D01*
X75050000Y-85800000D02*
X74300000Y-85800000D01*
X75060000Y-83540000D02*
X67440000Y-83540000D01*
X75060000Y-89510000D02*
X75060000Y-83540000D01*
%TO.C,R8*%
X83865000Y-65227064D02*
X83865000Y-64772936D01*
X85335000Y-65227064D02*
X85335000Y-64772936D01*
%TO.C,R7*%
X81325000Y-65227064D02*
X81325000Y-64772936D01*
X82795000Y-65227064D02*
X82795000Y-64772936D01*
%TO.C,R4*%
X63327500Y-65277064D02*
X63327500Y-64822936D01*
X64797500Y-65277064D02*
X64797500Y-64822936D01*
%TO.C,J8*%
X76650000Y-75250000D02*
X76650000Y-76500000D01*
X76940000Y-75540000D02*
X76940000Y-81510000D01*
X76940000Y-81510000D02*
X84560000Y-81510000D01*
X76950000Y-75550000D02*
X76950000Y-76300000D01*
X76950000Y-76300000D02*
X78750000Y-76300000D01*
X76950000Y-77800000D02*
X77700000Y-77800000D01*
X77700000Y-77800000D02*
X77700000Y-80750000D01*
X77700000Y-80750000D02*
X80750000Y-80750000D01*
X77900000Y-75250000D02*
X76650000Y-75250000D01*
X78750000Y-75550000D02*
X76950000Y-75550000D01*
X78750000Y-76300000D02*
X78750000Y-75550000D01*
X80250000Y-75550000D02*
X80250000Y-76300000D01*
X80250000Y-76300000D02*
X81250000Y-76300000D01*
X81250000Y-75550000D02*
X80250000Y-75550000D01*
X81250000Y-76300000D02*
X81250000Y-75550000D01*
X82750000Y-75550000D02*
X82750000Y-76300000D01*
X82750000Y-76300000D02*
X84550000Y-76300000D01*
X83800000Y-77800000D02*
X83800000Y-80750000D01*
X83800000Y-80750000D02*
X80750000Y-80750000D01*
X84550000Y-75550000D02*
X82750000Y-75550000D01*
X84550000Y-76300000D02*
X84550000Y-75550000D01*
X84550000Y-77800000D02*
X83800000Y-77800000D01*
X84560000Y-75540000D02*
X76940000Y-75540000D01*
X84560000Y-81510000D02*
X84560000Y-75540000D01*
%TO.C,A1*%
X43720000Y-56780000D02*
X44540000Y-56780000D01*
X43720000Y-65000000D02*
X43720000Y-56780000D01*
X43720000Y-65000000D02*
X44540000Y-65000000D01*
X44540000Y-56780000D02*
X44540000Y-56990000D01*
X44540000Y-56990000D02*
X45936000Y-56990000D01*
X44540000Y-64790000D02*
X45936000Y-64790000D01*
X44540000Y-65000000D02*
X44540000Y-64790000D01*
X45020000Y-50890000D02*
X45020000Y-53380000D01*
X45020000Y-53380000D02*
X45933520Y-53380000D01*
X45020000Y-54727939D02*
X45020000Y-53380000D01*
X45020000Y-56655000D02*
X45020000Y-55652061D01*
X45020000Y-65125000D02*
X45020000Y-56655000D01*
X45020000Y-66127939D02*
X45020000Y-65125000D01*
X45020000Y-68400000D02*
X45020000Y-67052060D01*
X45020000Y-68400000D02*
X45933520Y-68400000D01*
X45020000Y-70890000D02*
X45020000Y-68400000D01*
X45083000Y-71160000D02*
X96177000Y-71160000D01*
X45630000Y-50280000D02*
X95630000Y-50280000D01*
X45630000Y-71500000D02*
X95630000Y-71500000D01*
X47300000Y-71820000D02*
X45700000Y-71820000D01*
X48324000Y-56990000D02*
X49540000Y-56990000D01*
X48324000Y-64790000D02*
X49540000Y-64790000D01*
X48326480Y-53380000D02*
X92933520Y-53380000D01*
X48326480Y-68400000D02*
X92933520Y-68400000D01*
X49540000Y-56990000D02*
X49540000Y-64790000D01*
X95326480Y-53380000D02*
X96240000Y-53380000D01*
X95326480Y-68400000D02*
X96240000Y-68400000D01*
X96177000Y-50620000D02*
X45083000Y-50620000D01*
X96240000Y-54727939D02*
X96240000Y-50890000D01*
X96240000Y-55652061D02*
X96240000Y-57290000D01*
X96240000Y-57290000D02*
X96240000Y-64490000D01*
X96240000Y-64490000D02*
X96240000Y-66127939D01*
X96240000Y-70890000D02*
X96240000Y-67052061D01*
X45020000Y-50890000D02*
G75*
G02*
X45630000Y-50280000I610000J0D01*
G01*
X45630000Y-71500000D02*
G75*
G02*
X45020000Y-70890000I0J610000D01*
G01*
X95630000Y-50280000D02*
G75*
G02*
X96240000Y-50890000I0J-610000D01*
G01*
X96240000Y-70890000D02*
G75*
G02*
X95630000Y-71500000I-609901J-99D01*
G01*
%TO.C,R5*%
X75212936Y-65265000D02*
X75667064Y-65265000D01*
X75212936Y-66735000D02*
X75667064Y-66735000D01*
%TO.C,C1*%
X79238748Y-60265000D02*
X79761252Y-60265000D01*
X79238748Y-61735000D02*
X79761252Y-61735000D01*
%TO.C,R9*%
X68727064Y-61765000D02*
X68272936Y-61765000D01*
X68727064Y-63235000D02*
X68272936Y-63235000D01*
%TO.C,R2*%
X55327500Y-65277064D02*
X55327500Y-64822936D01*
X56797500Y-65277064D02*
X56797500Y-64822936D01*
%TO.C,J7*%
X67150000Y-75250000D02*
X67150000Y-76500000D01*
X67440000Y-75540000D02*
X67440000Y-81510000D01*
X67440000Y-81510000D02*
X75060000Y-81510000D01*
X67450000Y-75550000D02*
X67450000Y-76300000D01*
X67450000Y-76300000D02*
X69250000Y-76300000D01*
X67450000Y-77800000D02*
X68200000Y-77800000D01*
X68200000Y-77800000D02*
X68200000Y-80750000D01*
X68200000Y-80750000D02*
X71250000Y-80750000D01*
X68400000Y-75250000D02*
X67150000Y-75250000D01*
X69250000Y-75550000D02*
X67450000Y-75550000D01*
X69250000Y-76300000D02*
X69250000Y-75550000D01*
X70750000Y-75550000D02*
X70750000Y-76300000D01*
X70750000Y-76300000D02*
X71750000Y-76300000D01*
X71750000Y-75550000D02*
X70750000Y-75550000D01*
X71750000Y-76300000D02*
X71750000Y-75550000D01*
X73250000Y-75550000D02*
X73250000Y-76300000D01*
X73250000Y-76300000D02*
X75050000Y-76300000D01*
X74300000Y-77800000D02*
X74300000Y-80750000D01*
X74300000Y-80750000D02*
X71250000Y-80750000D01*
X75050000Y-75550000D02*
X73250000Y-75550000D01*
X75050000Y-76300000D02*
X75050000Y-75550000D01*
X75050000Y-77800000D02*
X74300000Y-77800000D01*
X75060000Y-75540000D02*
X67440000Y-75540000D01*
X75060000Y-81510000D02*
X75060000Y-75540000D01*
%TO.C,U1*%
X73600000Y-62110000D02*
X75400000Y-62110000D01*
X74600000Y-58890000D02*
X73800000Y-58890000D01*
X74600000Y-58890000D02*
X75400000Y-58890000D01*
X73300000Y-58940000D02*
X73060000Y-58610000D01*
X73540000Y-58610000D01*
X73300000Y-58940000D01*
G36*
X73300000Y-58940000D02*
G01*
X73060000Y-58610000D01*
X73540000Y-58610000D01*
X73300000Y-58940000D01*
G37*
%TO.C,Q4*%
X63125000Y-58990000D02*
X62475000Y-58990000D01*
X63125000Y-58990000D02*
X63775000Y-58990000D01*
X63125000Y-62110000D02*
X62475000Y-62110000D01*
X63125000Y-62110000D02*
X63775000Y-62110000D01*
X64527500Y-62390000D02*
X64047500Y-62390000D01*
X64287500Y-62060000D01*
X64527500Y-62390000D01*
G36*
X64527500Y-62390000D02*
G01*
X64047500Y-62390000D01*
X64287500Y-62060000D01*
X64527500Y-62390000D01*
G37*
%TO.C,J2*%
X57650000Y-83250000D02*
X57650000Y-84500000D01*
X57940000Y-83540000D02*
X57940000Y-89510000D01*
X57940000Y-89510000D02*
X65560000Y-89510000D01*
X57950000Y-83550000D02*
X57950000Y-84300000D01*
X57950000Y-84300000D02*
X59750000Y-84300000D01*
X57950000Y-85800000D02*
X58700000Y-85800000D01*
X58700000Y-85800000D02*
X58700000Y-88750000D01*
X58700000Y-88750000D02*
X61750000Y-88750000D01*
X58900000Y-83250000D02*
X57650000Y-83250000D01*
X59750000Y-83550000D02*
X57950000Y-83550000D01*
X59750000Y-84300000D02*
X59750000Y-83550000D01*
X61250000Y-83550000D02*
X61250000Y-84300000D01*
X61250000Y-84300000D02*
X62250000Y-84300000D01*
X62250000Y-83550000D02*
X61250000Y-83550000D01*
X62250000Y-84300000D02*
X62250000Y-83550000D01*
X63750000Y-83550000D02*
X63750000Y-84300000D01*
X63750000Y-84300000D02*
X65550000Y-84300000D01*
X64800000Y-85800000D02*
X64800000Y-88750000D01*
X64800000Y-88750000D02*
X61750000Y-88750000D01*
X65550000Y-83550000D02*
X63750000Y-83550000D01*
X65550000Y-84300000D02*
X65550000Y-83550000D01*
X65550000Y-85800000D02*
X64800000Y-85800000D01*
X65560000Y-83540000D02*
X57940000Y-83540000D01*
X65560000Y-89510000D02*
X65560000Y-83540000D01*
%TO.C,L1*%
X66740000Y-55240000D02*
X66740000Y-55390000D01*
X66740000Y-59760000D02*
X66740000Y-59610000D01*
X71260000Y-55240000D02*
X66740000Y-55240000D01*
X71260000Y-55240000D02*
X71260000Y-55390000D01*
X71260000Y-59760000D02*
X66740000Y-59760000D01*
X71260000Y-59760000D02*
X71260000Y-59610000D01*
%TO.C,R3*%
X59327500Y-65277064D02*
X59327500Y-64822936D01*
X60797500Y-65277064D02*
X60797500Y-64822936D01*
%TD*%
M02*
