%TF.GenerationSoftware,KiCad,Pcbnew,9.0.2*%
%TF.CreationDate,2025-06-25T21:04:22+02:00*%
%TF.ProjectId,Schrankbeleuchtung,53636872-616e-46b6-9265-6c6575636874,rev?*%
%TF.SameCoordinates,Original*%
%TF.FileFunction,Soldermask,Top*%
%TF.FilePolarity,Negative*%
%FSLAX46Y46*%
G04 Gerber Fmt 4.6, Leading zero omitted, Abs format (unit mm)*
G04 Created by KiCad (PCBNEW 9.0.2) date 2025-06-25 21:04:22*
%MOMM*%
%LPD*%
G01*
G04 APERTURE LIST*
G04 Aperture macros list*
%AMRoundRect*
0 Rectangle with rounded corners*
0 $1 Rounding radius*
0 $2 $3 $4 $5 $6 $7 $8 $9 X,Y pos of 4 corners*
0 Add a 4 corners polygon primitive as box body*
4,1,4,$2,$3,$4,$5,$6,$7,$8,$9,$2,$3,0*
0 Add four circle primitives for the rounded corners*
1,1,$1+$1,$2,$3*
1,1,$1+$1,$4,$5*
1,1,$1+$1,$6,$7*
1,1,$1+$1,$8,$9*
0 Add four rect primitives between the rounded corners*
20,1,$1+$1,$2,$3,$4,$5,0*
20,1,$1+$1,$4,$5,$6,$7,0*
20,1,$1+$1,$6,$7,$8,$9,0*
20,1,$1+$1,$8,$9,$2,$3,0*%
%AMFreePoly0*
4,1,37,0.603843,0.796157,0.639018,0.796157,0.711114,0.766294,0.766294,0.711114,0.796157,0.639018,0.796157,0.603843,0.800000,0.600000,0.800000,-0.600000,0.796157,-0.603843,0.796157,-0.639018,0.766294,-0.711114,0.711114,-0.766294,0.639018,-0.796157,0.603843,-0.796157,0.600000,-0.800000,0.000000,-0.800000,0.000000,-0.796148,-0.078414,-0.796148,-0.232228,-0.765552,-0.377117,-0.705537,
-0.507515,-0.618408,-0.618408,-0.507515,-0.705537,-0.377117,-0.765552,-0.232228,-0.796148,-0.078414,-0.796148,0.078414,-0.765552,0.232228,-0.705537,0.377117,-0.618408,0.507515,-0.507515,0.618408,-0.377117,0.705537,-0.232228,0.765552,-0.078414,0.796148,0.000000,0.796148,0.000000,0.800000,0.600000,0.800000,0.603843,0.796157,0.603843,0.796157,$1*%
%AMFreePoly1*
4,1,37,0.000000,0.796148,0.078414,0.796148,0.232228,0.765552,0.377117,0.705537,0.507515,0.618408,0.618408,0.507515,0.705537,0.377117,0.765552,0.232228,0.796148,0.078414,0.796148,-0.078414,0.765552,-0.232228,0.705537,-0.377117,0.618408,-0.507515,0.507515,-0.618408,0.377117,-0.705537,0.232228,-0.765552,0.078414,-0.796148,0.000000,-0.796148,0.000000,-0.800000,-0.600000,-0.800000,
-0.603843,-0.796157,-0.639018,-0.796157,-0.711114,-0.766294,-0.766294,-0.711114,-0.796157,-0.639018,-0.796157,-0.603843,-0.800000,-0.600000,-0.800000,0.600000,-0.796157,0.603843,-0.796157,0.639018,-0.766294,0.711114,-0.711114,0.766294,-0.639018,0.796157,-0.603843,0.796157,-0.600000,0.800000,0.000000,0.800000,0.000000,0.796148,0.000000,0.796148,$1*%
G04 Aperture macros list end*
%ADD10RoundRect,0.250000X0.350000X0.450000X-0.350000X0.450000X-0.350000X-0.450000X0.350000X-0.450000X0*%
%ADD11RoundRect,0.150000X0.587500X0.150000X-0.587500X0.150000X-0.587500X-0.150000X0.587500X-0.150000X0*%
%ADD12RoundRect,0.250000X-0.600000X-0.750000X0.600000X-0.750000X0.600000X0.750000X-0.600000X0.750000X0*%
%ADD13O,1.700000X2.000000*%
%ADD14R,3.500000X3.500000*%
%ADD15RoundRect,0.750000X-0.750000X-1.000000X0.750000X-1.000000X0.750000X1.000000X-0.750000X1.000000X0*%
%ADD16RoundRect,0.875000X-0.875000X-0.875000X0.875000X-0.875000X0.875000X0.875000X-0.875000X0.875000X0*%
%ADD17C,3.500000*%
%ADD18RoundRect,0.250000X0.450000X-0.350000X0.450000X0.350000X-0.450000X0.350000X-0.450000X-0.350000X0*%
%ADD19RoundRect,0.250000X-0.337500X-0.475000X0.337500X-0.475000X0.337500X0.475000X-0.337500X0.475000X0*%
%ADD20RoundRect,0.250000X0.337500X0.475000X-0.337500X0.475000X-0.337500X-0.475000X0.337500X-0.475000X0*%
%ADD21RoundRect,0.200000X0.600000X-0.600000X0.600000X0.600000X-0.600000X0.600000X-0.600000X-0.600000X0*%
%ADD22C,1.600000*%
%ADD23FreePoly0,90.000000*%
%ADD24FreePoly1,90.000000*%
%ADD25RoundRect,0.250000X-0.350000X-0.450000X0.350000X-0.450000X0.350000X0.450000X-0.350000X0.450000X0*%
%ADD26RoundRect,0.162500X-0.617500X-0.162500X0.617500X-0.162500X0.617500X0.162500X-0.617500X0.162500X0*%
%ADD27RoundRect,0.250000X0.700000X1.600000X-0.700000X1.600000X-0.700000X-1.600000X0.700000X-1.600000X0*%
G04 APERTURE END LIST*
D10*
%TO.C,R10*%
X69500000Y-66000000D03*
X67500000Y-66000000D03*
%TD*%
D11*
%TO.C,Q1*%
X52062500Y-61500000D03*
X52062500Y-59600000D03*
X50187500Y-60550000D03*
%TD*%
D12*
%TO.C,J4*%
X79500000Y-86000000D03*
D13*
X82000000Y-86000000D03*
%TD*%
D14*
%TO.C,J1*%
X55000000Y-78000000D03*
D15*
X49000000Y-78000000D03*
D16*
X52000000Y-82700000D03*
%TD*%
D17*
%TO.C,H3*%
X97000000Y-48000000D03*
%TD*%
%TO.C,H1*%
X48000000Y-87000000D03*
%TD*%
D18*
%TO.C,R1*%
X52062500Y-66050000D03*
X52062500Y-64050000D03*
%TD*%
D12*
%TO.C,J9*%
X89000000Y-78000000D03*
D13*
X91500000Y-78000000D03*
%TD*%
D12*
%TO.C,J6*%
X60500000Y-78000000D03*
D13*
X63000000Y-78000000D03*
%TD*%
D11*
%TO.C,Q3*%
X60062500Y-61500000D03*
X60062500Y-59600000D03*
X58187500Y-60550000D03*
%TD*%
%TO.C,Q2*%
X56062500Y-61500000D03*
X56062500Y-59600000D03*
X54187500Y-60550000D03*
%TD*%
D19*
%TO.C,C3*%
X72962500Y-56000000D03*
X75037500Y-56000000D03*
%TD*%
D17*
%TO.C,H4*%
X48000000Y-48000000D03*
%TD*%
D20*
%TO.C,C2*%
X55037500Y-55000000D03*
X52962500Y-55000000D03*
%TD*%
D12*
%TO.C,J5*%
X89000000Y-86000000D03*
D13*
X91500000Y-86000000D03*
%TD*%
D18*
%TO.C,R6*%
X79520000Y-66000000D03*
X79520000Y-64000000D03*
%TD*%
D12*
%TO.C,J3*%
X70000000Y-86000000D03*
D13*
X72500000Y-86000000D03*
%TD*%
D18*
%TO.C,R8*%
X84600000Y-66000000D03*
X84600000Y-64000000D03*
%TD*%
%TO.C,R7*%
X82060000Y-66000000D03*
X82060000Y-64000000D03*
%TD*%
%TO.C,R4*%
X64062500Y-66050000D03*
X64062500Y-64050000D03*
%TD*%
D12*
%TO.C,J8*%
X79500000Y-78000000D03*
D13*
X82000000Y-78000000D03*
%TD*%
D21*
%TO.C,A1*%
X46500000Y-69780000D03*
D22*
X49040000Y-69780000D03*
D23*
X51580000Y-69780000D03*
D22*
X54120000Y-69780000D03*
X56660000Y-69780000D03*
X59200000Y-69780000D03*
X61740000Y-69780000D03*
D23*
X64280000Y-69780000D03*
D22*
X66820000Y-69780000D03*
X69360000Y-69780000D03*
X71900000Y-69780000D03*
X74440000Y-69780000D03*
D23*
X76980000Y-69780000D03*
D22*
X79520000Y-69780000D03*
X82060000Y-69780000D03*
X84600000Y-69780000D03*
X87140000Y-69780000D03*
D23*
X89680000Y-69780000D03*
D22*
X92220000Y-69780000D03*
X94760000Y-69780000D03*
X94760000Y-52000000D03*
X92220000Y-52000000D03*
D24*
X89680000Y-52000000D03*
D22*
X87140000Y-52000000D03*
X84600000Y-52000000D03*
X82060000Y-52000000D03*
X79520000Y-52000000D03*
D24*
X76980000Y-52000000D03*
D22*
X74440000Y-52000000D03*
X71900000Y-52000000D03*
X69360000Y-52000000D03*
X66820000Y-52000000D03*
D24*
X64280000Y-52000000D03*
D22*
X61740000Y-52000000D03*
X59200000Y-52000000D03*
X56660000Y-52000000D03*
X54120000Y-52000000D03*
D24*
X51580000Y-52000000D03*
D22*
X49040000Y-52000000D03*
X46500000Y-52000000D03*
%TD*%
D25*
%TO.C,R5*%
X74440000Y-66000000D03*
X76440000Y-66000000D03*
%TD*%
D19*
%TO.C,C1*%
X78462500Y-61000000D03*
X80537500Y-61000000D03*
%TD*%
D10*
%TO.C,R9*%
X69500000Y-62500000D03*
X67500000Y-62500000D03*
%TD*%
D18*
%TO.C,R2*%
X56062500Y-66050000D03*
X56062500Y-64050000D03*
%TD*%
D12*
%TO.C,J7*%
X70000000Y-78000000D03*
D13*
X72500000Y-78000000D03*
%TD*%
D26*
%TO.C,U1*%
X73150000Y-59550000D03*
X73150000Y-60500000D03*
X73150000Y-61450000D03*
X75850000Y-61450000D03*
X75850000Y-60500000D03*
X75850000Y-59550000D03*
%TD*%
D11*
%TO.C,Q4*%
X64062500Y-61500000D03*
X64062500Y-59600000D03*
X62187500Y-60550000D03*
%TD*%
D17*
%TO.C,H2*%
X97000000Y-87000000D03*
%TD*%
D12*
%TO.C,J2*%
X60500000Y-86000000D03*
D13*
X63000000Y-86000000D03*
%TD*%
D27*
%TO.C,L1*%
X70350000Y-57500000D03*
X67650000Y-57500000D03*
%TD*%
D18*
%TO.C,R3*%
X60062500Y-66050000D03*
X60062500Y-64050000D03*
%TD*%
M02*
