%TF.GenerationSoftware,KiCad,Pcbnew,9.0.2*%
%TF.CreationDate,2025-06-25T21:04:22+02:00*%
%TF.ProjectId,Schrankbeleuchtung,53636872-616e-46b6-9265-6c6575636874,rev?*%
%TF.SameCoordinates,Original*%
%TF.FileFunction,Copper,L1,Top*%
%TF.FilePolarity,Positive*%
%FSLAX46Y46*%
G04 Gerber Fmt 4.6, Leading zero omitted, Abs format (unit mm)*
G04 Created by KiCad (PCBNEW 9.0.2) date 2025-06-25 21:04:22*
%MOMM*%
%LPD*%
G01*
G04 APERTURE LIST*
G04 Aperture macros list*
%AMRoundRect*
0 Rectangle with rounded corners*
0 $1 Rounding radius*
0 $2 $3 $4 $5 $6 $7 $8 $9 X,Y pos of 4 corners*
0 Add a 4 corners polygon primitive as box body*
4,1,4,$2,$3,$4,$5,$6,$7,$8,$9,$2,$3,0*
0 Add four circle primitives for the rounded corners*
1,1,$1+$1,$2,$3*
1,1,$1+$1,$4,$5*
1,1,$1+$1,$6,$7*
1,1,$1+$1,$8,$9*
0 Add four rect primitives between the rounded corners*
20,1,$1+$1,$2,$3,$4,$5,0*
20,1,$1+$1,$4,$5,$6,$7,0*
20,1,$1+$1,$6,$7,$8,$9,0*
20,1,$1+$1,$8,$9,$2,$3,0*%
%AMFreePoly0*
4,1,37,0.603843,0.796157,0.639018,0.796157,0.711114,0.766294,0.766294,0.711114,0.796157,0.639018,0.796157,0.603843,0.800000,0.600000,0.800000,-0.600000,0.796157,-0.603843,0.796157,-0.639018,0.766294,-0.711114,0.711114,-0.766294,0.639018,-0.796157,0.603843,-0.796157,0.600000,-0.800000,0.000000,-0.800000,0.000000,-0.796148,-0.078414,-0.796148,-0.232228,-0.765552,-0.377117,-0.705537,
-0.507515,-0.618408,-0.618408,-0.507515,-0.705537,-0.377117,-0.765552,-0.232228,-0.796148,-0.078414,-0.796148,0.078414,-0.765552,0.232228,-0.705537,0.377117,-0.618408,0.507515,-0.507515,0.618408,-0.377117,0.705537,-0.232228,0.765552,-0.078414,0.796148,0.000000,0.796148,0.000000,0.800000,0.600000,0.800000,0.603843,0.796157,0.603843,0.796157,$1*%
%AMFreePoly1*
4,1,37,0.000000,0.796148,0.078414,0.796148,0.232228,0.765552,0.377117,0.705537,0.507515,0.618408,0.618408,0.507515,0.705537,0.377117,0.765552,0.232228,0.796148,0.078414,0.796148,-0.078414,0.765552,-0.232228,0.705537,-0.377117,0.618408,-0.507515,0.507515,-0.618408,0.377117,-0.705537,0.232228,-0.765552,0.078414,-0.796148,0.000000,-0.796148,0.000000,-0.800000,-0.600000,-0.800000,
-0.603843,-0.796157,-0.639018,-0.796157,-0.711114,-0.766294,-0.766294,-0.711114,-0.796157,-0.639018,-0.796157,-0.603843,-0.800000,-0.600000,-0.800000,0.600000,-0.796157,0.603843,-0.796157,0.639018,-0.766294,0.711114,-0.711114,0.766294,-0.639018,0.796157,-0.603843,0.796157,-0.600000,0.800000,0.000000,0.800000,0.000000,0.796148,0.000000,0.796148,$1*%
G04 Aperture macros list end*
%TA.AperFunction,SMDPad,CuDef*%
%ADD10RoundRect,0.250000X0.350000X0.450000X-0.350000X0.450000X-0.350000X-0.450000X0.350000X-0.450000X0*%
%TD*%
%TA.AperFunction,SMDPad,CuDef*%
%ADD11RoundRect,0.150000X0.587500X0.150000X-0.587500X0.150000X-0.587500X-0.150000X0.587500X-0.150000X0*%
%TD*%
%TA.AperFunction,ComponentPad*%
%ADD12RoundRect,0.250000X-0.600000X-0.750000X0.600000X-0.750000X0.600000X0.750000X-0.600000X0.750000X0*%
%TD*%
%TA.AperFunction,ComponentPad*%
%ADD13O,1.700000X2.000000*%
%TD*%
%TA.AperFunction,ComponentPad*%
%ADD14R,3.500000X3.500000*%
%TD*%
%TA.AperFunction,ComponentPad*%
%ADD15RoundRect,0.750000X-0.750000X-1.000000X0.750000X-1.000000X0.750000X1.000000X-0.750000X1.000000X0*%
%TD*%
%TA.AperFunction,ComponentPad*%
%ADD16RoundRect,0.875000X-0.875000X-0.875000X0.875000X-0.875000X0.875000X0.875000X-0.875000X0.875000X0*%
%TD*%
%TA.AperFunction,ComponentPad*%
%ADD17C,3.500000*%
%TD*%
%TA.AperFunction,SMDPad,CuDef*%
%ADD18RoundRect,0.250000X0.450000X-0.350000X0.450000X0.350000X-0.450000X0.350000X-0.450000X-0.350000X0*%
%TD*%
%TA.AperFunction,SMDPad,CuDef*%
%ADD19RoundRect,0.250000X-0.337500X-0.475000X0.337500X-0.475000X0.337500X0.475000X-0.337500X0.475000X0*%
%TD*%
%TA.AperFunction,SMDPad,CuDef*%
%ADD20RoundRect,0.250000X0.337500X0.475000X-0.337500X0.475000X-0.337500X-0.475000X0.337500X-0.475000X0*%
%TD*%
%TA.AperFunction,ComponentPad*%
%ADD21RoundRect,0.200000X0.600000X-0.600000X0.600000X0.600000X-0.600000X0.600000X-0.600000X-0.600000X0*%
%TD*%
%TA.AperFunction,ComponentPad*%
%ADD22C,1.600000*%
%TD*%
%TA.AperFunction,ComponentPad*%
%ADD23FreePoly0,90.000000*%
%TD*%
%TA.AperFunction,ComponentPad*%
%ADD24FreePoly1,90.000000*%
%TD*%
%TA.AperFunction,SMDPad,CuDef*%
%ADD25RoundRect,0.250000X-0.350000X-0.450000X0.350000X-0.450000X0.350000X0.450000X-0.350000X0.450000X0*%
%TD*%
%TA.AperFunction,SMDPad,CuDef*%
%ADD26RoundRect,0.162500X-0.617500X-0.162500X0.617500X-0.162500X0.617500X0.162500X-0.617500X0.162500X0*%
%TD*%
%TA.AperFunction,SMDPad,CuDef*%
%ADD27RoundRect,0.250000X0.700000X1.600000X-0.700000X1.600000X-0.700000X-1.600000X0.700000X-1.600000X0*%
%TD*%
%TA.AperFunction,ViaPad*%
%ADD28C,0.600000*%
%TD*%
%TA.AperFunction,Conductor*%
%ADD29C,0.500000*%
%TD*%
%TA.AperFunction,Conductor*%
%ADD30C,0.250000*%
%TD*%
%TA.AperFunction,Conductor*%
%ADD31C,1.000000*%
%TD*%
%TA.AperFunction,Conductor*%
%ADD32C,0.750000*%
%TD*%
%TA.AperFunction,Conductor*%
%ADD33C,0.200000*%
%TD*%
G04 APERTURE END LIST*
D10*
%TO.P,R10,1*%
%TO.N,GND*%
X69500000Y-66000000D03*
%TO.P,R10,2*%
%TO.N,Net-(U1-FB)*%
X67500000Y-66000000D03*
%TD*%
D11*
%TO.P,Q1,1,G*%
%TO.N,Net-(Q1-G)*%
X52062500Y-61500000D03*
%TO.P,Q1,2,S*%
%TO.N,GND*%
X52062500Y-59600000D03*
%TO.P,Q1,3,D*%
%TO.N,Net-(J2-Pin_2)*%
X50187500Y-60550000D03*
%TD*%
D12*
%TO.P,J4,1,Pin_1*%
%TO.N,+12V*%
X79500000Y-86000000D03*
D13*
%TO.P,J4,2,Pin_2*%
%TO.N,Net-(J4-Pin_2)*%
X82000000Y-86000000D03*
%TD*%
D14*
%TO.P,J1,1*%
%TO.N,+12V*%
X55000000Y-78000000D03*
D15*
%TO.P,J1,2*%
%TO.N,GND*%
X49000000Y-78000000D03*
D16*
%TO.P,J1,3*%
%TO.N,unconnected-(J1-Pad3)*%
X52000000Y-82700000D03*
%TD*%
D17*
%TO.P,H3,1,1*%
%TO.N,GND*%
X97000000Y-48000000D03*
%TD*%
%TO.P,H1,1,1*%
%TO.N,GND*%
X48000000Y-87000000D03*
%TD*%
D18*
%TO.P,R1,1*%
%TO.N,/GPIO02*%
X52062500Y-66050000D03*
%TO.P,R1,2*%
%TO.N,Net-(Q1-G)*%
X52062500Y-64050000D03*
%TD*%
D12*
%TO.P,J9,1,Pin_1*%
%TO.N,/GPIO09*%
X89000000Y-78000000D03*
D13*
%TO.P,J9,2,Pin_2*%
%TO.N,GND*%
X91500000Y-78000000D03*
%TD*%
D12*
%TO.P,J6,1,Pin_1*%
%TO.N,/GPIO06*%
X60500000Y-78000000D03*
D13*
%TO.P,J6,2,Pin_2*%
%TO.N,GND*%
X63000000Y-78000000D03*
%TD*%
D11*
%TO.P,Q3,1,G*%
%TO.N,Net-(Q3-G)*%
X60062500Y-61500000D03*
%TO.P,Q3,2,S*%
%TO.N,GND*%
X60062500Y-59600000D03*
%TO.P,Q3,3,D*%
%TO.N,Net-(J4-Pin_2)*%
X58187500Y-60550000D03*
%TD*%
%TO.P,Q2,1,G*%
%TO.N,Net-(Q2-G)*%
X56062500Y-61500000D03*
%TO.P,Q2,2,S*%
%TO.N,GND*%
X56062500Y-59600000D03*
%TO.P,Q2,3,D*%
%TO.N,Net-(J3-Pin_2)*%
X54187500Y-60550000D03*
%TD*%
D19*
%TO.P,C3,1*%
%TO.N,Net-(U1-CB)*%
X72962500Y-56000000D03*
%TO.P,C3,2*%
%TO.N,Net-(U1-SW)*%
X75037500Y-56000000D03*
%TD*%
D17*
%TO.P,H4,1,1*%
%TO.N,GND*%
X48000000Y-48000000D03*
%TD*%
D20*
%TO.P,C2,1*%
%TO.N,+5V*%
X55037500Y-55000000D03*
%TO.P,C2,2*%
%TO.N,GND*%
X52962500Y-55000000D03*
%TD*%
D12*
%TO.P,J5,1,Pin_1*%
%TO.N,+12V*%
X89000000Y-86000000D03*
D13*
%TO.P,J5,2,Pin_2*%
%TO.N,Net-(J5-Pin_2)*%
X91500000Y-86000000D03*
%TD*%
D18*
%TO.P,R6,1*%
%TO.N,/GPIO07*%
X79520000Y-66000000D03*
%TO.P,R6,2*%
%TO.N,+3.3V*%
X79520000Y-64000000D03*
%TD*%
D12*
%TO.P,J3,1,Pin_1*%
%TO.N,+12V*%
X70000000Y-86000000D03*
D13*
%TO.P,J3,2,Pin_2*%
%TO.N,Net-(J3-Pin_2)*%
X72500000Y-86000000D03*
%TD*%
D18*
%TO.P,R8,1*%
%TO.N,/GPIO09*%
X84600000Y-66000000D03*
%TO.P,R8,2*%
%TO.N,+3.3V*%
X84600000Y-64000000D03*
%TD*%
%TO.P,R7,1*%
%TO.N,/GPIO08*%
X82060000Y-66000000D03*
%TO.P,R7,2*%
%TO.N,+3.3V*%
X82060000Y-64000000D03*
%TD*%
%TO.P,R4,1*%
%TO.N,/GPIO05*%
X64062500Y-66050000D03*
%TO.P,R4,2*%
%TO.N,Net-(Q4-G)*%
X64062500Y-64050000D03*
%TD*%
D12*
%TO.P,J8,1,Pin_1*%
%TO.N,/GPIO08*%
X79500000Y-78000000D03*
D13*
%TO.P,J8,2,Pin_2*%
%TO.N,GND*%
X82000000Y-78000000D03*
%TD*%
D21*
%TO.P,A1,1,GPIO0*%
%TO.N,unconnected-(A1-GPIO0-Pad1)*%
X46500000Y-69780000D03*
D22*
%TO.P,A1,2,GPIO1*%
%TO.N,unconnected-(A1-GPIO1-Pad2)*%
X49040000Y-69780000D03*
D23*
%TO.P,A1,3,GND*%
%TO.N,GND*%
X51580000Y-69780000D03*
D22*
%TO.P,A1,4,GPIO2*%
%TO.N,/GPIO02*%
X54120000Y-69780000D03*
%TO.P,A1,5,GPIO3*%
%TO.N,/GPIO03*%
X56660000Y-69780000D03*
%TO.P,A1,6,GPIO4*%
%TO.N,/GPIO04*%
X59200000Y-69780000D03*
%TO.P,A1,7,GPIO5*%
%TO.N,/GPIO05*%
X61740000Y-69780000D03*
D23*
%TO.P,A1,8,GND*%
%TO.N,GND*%
X64280000Y-69780000D03*
D22*
%TO.P,A1,9,GPIO6*%
%TO.N,unconnected-(A1-GPIO6-Pad9)*%
X66820000Y-69780000D03*
%TO.P,A1,10,GPIO7*%
%TO.N,unconnected-(A1-GPIO7-Pad10)*%
X69360000Y-69780000D03*
%TO.P,A1,11,GPIO8*%
%TO.N,unconnected-(A1-GPIO8-Pad11)*%
X71900000Y-69780000D03*
%TO.P,A1,12,GPIO9*%
%TO.N,/GPIO06*%
X74440000Y-69780000D03*
D23*
%TO.P,A1,13,GND*%
%TO.N,GND*%
X76980000Y-69780000D03*
D22*
%TO.P,A1,14,GPIO10*%
%TO.N,/GPIO07*%
X79520000Y-69780000D03*
%TO.P,A1,15,GPIO11*%
%TO.N,/GPIO08*%
X82060000Y-69780000D03*
%TO.P,A1,16,GPIO12*%
%TO.N,/GPIO09*%
X84600000Y-69780000D03*
%TO.P,A1,17,GPIO13*%
%TO.N,unconnected-(A1-GPIO13-Pad17)*%
X87140000Y-69780000D03*
D23*
%TO.P,A1,18,GND*%
%TO.N,GND*%
X89680000Y-69780000D03*
D22*
%TO.P,A1,19,GPIO14*%
%TO.N,unconnected-(A1-GPIO14-Pad19)*%
X92220000Y-69780000D03*
%TO.P,A1,20,GPIO15*%
%TO.N,unconnected-(A1-GPIO15-Pad20)*%
X94760000Y-69780000D03*
%TO.P,A1,21,GPIO16*%
%TO.N,unconnected-(A1-GPIO16-Pad21)*%
X94760000Y-52000000D03*
%TO.P,A1,22,GPIO17*%
%TO.N,unconnected-(A1-GPIO17-Pad22)*%
X92220000Y-52000000D03*
D24*
%TO.P,A1,23,GND*%
%TO.N,GND*%
X89680000Y-52000000D03*
D22*
%TO.P,A1,24,GPIO18*%
%TO.N,unconnected-(A1-GPIO18-Pad24)*%
X87140000Y-52000000D03*
%TO.P,A1,25,GPIO19*%
%TO.N,unconnected-(A1-GPIO19-Pad25)*%
X84600000Y-52000000D03*
%TO.P,A1,26,GPIO20*%
%TO.N,unconnected-(A1-GPIO20-Pad26)*%
X82060000Y-52000000D03*
%TO.P,A1,27,GPIO21*%
%TO.N,unconnected-(A1-GPIO21-Pad27)*%
X79520000Y-52000000D03*
D24*
%TO.P,A1,28,GND*%
%TO.N,GND*%
X76980000Y-52000000D03*
D22*
%TO.P,A1,29,GPIO22*%
%TO.N,unconnected-(A1-GPIO22-Pad29)*%
X74440000Y-52000000D03*
%TO.P,A1,30,RUN*%
%TO.N,unconnected-(A1-RUN-Pad30)*%
X71900000Y-52000000D03*
%TO.P,A1,31,GPIO26_ADC0*%
%TO.N,unconnected-(A1-GPIO26_ADC0-Pad31)*%
X69360000Y-52000000D03*
%TO.P,A1,32,GPIO27_ADC1*%
%TO.N,unconnected-(A1-GPIO27_ADC1-Pad32)*%
X66820000Y-52000000D03*
D24*
%TO.P,A1,33,AGND*%
%TO.N,unconnected-(A1-AGND-Pad33)*%
X64280000Y-52000000D03*
D22*
%TO.P,A1,34,GPIO28_ADC2*%
%TO.N,unconnected-(A1-GPIO28_ADC2-Pad34)*%
X61740000Y-52000000D03*
%TO.P,A1,35,ADC_VREF*%
%TO.N,unconnected-(A1-ADC_VREF-Pad35)*%
X59200000Y-52000000D03*
%TO.P,A1,36,3V3*%
%TO.N,+3.3V*%
X56660000Y-52000000D03*
%TO.P,A1,37,3V3_EN*%
%TO.N,unconnected-(A1-3V3_EN-Pad37)*%
X54120000Y-52000000D03*
D24*
%TO.P,A1,38,GND*%
%TO.N,GND*%
X51580000Y-52000000D03*
D22*
%TO.P,A1,39,VSYS*%
%TO.N,+5V*%
X49040000Y-52000000D03*
%TO.P,A1,40,VBUS*%
%TO.N,unconnected-(A1-VBUS-Pad40)*%
X46500000Y-52000000D03*
%TD*%
D25*
%TO.P,R5,1*%
%TO.N,/GPIO06*%
X74440000Y-66000000D03*
%TO.P,R5,2*%
%TO.N,+3.3V*%
X76440000Y-66000000D03*
%TD*%
D19*
%TO.P,C1,1*%
%TO.N,+12V*%
X78462500Y-61000000D03*
%TO.P,C1,2*%
%TO.N,GND*%
X80537500Y-61000000D03*
%TD*%
D10*
%TO.P,R9,1*%
%TO.N,Net-(U1-FB)*%
X69500000Y-62500000D03*
%TO.P,R9,2*%
%TO.N,+5V*%
X67500000Y-62500000D03*
%TD*%
D18*
%TO.P,R2,1*%
%TO.N,/GPIO03*%
X56062500Y-66050000D03*
%TO.P,R2,2*%
%TO.N,Net-(Q2-G)*%
X56062500Y-64050000D03*
%TD*%
D12*
%TO.P,J7,1,Pin_1*%
%TO.N,/GPIO07*%
X70000000Y-78000000D03*
D13*
%TO.P,J7,2,Pin_2*%
%TO.N,GND*%
X72500000Y-78000000D03*
%TD*%
D26*
%TO.P,U1,1,CB*%
%TO.N,Net-(U1-CB)*%
X73150000Y-59550000D03*
%TO.P,U1,2,GND*%
%TO.N,GND*%
X73150000Y-60500000D03*
%TO.P,U1,3,FB*%
%TO.N,Net-(U1-FB)*%
X73150000Y-61450000D03*
%TO.P,U1,4,~{EN}*%
%TO.N,+12V*%
X75850000Y-61450000D03*
%TO.P,U1,5,VIN*%
X75850000Y-60500000D03*
%TO.P,U1,6,SW*%
%TO.N,Net-(U1-SW)*%
X75850000Y-59550000D03*
%TD*%
D11*
%TO.P,Q4,1,G*%
%TO.N,Net-(Q4-G)*%
X64062500Y-61500000D03*
%TO.P,Q4,2,S*%
%TO.N,GND*%
X64062500Y-59600000D03*
%TO.P,Q4,3,D*%
%TO.N,Net-(J5-Pin_2)*%
X62187500Y-60550000D03*
%TD*%
D17*
%TO.P,H2,1,1*%
%TO.N,GND*%
X97000000Y-87000000D03*
%TD*%
D12*
%TO.P,J2,1,Pin_1*%
%TO.N,+12V*%
X60500000Y-86000000D03*
D13*
%TO.P,J2,2,Pin_2*%
%TO.N,Net-(J2-Pin_2)*%
X63000000Y-86000000D03*
%TD*%
D27*
%TO.P,L1,1*%
%TO.N,Net-(U1-SW)*%
X70350000Y-57500000D03*
%TO.P,L1,2*%
%TO.N,+5V*%
X67650000Y-57500000D03*
%TD*%
D18*
%TO.P,R3,1*%
%TO.N,/GPIO04*%
X60062500Y-66050000D03*
%TO.P,R3,2*%
%TO.N,Net-(Q3-G)*%
X60062500Y-64050000D03*
%TD*%
D28*
%TO.N,GND*%
X56062501Y-60437499D03*
X53000000Y-56500000D03*
X74500000Y-58999998D03*
X52062501Y-60437499D03*
X71500000Y-60500000D03*
X74500000Y-62500000D03*
X82000000Y-61000000D03*
X64062501Y-60437499D03*
X60062501Y-60437499D03*
X71000000Y-66000000D03*
%TO.N,+12V*%
X47789000Y-72000000D03*
X47789000Y-68000000D03*
%TD*%
D29*
%TO.N,GND*%
X73929999Y-60500000D02*
X74500000Y-59929999D01*
X56000000Y-59600000D02*
X56062500Y-59537500D01*
X59937500Y-59650000D02*
X60062500Y-59525000D01*
X74500000Y-61070001D02*
X74500000Y-62500000D01*
X74500000Y-61070001D02*
X74500000Y-61500000D01*
X52062500Y-59600000D02*
X52062501Y-60437499D01*
X80537500Y-61000000D02*
X82000000Y-61000000D01*
X64062500Y-59600000D02*
X64062501Y-60437499D01*
X74500000Y-61500000D02*
X74500000Y-62000000D01*
X52962500Y-55000000D02*
X52962500Y-56462500D01*
X74500000Y-59929999D02*
X74500000Y-58999998D01*
X73150000Y-60500000D02*
X71500000Y-60500000D01*
X73150000Y-60500000D02*
X73929999Y-60500000D01*
X52962500Y-56462500D02*
X53000000Y-56500000D01*
X64062500Y-59537500D02*
X64000000Y-59600000D01*
X56062500Y-59600000D02*
X56062501Y-60437499D01*
X74500000Y-59000000D02*
X74500000Y-58999998D01*
X69500000Y-66000000D02*
X71000000Y-66000000D01*
X60062500Y-59600000D02*
X60062501Y-60437499D01*
X73929999Y-60500000D02*
X74500000Y-61070001D01*
%TO.N,/GPIO02*%
X54182500Y-69940000D02*
X54120002Y-69877502D01*
D30*
X54120002Y-68120002D02*
X54120002Y-69780001D01*
X52062500Y-66050000D02*
X52062500Y-66062500D01*
D29*
X54120002Y-69877502D02*
X54120002Y-69780001D01*
D30*
X52062500Y-66062500D02*
X54120002Y-68120002D01*
%TO.N,/GPIO03*%
X56062500Y-66050000D02*
X56062500Y-67562500D01*
X56499998Y-69940002D02*
X56222500Y-69940002D01*
X56660000Y-69780000D02*
X56499998Y-69940002D01*
D29*
X56722498Y-69940002D02*
X56222500Y-69940002D01*
D30*
X56062500Y-67562500D02*
X56660000Y-68160000D01*
D29*
X56722500Y-69940000D02*
X56722498Y-69940002D01*
D30*
X56660000Y-68160000D02*
X56660000Y-69780000D01*
D29*
%TO.N,/GPIO07*%
X79520000Y-69890000D02*
X79520000Y-66000000D01*
%TO.N,/GPIO09*%
X84600000Y-69890000D02*
X84600000Y-65999998D01*
D30*
X84500000Y-66000000D02*
X84599998Y-66000000D01*
X84599998Y-66000000D02*
X84600000Y-65999998D01*
D29*
%TO.N,/GPIO05*%
X61802500Y-70050000D02*
X61802500Y-69810000D01*
D30*
X61802500Y-69810000D02*
X64062500Y-67550000D01*
X64062500Y-67550000D02*
X64062500Y-66050000D01*
%TO.N,/GPIO04*%
X59200000Y-69780000D02*
X59040000Y-69940000D01*
D29*
X58762500Y-69940000D02*
X58762499Y-69940001D01*
D30*
X59040000Y-69940000D02*
X58762500Y-69940000D01*
X60062500Y-67437500D02*
X59200000Y-68300000D01*
X60062500Y-66050000D02*
X60062500Y-67437500D01*
X59200000Y-68300000D02*
X59200000Y-69780000D01*
D29*
%TO.N,+3.3V*%
X85800000Y-53800000D02*
X87379000Y-55379000D01*
X56500000Y-52562500D02*
X56437500Y-52500000D01*
X78440000Y-64000000D02*
X76440000Y-66000000D01*
X87379000Y-62500000D02*
X85879000Y-64000000D01*
X84600000Y-64000000D02*
X78440000Y-64000000D01*
X87379000Y-55379000D02*
X87379000Y-62500000D01*
X56660000Y-52000000D02*
X58460000Y-53800000D01*
X58460000Y-53800000D02*
X85800000Y-53800000D01*
X85879000Y-64000000D02*
X84600000Y-64000000D01*
%TO.N,unconnected-(A1-AGND-Pad33)*%
X64375000Y-52500000D02*
X64500000Y-52625000D01*
%TO.N,+5V*%
X67650000Y-57700000D02*
X67650000Y-57500000D01*
X67500000Y-57850000D02*
X67650000Y-57700000D01*
X63227708Y-56501000D02*
X61726708Y-55000000D01*
X49040000Y-52000000D02*
X50540000Y-53500000D01*
X67650000Y-57500000D02*
X66651000Y-56501000D01*
X66651000Y-56501000D02*
X63227708Y-56501000D01*
X61726708Y-55000000D02*
X55037500Y-55000000D01*
X67500000Y-62500000D02*
X67500000Y-57850000D01*
X50540000Y-53500000D02*
X53537500Y-53500000D01*
X53537500Y-53500000D02*
X55037500Y-55000000D01*
%TO.N,/GPIO06*%
X74440000Y-69890000D02*
X74440000Y-66000000D01*
%TO.N,/GPIO08*%
X82060000Y-69890000D02*
X82060000Y-66000000D01*
D31*
%TO.N,+12V*%
X57500000Y-89000000D02*
X67000000Y-89000000D01*
X55000000Y-86500000D02*
X55000000Y-78000000D01*
D32*
X65000000Y-58000000D02*
X66000000Y-59000000D01*
X72000000Y-64500000D02*
X72500000Y-64000000D01*
X71000000Y-67500000D02*
X72000000Y-66500000D01*
D29*
X60500000Y-86000000D02*
X57500000Y-89000000D01*
D32*
X72000000Y-66500000D02*
X72000000Y-64500000D01*
X67000000Y-89000000D02*
X76500000Y-89000000D01*
X66000000Y-66500000D02*
X67000000Y-67500000D01*
X66000000Y-59000000D02*
X66000000Y-66500000D01*
D31*
X57500000Y-89000000D02*
X55000000Y-86500000D01*
D29*
X75850000Y-61450000D02*
X78012500Y-61450000D01*
D32*
X47788999Y-73288999D02*
X47789000Y-72000000D01*
X47789000Y-59211000D02*
X47789000Y-68000000D01*
X67000000Y-67500000D02*
X71000000Y-67500000D01*
X78462500Y-62537500D02*
X78462500Y-61500000D01*
X77000000Y-64000000D02*
X78462500Y-62537500D01*
X49000000Y-58000000D02*
X47789000Y-59211000D01*
D29*
X75850000Y-60500000D02*
X77962500Y-60500000D01*
X86000000Y-89000000D02*
X89000000Y-86000000D01*
X67000000Y-89000000D02*
X70000000Y-86000000D01*
X77962500Y-60500000D02*
X78462500Y-61000000D01*
D32*
X72500000Y-64000000D02*
X77000000Y-64000000D01*
D29*
X78012500Y-61450000D02*
X78462500Y-61000000D01*
X47789000Y-68000000D02*
X47789000Y-72000000D01*
D32*
X51500000Y-74500000D02*
X49000000Y-74500000D01*
D29*
X76500000Y-89000000D02*
X79500000Y-86000000D01*
X76500000Y-89000000D02*
X86000000Y-89000000D01*
D32*
X49000000Y-74500000D02*
X47788999Y-73288999D01*
D29*
X47789000Y-68000000D02*
X47789000Y-67711000D01*
D32*
X55000000Y-78000000D02*
X51500000Y-74500000D01*
X49000000Y-58000000D02*
X65000000Y-58000000D01*
D29*
X47789000Y-67711000D02*
X47789000Y-68000000D01*
%TO.N,Net-(U1-FB)*%
X70500000Y-62500000D02*
X71550000Y-61450000D01*
X67500000Y-65000000D02*
X69500000Y-63000000D01*
X69500000Y-63000000D02*
X69500000Y-62500000D01*
X71550000Y-61450000D02*
X73150000Y-61450000D01*
X67500000Y-66000000D02*
X67500000Y-65000000D01*
X69500000Y-62500000D02*
X70500000Y-62500000D01*
%TO.N,Net-(J2-Pin_2)*%
X50187500Y-60550000D02*
X50291000Y-60653500D01*
X58500000Y-79000000D02*
X63000000Y-83500000D01*
X50187500Y-60550000D02*
X49886500Y-60851000D01*
X52836000Y-70836000D02*
X58500000Y-76500000D01*
X63000000Y-83500000D02*
X63000000Y-86000000D01*
X52836000Y-68908274D02*
X52836000Y-70836000D01*
X50291000Y-60653500D02*
X50291000Y-66363274D01*
X50291000Y-66363274D02*
X52836000Y-68908274D01*
X58500000Y-76500000D02*
X58500000Y-79000000D01*
%TO.N,Net-(J3-Pin_2)*%
X54062500Y-67050000D02*
X55409000Y-68396500D01*
X72500000Y-83500000D02*
X72500000Y-86000000D01*
X55409000Y-68396500D02*
X55409000Y-71409000D01*
X68000000Y-79000000D02*
X72500000Y-83500000D01*
X59099000Y-75099000D02*
X66599000Y-75099000D01*
X68000000Y-76500000D02*
X68000000Y-79000000D01*
X54062500Y-63050000D02*
X54062500Y-67050000D01*
X54125000Y-60550000D02*
X54125000Y-62987500D01*
X55409000Y-71409000D02*
X59099000Y-75099000D01*
X66599000Y-75099000D02*
X68000000Y-76500000D01*
%TO.N,Net-(J4-Pin_2)*%
X57949000Y-60788500D02*
X57949000Y-68449000D01*
X58187500Y-60550000D02*
X57949000Y-60788500D01*
X77500000Y-76500000D02*
X77500000Y-79000000D01*
X58112500Y-60550000D02*
X58187500Y-60550000D01*
X75000000Y-74000000D02*
X77500000Y-76500000D01*
X57949000Y-68551000D02*
X57949000Y-71449000D01*
X57949000Y-71449000D02*
X60500000Y-74000000D01*
X82000000Y-83500000D02*
X82000000Y-86000000D01*
X58011500Y-60651000D02*
X58112500Y-60550000D01*
X77500000Y-79000000D02*
X82000000Y-83500000D01*
X60500000Y-74000000D02*
X75000000Y-74000000D01*
%TO.N,Net-(J5-Pin_2)*%
X87000000Y-76500000D02*
X87000000Y-79000000D01*
X60489000Y-71489000D02*
X62000000Y-73000000D01*
X87000000Y-79000000D02*
X91500000Y-83500000D01*
X62125000Y-60550000D02*
X62125000Y-67364000D01*
X91500000Y-86000000D02*
X92000000Y-86000000D01*
X83500000Y-73000000D02*
X87000000Y-76500000D01*
X60489000Y-69000000D02*
X60489000Y-71489000D01*
X62000000Y-73000000D02*
X83500000Y-73000000D01*
X62125000Y-67364000D02*
X60489000Y-69000000D01*
X91500000Y-83500000D02*
X91500000Y-86000000D01*
D30*
%TO.N,Net-(Q1-G)*%
X52062500Y-64050000D02*
X52062500Y-61500000D01*
%TO.N,Net-(Q2-G)*%
X56062500Y-61562498D02*
X56062501Y-64050001D01*
X56062500Y-61562498D02*
X56062500Y-64050000D01*
X56000000Y-61499998D02*
X56062500Y-61562498D01*
D29*
X56062501Y-64050001D02*
X56062500Y-64050000D01*
D33*
X56000000Y-62050000D02*
X56000000Y-61499998D01*
%TO.N,Net-(Q3-G)*%
X59937500Y-61950000D02*
X59937500Y-61549998D01*
D29*
X60062500Y-64050000D02*
X59937500Y-63925000D01*
D30*
X60062500Y-63800000D02*
X60062500Y-61674998D01*
X59937500Y-63925000D02*
X60062500Y-63800000D01*
D33*
X59987500Y-62000000D02*
X59937500Y-61950000D01*
D30*
X60062500Y-61674998D02*
X59937500Y-61549998D01*
D33*
X60000000Y-62000000D02*
X59987500Y-62000000D01*
D30*
%TO.N,Net-(Q4-G)*%
X64000000Y-64200000D02*
X64000000Y-61500000D01*
D29*
%TO.N,Net-(U1-SW)*%
X69850000Y-57500000D02*
X69850000Y-55150000D01*
X75850000Y-59550000D02*
X75850000Y-56812500D01*
X75850000Y-56812500D02*
X75037500Y-56000000D01*
X69850000Y-55150000D02*
X70500000Y-54500000D01*
X73537500Y-54500000D02*
X75037500Y-56000000D01*
X70500000Y-54500000D02*
X73537500Y-54500000D01*
%TO.N,Net-(U1-CB)*%
X73150000Y-59550000D02*
X73150000Y-56187500D01*
X73150000Y-56187500D02*
X72962500Y-56000000D01*
%TD*%
%TA.AperFunction,Conductor*%
%TO.N,GND*%
G36*
X73986113Y-60096565D02*
G01*
X73986924Y-60097304D01*
X74325241Y-60435621D01*
X74328668Y-60443894D01*
X74325241Y-60452167D01*
X74322317Y-60454300D01*
X73933628Y-60654096D01*
X73925997Y-60655165D01*
X73157766Y-60502392D01*
X73150320Y-60497418D01*
X73148409Y-60492114D01*
X73117002Y-60186740D01*
X73119565Y-60178160D01*
X73127443Y-60173904D01*
X73977555Y-60093928D01*
X73986113Y-60096565D01*
G37*
%TD.AperFunction*%
%TD*%
%TA.AperFunction,Conductor*%
%TO.N,GND*%
G36*
X81102616Y-60416811D02*
G01*
X81706409Y-60746672D01*
X81712027Y-60753646D01*
X81712500Y-60756940D01*
X81712500Y-61243059D01*
X81709073Y-61251332D01*
X81706409Y-61253327D01*
X81102619Y-61583187D01*
X81093716Y-61584146D01*
X81088528Y-61580978D01*
X80775308Y-61251332D01*
X80544156Y-61008058D01*
X80540943Y-60999701D01*
X80544157Y-60991941D01*
X80770578Y-60753646D01*
X81088529Y-60419020D01*
X81096711Y-60415384D01*
X81102616Y-60416811D01*
G37*
%TD.AperFunction*%
%TD*%
%TA.AperFunction,Conductor*%
%TO.N,GND*%
G36*
X52970749Y-55007295D02*
G01*
X53332413Y-55370996D01*
X53525397Y-55565067D01*
X53528801Y-55573350D01*
X53527852Y-55577933D01*
X53215541Y-56305416D01*
X53209129Y-56311666D01*
X53204790Y-56312500D01*
X52720210Y-56312500D01*
X52711937Y-56309073D01*
X52709459Y-56305416D01*
X52635323Y-56132729D01*
X52397146Y-55577931D01*
X52397032Y-55568978D01*
X52399600Y-55565068D01*
X52954205Y-55007341D01*
X52962467Y-55003892D01*
X52970749Y-55007295D01*
G37*
%TD.AperFunction*%
%TD*%
%TA.AperFunction,Conductor*%
%TO.N,GND*%
G36*
X72535909Y-60176791D02*
G01*
X72934527Y-60386251D01*
X73131289Y-60489643D01*
X73137019Y-60496525D01*
X73136204Y-60505442D01*
X73131289Y-60510357D01*
X72535912Y-60823207D01*
X72528691Y-60824414D01*
X72054921Y-60751526D01*
X72047265Y-60746881D01*
X72045000Y-60739962D01*
X72045000Y-60260037D01*
X72048427Y-60251764D01*
X72054919Y-60248473D01*
X72528694Y-60175585D01*
X72535909Y-60176791D01*
G37*
%TD.AperFunction*%
%TD*%
%TA.AperFunction,Conductor*%
%TO.N,GND*%
G36*
X70052704Y-65404291D02*
G01*
X70693812Y-65746695D01*
X70699495Y-65753615D01*
X70700000Y-65757015D01*
X70700000Y-66242984D01*
X70696573Y-66251257D01*
X70693812Y-66253304D01*
X70052706Y-66595707D01*
X70043794Y-66596582D01*
X70038538Y-66593259D01*
X69506159Y-66007872D01*
X69503128Y-65999446D01*
X69506159Y-65992128D01*
X69723074Y-65753615D01*
X70038540Y-65406738D01*
X70046640Y-65402925D01*
X70052704Y-65404291D01*
G37*
%TD.AperFunction*%
%TD*%
%TA.AperFunction,Conductor*%
%TO.N,GND*%
G36*
X73933628Y-60345903D02*
G01*
X74322317Y-60545699D01*
X74328108Y-60552529D01*
X74327374Y-60561454D01*
X74325241Y-60564378D01*
X73986924Y-60902695D01*
X73978651Y-60906122D01*
X73977555Y-60906071D01*
X73127544Y-60826105D01*
X73119628Y-60821918D01*
X73116991Y-60813360D01*
X73148409Y-60507884D01*
X73152665Y-60500006D01*
X73157762Y-60497608D01*
X73925997Y-60344834D01*
X73933628Y-60345903D01*
G37*
%TD.AperFunction*%
%TD*%
%TA.AperFunction,Conductor*%
%TO.N,/GPIO02*%
G36*
X54245872Y-68198799D02*
G01*
X54248172Y-68202063D01*
X54780856Y-69326427D01*
X54781302Y-69335370D01*
X54776793Y-69341157D01*
X54126510Y-69776640D01*
X54117729Y-69778397D01*
X54113490Y-69776640D01*
X53463206Y-69341157D01*
X53458238Y-69333707D01*
X53459143Y-69326427D01*
X53991832Y-68202063D01*
X53998471Y-68196053D01*
X54002405Y-68195372D01*
X54237599Y-68195372D01*
X54245872Y-68198799D01*
G37*
%TD.AperFunction*%
%TD*%
%TA.AperFunction,Conductor*%
%TO.N,/GPIO02*%
G36*
X52761300Y-65908710D02*
G01*
X52765898Y-65914584D01*
X53132032Y-66950758D01*
X53131557Y-66959700D01*
X53129273Y-66962929D01*
X52963284Y-67128918D01*
X52955011Y-67132345D01*
X52950455Y-67131421D01*
X51822459Y-66654530D01*
X51816173Y-66648153D01*
X51816213Y-66639258D01*
X52059414Y-66055007D01*
X52065757Y-66048686D01*
X52067854Y-66048044D01*
X52752507Y-65907023D01*
X52761300Y-65908710D01*
G37*
%TD.AperFunction*%
%TD*%
%TA.AperFunction,Conductor*%
%TO.N,/GPIO03*%
G36*
X56070372Y-66056159D02*
G01*
X56654754Y-66587623D01*
X56658569Y-66595725D01*
X56656355Y-66603145D01*
X56191004Y-67245166D01*
X56183374Y-67249854D01*
X56181531Y-67250000D01*
X55943469Y-67250000D01*
X55935196Y-67246573D01*
X55933996Y-67245166D01*
X55468644Y-66603145D01*
X55466563Y-66594436D01*
X55470243Y-66587625D01*
X56054628Y-66056158D01*
X56063054Y-66053128D01*
X56070372Y-66056159D01*
G37*
%TD.AperFunction*%
%TD*%
%TA.AperFunction,Conductor*%
%TO.N,/GPIO03*%
G36*
X56785870Y-68198799D02*
G01*
X56788170Y-68202063D01*
X57320856Y-69326427D01*
X57321302Y-69335370D01*
X57316793Y-69341157D01*
X56666510Y-69776640D01*
X56657729Y-69778397D01*
X56653490Y-69776640D01*
X56003206Y-69341157D01*
X55998238Y-69333707D01*
X55999143Y-69326427D01*
X56531830Y-68202063D01*
X56538469Y-68196053D01*
X56542403Y-68195372D01*
X56777597Y-68195372D01*
X56785870Y-68198799D01*
G37*
%TD.AperFunction*%
%TD*%
%TA.AperFunction,Conductor*%
%TO.N,/GPIO07*%
G36*
X79527872Y-66006159D02*
G01*
X80113259Y-66538537D01*
X80117074Y-66546639D01*
X80115707Y-66552705D01*
X79773305Y-67193812D01*
X79766385Y-67199495D01*
X79762985Y-67200000D01*
X79277015Y-67200000D01*
X79268742Y-67196573D01*
X79266695Y-67193812D01*
X78924292Y-66552705D01*
X78923417Y-66543793D01*
X78926738Y-66538540D01*
X79512128Y-66006158D01*
X79520554Y-66003128D01*
X79527872Y-66006159D01*
G37*
%TD.AperFunction*%
%TD*%
%TA.AperFunction,Conductor*%
%TO.N,/GPIO07*%
G36*
X79770159Y-68198799D02*
G01*
X79772844Y-68202971D01*
X80299809Y-69611053D01*
X80299499Y-69620003D01*
X80292952Y-69626112D01*
X80291148Y-69626626D01*
X79522297Y-69780540D01*
X79517703Y-69780540D01*
X78748851Y-69626626D01*
X78741412Y-69621642D01*
X78739676Y-69612857D01*
X78740190Y-69611053D01*
X79267156Y-68202971D01*
X79273265Y-68196424D01*
X79278114Y-68195372D01*
X79761886Y-68195372D01*
X79770159Y-68198799D01*
G37*
%TD.AperFunction*%
%TD*%
%TA.AperFunction,Conductor*%
%TO.N,/GPIO09*%
G36*
X84607872Y-66006159D02*
G01*
X85193259Y-66538537D01*
X85197074Y-66546639D01*
X85195707Y-66552705D01*
X84853305Y-67193812D01*
X84846385Y-67199495D01*
X84842985Y-67200000D01*
X84357015Y-67200000D01*
X84348742Y-67196573D01*
X84346695Y-67193812D01*
X84004292Y-66552705D01*
X84003417Y-66543793D01*
X84006738Y-66538540D01*
X84592128Y-66006158D01*
X84600554Y-66003128D01*
X84607872Y-66006159D01*
G37*
%TD.AperFunction*%
%TD*%
%TA.AperFunction,Conductor*%
%TO.N,/GPIO09*%
G36*
X84850159Y-68198799D02*
G01*
X84852844Y-68202971D01*
X85379809Y-69611053D01*
X85379499Y-69620003D01*
X85372952Y-69626112D01*
X85371148Y-69626626D01*
X84602297Y-69780540D01*
X84597703Y-69780540D01*
X83828851Y-69626626D01*
X83821412Y-69621642D01*
X83819676Y-69612857D01*
X83820190Y-69611053D01*
X84347156Y-68202971D01*
X84353265Y-68196424D01*
X84358114Y-68195372D01*
X84841886Y-68195372D01*
X84850159Y-68198799D01*
G37*
%TD.AperFunction*%
%TD*%
%TA.AperFunction,Conductor*%
%TO.N,/GPIO05*%
G36*
X62820551Y-68620274D02*
G01*
X62823336Y-68622334D01*
X62989622Y-68788620D01*
X62993049Y-68796893D01*
X62992167Y-68801350D01*
X62528289Y-69927185D01*
X62521969Y-69933529D01*
X62515200Y-69934206D01*
X61746979Y-69782227D01*
X61739529Y-69777259D01*
X61737772Y-69773020D01*
X61585978Y-69005736D01*
X61587735Y-68996955D01*
X61594028Y-68992278D01*
X62811638Y-68619420D01*
X62820551Y-68620274D01*
G37*
%TD.AperFunction*%
%TD*%
%TA.AperFunction,Conductor*%
%TO.N,/GPIO05*%
G36*
X64070372Y-66056159D02*
G01*
X64654754Y-66587623D01*
X64658569Y-66595725D01*
X64656355Y-66603145D01*
X64191004Y-67245166D01*
X64183374Y-67249854D01*
X64181531Y-67250000D01*
X63943469Y-67250000D01*
X63935196Y-67246573D01*
X63933996Y-67245166D01*
X63468644Y-66603145D01*
X63466563Y-66594436D01*
X63470243Y-66587625D01*
X64054628Y-66056158D01*
X64063054Y-66053128D01*
X64070372Y-66056159D01*
G37*
%TD.AperFunction*%
%TD*%
%TA.AperFunction,Conductor*%
%TO.N,/GPIO04*%
G36*
X60070372Y-66056159D02*
G01*
X60654754Y-66587623D01*
X60658569Y-66595725D01*
X60656355Y-66603145D01*
X60191004Y-67245166D01*
X60183374Y-67249854D01*
X60181531Y-67250000D01*
X59943469Y-67250000D01*
X59935196Y-67246573D01*
X59933996Y-67245166D01*
X59468644Y-66603145D01*
X59466563Y-66594436D01*
X59470243Y-66587625D01*
X60054628Y-66056158D01*
X60063054Y-66053128D01*
X60070372Y-66056159D01*
G37*
%TD.AperFunction*%
%TD*%
%TA.AperFunction,Conductor*%
%TO.N,/GPIO04*%
G36*
X59193983Y-68146697D02*
G01*
X59196671Y-68148705D01*
X59361001Y-68313035D01*
X59363225Y-68316140D01*
X59860647Y-69326346D01*
X59861227Y-69335282D01*
X59856653Y-69341241D01*
X59205802Y-69776355D01*
X59197019Y-69778104D01*
X59192787Y-69776348D01*
X58543683Y-69341479D01*
X58538717Y-69334027D01*
X58539914Y-69326174D01*
X59088618Y-68316140D01*
X59178118Y-68151392D01*
X59185078Y-68145759D01*
X59193983Y-68146697D01*
G37*
%TD.AperFunction*%
%TD*%
%TA.AperFunction,Conductor*%
%TO.N,+3.3V*%
G36*
X77260210Y-64838021D02*
G01*
X77601736Y-65179547D01*
X77605163Y-65187820D01*
X77603782Y-65193334D01*
X77044990Y-66239187D01*
X77038069Y-66244869D01*
X77030209Y-66244489D01*
X76860989Y-66174677D01*
X76445003Y-66003062D01*
X76438662Y-65996739D01*
X76438018Y-65994666D01*
X76293358Y-65308941D01*
X76295003Y-65300141D01*
X76299690Y-65296006D01*
X77246823Y-64835770D01*
X77255762Y-64835237D01*
X77260210Y-64838021D01*
G37*
%TD.AperFunction*%
%TD*%
%TA.AperFunction,Conductor*%
%TO.N,+3.3V*%
G36*
X84059988Y-63425044D02*
G01*
X84593455Y-63991982D01*
X84596629Y-64000356D01*
X84593455Y-64008018D01*
X84059988Y-64574955D01*
X84051823Y-64578632D01*
X84046766Y-64577651D01*
X83306999Y-64253070D01*
X83300800Y-64246608D01*
X83300000Y-64242356D01*
X83300000Y-63757643D01*
X83303427Y-63749370D01*
X83306999Y-63746929D01*
X84046766Y-63422347D01*
X84055719Y-63422162D01*
X84059988Y-63425044D01*
G37*
%TD.AperFunction*%
%TD*%
%TA.AperFunction,Conductor*%
%TO.N,+3.3V*%
G36*
X57329960Y-51566415D02*
G01*
X57330872Y-51568054D01*
X57953915Y-52936339D01*
X57954225Y-52945289D01*
X57951540Y-52949461D01*
X57609461Y-53291540D01*
X57601188Y-53294967D01*
X57596339Y-53293915D01*
X56228054Y-52670872D01*
X56221945Y-52664325D01*
X56222255Y-52655375D01*
X56223163Y-52653742D01*
X56657994Y-52001241D01*
X56661242Y-51997994D01*
X57313737Y-51563166D01*
X57322521Y-51561431D01*
X57329960Y-51566415D01*
G37*
%TD.AperFunction*%
%TD*%
%TA.AperFunction,Conductor*%
%TO.N,+3.3V*%
G36*
X85234109Y-63478235D02*
G01*
X85716175Y-63807761D01*
X85717845Y-63809147D01*
X86058671Y-64149973D01*
X86062098Y-64158246D01*
X86058671Y-64166519D01*
X86055226Y-64168903D01*
X85153286Y-64577519D01*
X85144336Y-64577812D01*
X85139940Y-64574883D01*
X84739842Y-64149973D01*
X84607777Y-64009717D01*
X84604601Y-64001346D01*
X84608275Y-63993180D01*
X84608750Y-63992757D01*
X85219979Y-63478937D01*
X85228515Y-63476238D01*
X85234109Y-63478235D01*
G37*
%TD.AperFunction*%
%TD*%
%TA.AperFunction,Conductor*%
%TO.N,+5V*%
G36*
X49709960Y-51566415D02*
G01*
X49710872Y-51568054D01*
X50333915Y-52936339D01*
X50334225Y-52945289D01*
X50331540Y-52949461D01*
X49989461Y-53291540D01*
X49981188Y-53294967D01*
X49976339Y-53293915D01*
X48608054Y-52670872D01*
X48601945Y-52664325D01*
X48602255Y-52655375D01*
X48603163Y-52653742D01*
X49037994Y-52001241D01*
X49041242Y-51997994D01*
X49693737Y-51563166D01*
X49702521Y-51561431D01*
X49709960Y-51566415D01*
G37*
%TD.AperFunction*%
%TD*%
%TA.AperFunction,Conductor*%
%TO.N,+5V*%
G36*
X66699921Y-55922802D02*
G01*
X66704937Y-55927344D01*
X67644961Y-57489962D01*
X67646289Y-57498818D01*
X67640966Y-57506019D01*
X67640954Y-57506026D01*
X66709321Y-58064958D01*
X66700464Y-58066276D01*
X66693739Y-58061664D01*
X65772432Y-56754031D01*
X65770296Y-56747292D01*
X65770296Y-56259246D01*
X65773723Y-56250973D01*
X65778061Y-56248228D01*
X66690979Y-55922356D01*
X66699921Y-55922802D01*
G37*
%TD.AperFunction*%
%TD*%
%TA.AperFunction,Conductor*%
%TO.N,+5V*%
G36*
X55602616Y-54416811D02*
G01*
X56206409Y-54746672D01*
X56212027Y-54753646D01*
X56212500Y-54756940D01*
X56212500Y-55243059D01*
X56209073Y-55251332D01*
X56206409Y-55253327D01*
X55602619Y-55583187D01*
X55593716Y-55584146D01*
X55588528Y-55580978D01*
X55275308Y-55251332D01*
X55044156Y-55008058D01*
X55040943Y-54999701D01*
X55044157Y-54991941D01*
X55270578Y-54753646D01*
X55588529Y-54419020D01*
X55596711Y-54415384D01*
X55602616Y-54416811D01*
G37*
%TD.AperFunction*%
%TD*%
%TA.AperFunction,Conductor*%
%TO.N,+5V*%
G36*
X67750630Y-61203427D02*
G01*
X67753071Y-61206999D01*
X68077651Y-61946766D01*
X68077837Y-61955719D01*
X68074955Y-61959988D01*
X67508018Y-62493455D01*
X67499644Y-62496629D01*
X67491982Y-62493455D01*
X66925044Y-61959988D01*
X66921367Y-61951823D01*
X66922348Y-61946766D01*
X67246929Y-61206999D01*
X67253391Y-61200800D01*
X67257643Y-61200000D01*
X67742357Y-61200000D01*
X67750630Y-61203427D01*
G37*
%TD.AperFunction*%
%TD*%
%TA.AperFunction,Conductor*%
%TO.N,+5V*%
G36*
X67654902Y-57514385D02*
G01*
X67659833Y-57519602D01*
X68502343Y-59284678D01*
X68502814Y-59293620D01*
X68501150Y-59296730D01*
X67753510Y-60295312D01*
X67745808Y-60299881D01*
X67744144Y-60300000D01*
X67257356Y-60300000D01*
X67249083Y-60296573D01*
X67246812Y-60293370D01*
X66721637Y-59201093D01*
X66721140Y-59192152D01*
X66721919Y-59190404D01*
X67639019Y-57519012D01*
X67646001Y-57513409D01*
X67654902Y-57514385D01*
G37*
%TD.AperFunction*%
%TD*%
%TA.AperFunction,Conductor*%
%TO.N,+5V*%
G36*
X54237478Y-53842526D02*
G01*
X54854930Y-54137305D01*
X55135576Y-54271289D01*
X55141565Y-54277945D01*
X55142114Y-54283525D01*
X55039162Y-54994110D01*
X55034584Y-55001806D01*
X55032045Y-55003248D01*
X54459703Y-55239347D01*
X54450748Y-55239334D01*
X54444971Y-55234136D01*
X53926135Y-54283525D01*
X53880657Y-54200200D01*
X53879703Y-54191300D01*
X53882653Y-54186327D01*
X54224169Y-53844811D01*
X54232441Y-53841385D01*
X54237478Y-53842526D01*
G37*
%TD.AperFunction*%
%TD*%
%TA.AperFunction,Conductor*%
%TO.N,/GPIO06*%
G36*
X74690159Y-68198799D02*
G01*
X74692844Y-68202971D01*
X75219809Y-69611053D01*
X75219499Y-69620003D01*
X75212952Y-69626112D01*
X75211148Y-69626626D01*
X74442297Y-69780540D01*
X74437703Y-69780540D01*
X73668851Y-69626626D01*
X73661412Y-69621642D01*
X73659676Y-69612857D01*
X73660190Y-69611053D01*
X74187156Y-68202971D01*
X74193265Y-68196424D01*
X74198114Y-68195372D01*
X74681886Y-68195372D01*
X74690159Y-68198799D01*
G37*
%TD.AperFunction*%
%TD*%
%TA.AperFunction,Conductor*%
%TO.N,/GPIO06*%
G36*
X74448016Y-66006543D02*
G01*
X75014955Y-66540011D01*
X75018632Y-66548176D01*
X75017651Y-66553233D01*
X74693071Y-67293001D01*
X74686609Y-67299200D01*
X74682357Y-67300000D01*
X74197643Y-67300000D01*
X74189370Y-67296573D01*
X74186929Y-67293001D01*
X73862348Y-66553233D01*
X73862162Y-66544280D01*
X73865042Y-66540013D01*
X74431983Y-66006543D01*
X74440356Y-66003370D01*
X74448016Y-66006543D01*
G37*
%TD.AperFunction*%
%TD*%
%TA.AperFunction,Conductor*%
%TO.N,/GPIO08*%
G36*
X82067872Y-66006159D02*
G01*
X82653259Y-66538537D01*
X82657074Y-66546639D01*
X82655707Y-66552705D01*
X82313305Y-67193812D01*
X82306385Y-67199495D01*
X82302985Y-67200000D01*
X81817015Y-67200000D01*
X81808742Y-67196573D01*
X81806695Y-67193812D01*
X81464292Y-66552705D01*
X81463417Y-66543793D01*
X81466738Y-66538540D01*
X82052128Y-66006158D01*
X82060554Y-66003128D01*
X82067872Y-66006159D01*
G37*
%TD.AperFunction*%
%TD*%
%TA.AperFunction,Conductor*%
%TO.N,/GPIO08*%
G36*
X82310159Y-68198799D02*
G01*
X82312844Y-68202971D01*
X82839809Y-69611053D01*
X82839499Y-69620003D01*
X82832952Y-69626112D01*
X82831148Y-69626626D01*
X82062297Y-69780540D01*
X82057703Y-69780540D01*
X81288851Y-69626626D01*
X81281412Y-69621642D01*
X81279676Y-69612857D01*
X81280190Y-69611053D01*
X81807156Y-68202971D01*
X81813265Y-68196424D01*
X81818114Y-68195372D01*
X82301886Y-68195372D01*
X82310159Y-68198799D01*
G37*
%TD.AperFunction*%
%TD*%
%TA.AperFunction,Conductor*%
%TO.N,+12V*%
G36*
X55005802Y-78012432D02*
G01*
X55010160Y-78016790D01*
X55996895Y-79744564D01*
X55998022Y-79753447D01*
X55997200Y-79755598D01*
X55503234Y-80743532D01*
X55496469Y-80749400D01*
X55492769Y-80750000D01*
X54507231Y-80750000D01*
X54498958Y-80746573D01*
X54496766Y-80743532D01*
X54002799Y-79755598D01*
X54002164Y-79746666D01*
X54003102Y-79744568D01*
X54989840Y-78016789D01*
X54996919Y-78011305D01*
X55005802Y-78012432D01*
G37*
%TD.AperFunction*%
%TD*%
%TA.AperFunction,Conductor*%
%TO.N,+12V*%
G36*
X59660284Y-85652165D02*
G01*
X60494936Y-85996909D01*
X60501274Y-86003235D01*
X60501939Y-86005415D01*
X60700190Y-86990602D01*
X60698463Y-86999388D01*
X60693239Y-87003702D01*
X59249568Y-87608194D01*
X59240613Y-87608229D01*
X59236776Y-87605675D01*
X58894600Y-87263499D01*
X58891173Y-87255226D01*
X58892295Y-87250226D01*
X59645243Y-85657976D01*
X59651877Y-85651964D01*
X59660284Y-85652165D01*
G37*
%TD.AperFunction*%
%TD*%
%TA.AperFunction,Conductor*%
%TO.N,+12V*%
G36*
X77883129Y-60601725D02*
G01*
X78455323Y-60994389D01*
X78460206Y-61001895D01*
X78459304Y-61008985D01*
X78128256Y-61718025D01*
X78121651Y-61724071D01*
X78117306Y-61724770D01*
X77298851Y-61700338D01*
X77290684Y-61696666D01*
X77287500Y-61688643D01*
X77287500Y-61204752D01*
X77290813Y-61196594D01*
X77868124Y-60603213D01*
X77876349Y-60599674D01*
X77883129Y-60601725D01*
G37*
%TD.AperFunction*%
%TD*%
%TA.AperFunction,Conductor*%
%TO.N,+12V*%
G36*
X76945080Y-61198473D02*
G01*
X76952735Y-61203118D01*
X76955000Y-61210037D01*
X76955000Y-61689962D01*
X76951573Y-61698235D01*
X76945079Y-61701526D01*
X76471308Y-61774414D01*
X76464088Y-61773207D01*
X75868709Y-61460356D01*
X75862980Y-61453475D01*
X75863795Y-61444558D01*
X75868710Y-61439643D01*
X76464090Y-61126791D01*
X76471305Y-61125585D01*
X76945080Y-61198473D01*
G37*
%TD.AperFunction*%
%TD*%
%TA.AperFunction,Conductor*%
%TO.N,+12V*%
G36*
X78470749Y-61007295D02*
G01*
X78788881Y-61327219D01*
X79026258Y-61565933D01*
X79029662Y-61574216D01*
X79029283Y-61577136D01*
X78839781Y-62303753D01*
X78834378Y-62310893D01*
X78828460Y-62312500D01*
X78096540Y-62312500D01*
X78088267Y-62309073D01*
X78085219Y-62303753D01*
X77895716Y-61577136D01*
X77896944Y-61568265D01*
X77898741Y-61565933D01*
X78454205Y-61007341D01*
X78462467Y-61003892D01*
X78470749Y-61007295D01*
G37*
%TD.AperFunction*%
%TD*%
%TA.AperFunction,Conductor*%
%TO.N,+12V*%
G36*
X77304427Y-60250308D02*
G01*
X78252997Y-60274776D01*
X78261177Y-60278415D01*
X78263964Y-60283334D01*
X78461211Y-60991781D01*
X78460129Y-61000670D01*
X78456375Y-61004691D01*
X77883337Y-61382045D01*
X77874542Y-61383733D01*
X77868265Y-61380165D01*
X77295536Y-60753352D01*
X77292473Y-60745460D01*
X77292473Y-60262005D01*
X77295900Y-60253732D01*
X77304173Y-60250305D01*
X77304427Y-60250308D01*
G37*
%TD.AperFunction*%
%TD*%
%TA.AperFunction,Conductor*%
%TO.N,+12V*%
G36*
X76945080Y-60248473D02*
G01*
X76952735Y-60253118D01*
X76955000Y-60260037D01*
X76955000Y-60739962D01*
X76951573Y-60748235D01*
X76945079Y-60751526D01*
X76471308Y-60824414D01*
X76464088Y-60823207D01*
X75868709Y-60510356D01*
X75862980Y-60503475D01*
X75863795Y-60494558D01*
X75868710Y-60489643D01*
X76464090Y-60176791D01*
X76471305Y-60175585D01*
X76945080Y-60248473D01*
G37*
%TD.AperFunction*%
%TD*%
%TA.AperFunction,Conductor*%
%TO.N,+12V*%
G36*
X88160284Y-85652165D02*
G01*
X88994936Y-85996909D01*
X89001274Y-86003235D01*
X89001939Y-86005415D01*
X89200190Y-86990602D01*
X89198463Y-86999388D01*
X89193239Y-87003702D01*
X87749568Y-87608194D01*
X87740613Y-87608229D01*
X87736776Y-87605675D01*
X87394600Y-87263499D01*
X87391173Y-87255226D01*
X87392295Y-87250226D01*
X88145243Y-85657976D01*
X88151877Y-85651964D01*
X88160284Y-85652165D01*
G37*
%TD.AperFunction*%
%TD*%
%TA.AperFunction,Conductor*%
%TO.N,+12V*%
G36*
X69160284Y-85652165D02*
G01*
X69994936Y-85996909D01*
X70001274Y-86003235D01*
X70001939Y-86005415D01*
X70200190Y-86990602D01*
X70198463Y-86999388D01*
X70193239Y-87003702D01*
X68749568Y-87608194D01*
X68740613Y-87608229D01*
X68736776Y-87605675D01*
X68394600Y-87263499D01*
X68391173Y-87255226D01*
X68392295Y-87250226D01*
X69145243Y-85657976D01*
X69151877Y-85651964D01*
X69160284Y-85652165D01*
G37*
%TD.AperFunction*%
%TD*%
%TA.AperFunction,Conductor*%
%TO.N,+12V*%
G36*
X78660284Y-85652165D02*
G01*
X79494936Y-85996909D01*
X79501274Y-86003235D01*
X79501939Y-86005415D01*
X79700190Y-86990602D01*
X79698463Y-86999388D01*
X79693239Y-87003702D01*
X78249568Y-87608194D01*
X78240613Y-87608229D01*
X78236776Y-87605675D01*
X77894600Y-87263499D01*
X77891173Y-87255226D01*
X77892295Y-87250226D01*
X78645243Y-85657976D01*
X78651877Y-85651964D01*
X78660284Y-85652165D01*
G37*
%TD.AperFunction*%
%TD*%
%TA.AperFunction,Conductor*%
%TO.N,+12V*%
G36*
X52815678Y-75281720D02*
G01*
X54659216Y-76247382D01*
X54664954Y-76254256D01*
X54665277Y-76255538D01*
X54997447Y-77983749D01*
X54995643Y-77992520D01*
X54988165Y-77997447D01*
X54983749Y-77997447D01*
X53255538Y-77665277D01*
X53248060Y-77660350D01*
X53247386Y-77659223D01*
X52281720Y-75815678D01*
X52280917Y-75806759D01*
X52283809Y-75801978D01*
X52801977Y-75283810D01*
X52810249Y-75280384D01*
X52815678Y-75281720D01*
G37*
%TD.AperFunction*%
%TD*%
%TA.AperFunction,Conductor*%
%TO.N,Net-(U1-FB)*%
G36*
X68912146Y-62348210D02*
G01*
X69495102Y-62497854D01*
X69502263Y-62503231D01*
X69502965Y-62504620D01*
X69794358Y-63191869D01*
X69794432Y-63200823D01*
X69790931Y-63205543D01*
X69060697Y-63794440D01*
X69052106Y-63796966D01*
X69045079Y-63793606D01*
X68703297Y-63451824D01*
X68699870Y-63443551D01*
X68700059Y-63441458D01*
X68897746Y-62357447D01*
X68902601Y-62349925D01*
X68911355Y-62348038D01*
X68912146Y-62348210D01*
G37*
%TD.AperFunction*%
%TD*%
%TA.AperFunction,Conductor*%
%TO.N,Net-(U1-FB)*%
G36*
X72535909Y-61126791D02*
G01*
X72934527Y-61336251D01*
X73131289Y-61439643D01*
X73137019Y-61446525D01*
X73136204Y-61455442D01*
X73131289Y-61460357D01*
X72535912Y-61773207D01*
X72528691Y-61774414D01*
X72054921Y-61701526D01*
X72047265Y-61696881D01*
X72045000Y-61689962D01*
X72045000Y-61210037D01*
X72048427Y-61201764D01*
X72054919Y-61198473D01*
X72528694Y-61125585D01*
X72535909Y-61126791D01*
G37*
%TD.AperFunction*%
%TD*%
%TA.AperFunction,Conductor*%
%TO.N,Net-(U1-FB)*%
G36*
X67543647Y-64619605D02*
G01*
X67545105Y-64620842D01*
X67887180Y-64962917D01*
X67889799Y-64966918D01*
X68078077Y-65446953D01*
X68077908Y-65455906D01*
X68075195Y-65459753D01*
X67508731Y-65991841D01*
X67500355Y-65995007D01*
X67492193Y-65991323D01*
X67491427Y-65990420D01*
X67085635Y-65459753D01*
X67009089Y-65359651D01*
X67006787Y-65351000D01*
X67008872Y-65345733D01*
X67527323Y-64622299D01*
X67534927Y-64617571D01*
X67543647Y-64619605D01*
G37*
%TD.AperFunction*%
%TD*%
%TA.AperFunction,Conductor*%
%TO.N,Net-(U1-FB)*%
G36*
X70035559Y-61879412D02*
G01*
X70463825Y-62181224D01*
X70465358Y-62182515D01*
X70808178Y-62525335D01*
X70811605Y-62533608D01*
X70808178Y-62541881D01*
X70806463Y-62543297D01*
X70091189Y-63027465D01*
X70082417Y-63029265D01*
X70076755Y-63026428D01*
X69507610Y-62508278D01*
X69503799Y-62500174D01*
X69506529Y-62492098D01*
X70019864Y-61881446D01*
X70027810Y-61877320D01*
X70035559Y-61879412D01*
G37*
%TD.AperFunction*%
%TD*%
%TA.AperFunction,Conductor*%
%TO.N,Net-(J2-Pin_2)*%
G36*
X63250237Y-84169760D02*
G01*
X63252884Y-84173834D01*
X63829451Y-85673209D01*
X63829222Y-85682161D01*
X63822730Y-85688328D01*
X63822687Y-85688345D01*
X63004156Y-85999420D01*
X62995844Y-85999420D01*
X62177312Y-85688345D01*
X62170795Y-85682202D01*
X62170531Y-85673255D01*
X62747116Y-84173834D01*
X62753283Y-84167342D01*
X62758036Y-84166333D01*
X63241964Y-84166333D01*
X63250237Y-84169760D01*
G37*
%TD.AperFunction*%
%TD*%
%TA.AperFunction,Conductor*%
%TO.N,Net-(J2-Pin_2)*%
G36*
X50196435Y-60556549D02*
G01*
X50537692Y-60844880D01*
X50539552Y-60846451D01*
X50543660Y-60854408D01*
X50543701Y-60855495D01*
X50541106Y-61138407D01*
X50537603Y-61146649D01*
X50529406Y-61150000D01*
X50049273Y-61150000D01*
X50041000Y-61146573D01*
X50038242Y-61142200D01*
X49937148Y-60856301D01*
X49937621Y-60847359D01*
X49939216Y-60844880D01*
X50179955Y-60557990D01*
X50187897Y-60553858D01*
X50196435Y-60556549D01*
G37*
%TD.AperFunction*%
%TD*%
%TA.AperFunction,Conductor*%
%TO.N,Net-(J3-Pin_2)*%
G36*
X72750237Y-84169760D02*
G01*
X72752884Y-84173834D01*
X73329451Y-85673209D01*
X73329222Y-85682161D01*
X73322730Y-85688328D01*
X73322687Y-85688345D01*
X72504156Y-85999420D01*
X72495844Y-85999420D01*
X71677312Y-85688345D01*
X71670795Y-85682202D01*
X71670531Y-85673255D01*
X72247116Y-84173834D01*
X72253283Y-84167342D01*
X72258036Y-84166333D01*
X72741964Y-84166333D01*
X72750237Y-84169760D01*
G37*
%TD.AperFunction*%
%TD*%
%TA.AperFunction,Conductor*%
%TO.N,Net-(J3-Pin_2)*%
G36*
X54195317Y-60557705D02*
G01*
X54195343Y-60557734D01*
X54453539Y-60845238D01*
X54456517Y-60853683D01*
X54456112Y-60856169D01*
X54377370Y-61141413D01*
X54371865Y-61148476D01*
X54366092Y-61150000D01*
X53885931Y-61150000D01*
X53877658Y-61146573D01*
X53874258Y-61139095D01*
X53868735Y-61057961D01*
X53854965Y-60855664D01*
X53857822Y-60847179D01*
X53858784Y-60846198D01*
X54178792Y-60556872D01*
X54187226Y-60553867D01*
X54195317Y-60557705D01*
G37*
%TD.AperFunction*%
%TD*%
%TA.AperFunction,Conductor*%
%TO.N,Net-(J4-Pin_2)*%
G36*
X58194048Y-60558695D02*
G01*
X58194072Y-60558730D01*
X58386506Y-60843628D01*
X58388296Y-60852402D01*
X58386667Y-60856479D01*
X58202451Y-61144602D01*
X58195108Y-61149727D01*
X58192594Y-61150000D01*
X57712644Y-61150000D01*
X57704371Y-61146573D01*
X57700944Y-61138300D01*
X57701081Y-61136516D01*
X57744517Y-60855026D01*
X57749165Y-60847372D01*
X57749453Y-60847168D01*
X58177794Y-60555606D01*
X58186560Y-60553785D01*
X58194048Y-60558695D01*
G37*
%TD.AperFunction*%
%TD*%
%TA.AperFunction,Conductor*%
%TO.N,Net-(J4-Pin_2)*%
G36*
X82250237Y-84169760D02*
G01*
X82252884Y-84173834D01*
X82829451Y-85673209D01*
X82829222Y-85682161D01*
X82822730Y-85688328D01*
X82822687Y-85688345D01*
X82004156Y-85999420D01*
X81995844Y-85999420D01*
X81177312Y-85688345D01*
X81170795Y-85682202D01*
X81170531Y-85673255D01*
X81747116Y-84173834D01*
X81753283Y-84167342D01*
X81758036Y-84166333D01*
X82241964Y-84166333D01*
X82250237Y-84169760D01*
G37*
%TD.AperFunction*%
%TD*%
%TA.AperFunction,Conductor*%
%TO.N,Net-(J5-Pin_2)*%
G36*
X62195317Y-60557705D02*
G01*
X62195343Y-60557734D01*
X62453539Y-60845238D01*
X62456517Y-60853683D01*
X62456112Y-60856169D01*
X62377370Y-61141413D01*
X62371865Y-61148476D01*
X62366092Y-61150000D01*
X61885931Y-61150000D01*
X61877658Y-61146573D01*
X61874258Y-61139095D01*
X61868735Y-61057961D01*
X61854965Y-60855664D01*
X61857822Y-60847179D01*
X61858784Y-60846198D01*
X62178792Y-60556872D01*
X62187226Y-60553867D01*
X62195317Y-60557705D01*
G37*
%TD.AperFunction*%
%TD*%
%TA.AperFunction,Conductor*%
%TO.N,Net-(J5-Pin_2)*%
G36*
X91750237Y-84169760D02*
G01*
X91752884Y-84173834D01*
X92329451Y-85673209D01*
X92329222Y-85682161D01*
X92322730Y-85688328D01*
X92322687Y-85688345D01*
X91504156Y-85999420D01*
X91495844Y-85999420D01*
X90677312Y-85688345D01*
X90670795Y-85682202D01*
X90670531Y-85673255D01*
X91247116Y-84173834D01*
X91253283Y-84167342D01*
X91258036Y-84166333D01*
X91741964Y-84166333D01*
X91750237Y-84169760D01*
G37*
%TD.AperFunction*%
%TD*%
%TA.AperFunction,Conductor*%
%TO.N,Net-(Q1-G)*%
G36*
X52070758Y-61507285D02*
G01*
X52290382Y-61727642D01*
X52356144Y-61793623D01*
X52359557Y-61801901D01*
X52357963Y-61807777D01*
X52190886Y-62094195D01*
X52183758Y-62099615D01*
X52180780Y-62100000D01*
X51944220Y-62100000D01*
X51935947Y-62096573D01*
X51934114Y-62094195D01*
X51883990Y-62008269D01*
X51767035Y-61807775D01*
X51765827Y-61798904D01*
X51768853Y-61793624D01*
X52054214Y-61507313D01*
X52062481Y-61503873D01*
X52070758Y-61507285D01*
G37*
%TD.AperFunction*%
%TD*%
%TA.AperFunction,Conductor*%
%TO.N,Net-(Q1-G)*%
G36*
X52189804Y-62853427D02*
G01*
X52191004Y-62854834D01*
X52656355Y-63496853D01*
X52658436Y-63505562D01*
X52654754Y-63512375D01*
X52070372Y-64043840D01*
X52061946Y-64046871D01*
X52054628Y-64043840D01*
X51470245Y-63512375D01*
X51466430Y-63504273D01*
X51468643Y-63496855D01*
X51933996Y-62854833D01*
X51941626Y-62850146D01*
X51943469Y-62850000D01*
X52181531Y-62850000D01*
X52189804Y-62853427D01*
G37*
%TD.AperFunction*%
%TD*%
%TA.AperFunction,Conductor*%
%TO.N,Net-(Q2-G)*%
G36*
X56070758Y-61507286D02*
G01*
X56298360Y-61735646D01*
X56356145Y-61793623D01*
X56359558Y-61801901D01*
X56357964Y-61807777D01*
X56190886Y-62094194D01*
X56183758Y-62099614D01*
X56180780Y-62099999D01*
X55944220Y-62099999D01*
X55935947Y-62096572D01*
X55934114Y-62094194D01*
X55767036Y-61807775D01*
X55765828Y-61798904D01*
X55768854Y-61793624D01*
X56054214Y-61507314D01*
X56062481Y-61503874D01*
X56070758Y-61507286D01*
G37*
%TD.AperFunction*%
%TD*%
%TA.AperFunction,Conductor*%
%TO.N,Net-(Q2-G)*%
G36*
X56189803Y-62853427D02*
G01*
X56191003Y-62854834D01*
X56656355Y-63496853D01*
X56658436Y-63505562D01*
X56654754Y-63512375D01*
X56070372Y-64043839D01*
X56061946Y-64046870D01*
X56054628Y-64043839D01*
X55470245Y-63512374D01*
X55466430Y-63504272D01*
X55468644Y-63496853D01*
X55933998Y-62854832D01*
X55941627Y-62850146D01*
X55943457Y-62850000D01*
X56181530Y-62850000D01*
X56189803Y-62853427D01*
G37*
%TD.AperFunction*%
%TD*%
%TA.AperFunction,Conductor*%
%TO.N,Net-(Q2-G)*%
G36*
X56070758Y-61507285D02*
G01*
X56290382Y-61727642D01*
X56356144Y-61793623D01*
X56359557Y-61801901D01*
X56357963Y-61807777D01*
X56190886Y-62094195D01*
X56183758Y-62099615D01*
X56180780Y-62100000D01*
X55944220Y-62100000D01*
X55935947Y-62096573D01*
X55934114Y-62094195D01*
X55883990Y-62008269D01*
X55767035Y-61807775D01*
X55765827Y-61798904D01*
X55768853Y-61793624D01*
X56054214Y-61507313D01*
X56062481Y-61503873D01*
X56070758Y-61507285D01*
G37*
%TD.AperFunction*%
%TD*%
%TA.AperFunction,Conductor*%
%TO.N,Net-(Q2-G)*%
G36*
X56189804Y-62853427D02*
G01*
X56191004Y-62854834D01*
X56656355Y-63496853D01*
X56658436Y-63505562D01*
X56654754Y-63512375D01*
X56070372Y-64043840D01*
X56061946Y-64046871D01*
X56054628Y-64043840D01*
X55470245Y-63512375D01*
X55466430Y-63504273D01*
X55468643Y-63496855D01*
X55933996Y-62854833D01*
X55941626Y-62850146D01*
X55943469Y-62850000D01*
X56181531Y-62850000D01*
X56189804Y-62853427D01*
G37*
%TD.AperFunction*%
%TD*%
%TA.AperFunction,Conductor*%
%TO.N,Net-(Q2-G)*%
G36*
X56070276Y-61507741D02*
G01*
X56070302Y-61507770D01*
X56323240Y-61792086D01*
X56326179Y-61800545D01*
X56323105Y-61807790D01*
X56103475Y-62046227D01*
X56095349Y-62049990D01*
X56094869Y-62050000D01*
X55906120Y-62050000D01*
X55897847Y-62046573D01*
X55896509Y-62044972D01*
X55732328Y-61808490D01*
X55730425Y-61799740D01*
X55734131Y-61793105D01*
X56053755Y-61506831D01*
X56062204Y-61503865D01*
X56070276Y-61507741D01*
G37*
%TD.AperFunction*%
%TD*%
%TA.AperFunction,Conductor*%
%TO.N,Net-(Q3-G)*%
G36*
X60069423Y-61508163D02*
G01*
X60069441Y-61508184D01*
X60310612Y-61788552D01*
X60313409Y-61797059D01*
X60309372Y-61805052D01*
X60306916Y-61806676D01*
X60058209Y-61929289D01*
X60058206Y-61929291D01*
X59926330Y-62061168D01*
X59918057Y-62064595D01*
X59909784Y-62061168D01*
X59908701Y-62059919D01*
X59720436Y-61808732D01*
X59718216Y-61800057D01*
X59722145Y-61792864D01*
X60052920Y-61506961D01*
X60061420Y-61504145D01*
X60069423Y-61508163D01*
G37*
%TD.AperFunction*%
%TD*%
%TA.AperFunction,Conductor*%
%TO.N,Net-(Q3-G)*%
G36*
X60070758Y-61507285D02*
G01*
X60290382Y-61727642D01*
X60356144Y-61793623D01*
X60359557Y-61801901D01*
X60357963Y-61807777D01*
X60190886Y-62094195D01*
X60183758Y-62099615D01*
X60180780Y-62100000D01*
X59944220Y-62100000D01*
X59935947Y-62096573D01*
X59934114Y-62094195D01*
X59883990Y-62008269D01*
X59767035Y-61807775D01*
X59765827Y-61798904D01*
X59768853Y-61793624D01*
X60054214Y-61507313D01*
X60062481Y-61503873D01*
X60070758Y-61507285D01*
G37*
%TD.AperFunction*%
%TD*%
%TA.AperFunction,Conductor*%
%TO.N,Net-(Q3-G)*%
G36*
X60189804Y-62853427D02*
G01*
X60191004Y-62854834D01*
X60656355Y-63496853D01*
X60658436Y-63505562D01*
X60654754Y-63512375D01*
X60070372Y-64043840D01*
X60061946Y-64046871D01*
X60054628Y-64043840D01*
X59470245Y-63512375D01*
X59466430Y-63504273D01*
X59468643Y-63496855D01*
X59933996Y-62854833D01*
X59941626Y-62850146D01*
X59943469Y-62850000D01*
X60181531Y-62850000D01*
X60189804Y-62853427D01*
G37*
%TD.AperFunction*%
%TD*%
%TA.AperFunction,Conductor*%
%TO.N,Net-(Q4-G)*%
G36*
X64127649Y-62853427D02*
G01*
X64128513Y-62854392D01*
X64627341Y-63478009D01*
X64629832Y-63486610D01*
X64626429Y-63493638D01*
X64070071Y-64043516D01*
X64061777Y-64046895D01*
X64054337Y-64044168D01*
X63442297Y-63531972D01*
X63438152Y-63524034D01*
X63440007Y-63516607D01*
X63871538Y-62855306D01*
X63878929Y-62850250D01*
X63881336Y-62850000D01*
X64119376Y-62850000D01*
X64127649Y-62853427D01*
G37*
%TD.AperFunction*%
%TD*%
%TA.AperFunction,Conductor*%
%TO.N,Net-(Q4-G)*%
G36*
X64070317Y-61507705D02*
G01*
X64070343Y-61507734D01*
X64326637Y-61793120D01*
X64329615Y-61801565D01*
X64327550Y-61807600D01*
X64128490Y-62094962D01*
X64120962Y-62099812D01*
X64118872Y-62100000D01*
X63882330Y-62100000D01*
X63874057Y-62096573D01*
X63871802Y-62093403D01*
X63733406Y-61807894D01*
X63732882Y-61798958D01*
X63736086Y-61794117D01*
X64053792Y-61506872D01*
X64062226Y-61503867D01*
X64070317Y-61507705D01*
G37*
%TD.AperFunction*%
%TD*%
%TA.AperFunction,Conductor*%
%TO.N,Net-(U1-SW)*%
G36*
X69999861Y-54664323D02*
G01*
X70002918Y-54666523D01*
X70344962Y-55008568D01*
X70344970Y-55008575D01*
X70344974Y-55008579D01*
X70344978Y-55008582D01*
X71171700Y-55685371D01*
X71175931Y-55693263D01*
X71174925Y-55699299D01*
X70358993Y-57479542D01*
X70352431Y-57485635D01*
X70343482Y-57485303D01*
X70338098Y-57480293D01*
X70337686Y-57479542D01*
X69421970Y-55809691D01*
X69420998Y-55800791D01*
X69421752Y-55798862D01*
X69984173Y-54669579D01*
X69990928Y-54663702D01*
X69999861Y-54664323D01*
G37*
%TD.AperFunction*%
%TD*%
%TA.AperFunction,Conductor*%
%TO.N,Net-(U1-SW)*%
G36*
X76098966Y-58903427D02*
G01*
X76102093Y-58909069D01*
X76173544Y-59218692D01*
X76172066Y-59227524D01*
X76170430Y-59229583D01*
X75858286Y-59542688D01*
X75850018Y-59546128D01*
X75841740Y-59542714D01*
X75841714Y-59542688D01*
X75529569Y-59229583D01*
X75526155Y-59221305D01*
X75526454Y-59218697D01*
X75597907Y-58909068D01*
X75603106Y-58901778D01*
X75609307Y-58900000D01*
X76090693Y-58900000D01*
X76098966Y-58903427D01*
G37*
%TD.AperFunction*%
%TD*%
%TA.AperFunction,Conductor*%
%TO.N,Net-(U1-SW)*%
G36*
X75623226Y-55803424D02*
G01*
X75629001Y-55809782D01*
X76094011Y-57039568D01*
X76093731Y-57048518D01*
X76087205Y-57054650D01*
X76083067Y-57055406D01*
X75602477Y-57055406D01*
X75597735Y-57054402D01*
X75564274Y-57039568D01*
X75402181Y-56967708D01*
X74863721Y-56728994D01*
X74857547Y-56722508D01*
X74857117Y-56715443D01*
X75035946Y-56005168D01*
X75041289Y-55997984D01*
X75043516Y-55996953D01*
X75614290Y-55802843D01*
X75623226Y-55803424D01*
G37*
%TD.AperFunction*%
%TD*%
%TA.AperFunction,Conductor*%
%TO.N,Net-(U1-SW)*%
G36*
X74237478Y-54842526D02*
G01*
X74854930Y-55137305D01*
X75135576Y-55271289D01*
X75141565Y-55277945D01*
X75142114Y-55283525D01*
X75039162Y-55994110D01*
X75034584Y-56001806D01*
X75032045Y-56003248D01*
X74459703Y-56239347D01*
X74450748Y-56239334D01*
X74444971Y-56234136D01*
X73926135Y-55283525D01*
X73880657Y-55200200D01*
X73879703Y-55191300D01*
X73882653Y-55186327D01*
X74224169Y-54844811D01*
X74232441Y-54841385D01*
X74237478Y-54842526D01*
G37*
%TD.AperFunction*%
%TD*%
%TA.AperFunction,Conductor*%
%TO.N,Net-(U1-CB)*%
G36*
X72971591Y-56006376D02*
G01*
X72971923Y-56006635D01*
X73544629Y-56470648D01*
X73548900Y-56478519D01*
X73548781Y-56481802D01*
X73401726Y-57302863D01*
X73396894Y-57310402D01*
X73390209Y-57312500D01*
X72906240Y-57312500D01*
X72897967Y-57309073D01*
X72896524Y-57307318D01*
X72468336Y-56669026D01*
X72466573Y-56660246D01*
X72468700Y-56655478D01*
X72955209Y-56008691D01*
X72962920Y-56004141D01*
X72971591Y-56006376D01*
G37*
%TD.AperFunction*%
%TD*%
%TA.AperFunction,Conductor*%
%TO.N,Net-(U1-CB)*%
G36*
X73398966Y-58903427D02*
G01*
X73402093Y-58909069D01*
X73473544Y-59218692D01*
X73472066Y-59227524D01*
X73470430Y-59229583D01*
X73158286Y-59542688D01*
X73150018Y-59546128D01*
X73141740Y-59542714D01*
X73141714Y-59542688D01*
X72829569Y-59229583D01*
X72826155Y-59221305D01*
X72826454Y-59218697D01*
X72897907Y-58909068D01*
X72903106Y-58901778D01*
X72909307Y-58900000D01*
X73390693Y-58900000D01*
X73398966Y-58903427D01*
G37*
%TD.AperFunction*%
%TD*%
M02*
